<?xml version="1.0" standalone="no"?>
<!DOCTYPE svg PUBLIC "-//W3C//DTD SVG 1.1//EN" "http://www.w3.org/Graphics/SVG/1.1/DTD/svg11.dtd" >
<svg>
<metadata>
Created by FontForge 20090622 at Tue Oct 23 10:48:10 2018
 By ffonts
Copyright (c) 2011 by Factorio.us Collective. All rights reserved.
</metadata>
<defs>
<font id="Fatfont" horiz-adv-x="1139" >
  <font-face 
    font-family="Fatfont"
    font-weight="400"
    font-stretch="normal"
    units-per-em="2048"
    panose-1="2 0 0 0 0 0 0 0 0 0"
    ascent="1638"
    descent="-410"
    x-height="1360"
    cap-height="1356"
    bbox="-404 -222 2539 1372"
    underline-thickness="150"
    underline-position="-142"
    unicode-range="U+0020-U+F005"
  />
<missing-glyph horiz-adv-x="1124" 
 />
    <glyph glyph-name=".notdef" horiz-adv-x="1124" 
 />
    <glyph glyph-name="NULL" horiz-adv-x="0" 
 />
    <glyph glyph-name="nonmarkingreturn" horiz-adv-x="569" 
 />
    <glyph glyph-name="space" unicode=" " horiz-adv-x="887" 
 />
    <glyph glyph-name="space" unicode="&#xa0;" horiz-adv-x="887" 
 />
    <glyph glyph-name="exclam" unicode="!" horiz-adv-x="569" 
 />
    <glyph glyph-name="quotedbl" unicode="&#x22;" horiz-adv-x="470" 
 />
    <glyph glyph-name="numbersign" unicode="#" 
 />
    <glyph glyph-name="dollar" unicode="$" 
 />
    <glyph glyph-name="percent" unicode="%" horiz-adv-x="1415" 
 />
    <glyph glyph-name="ampersand" unicode="&#x26;" horiz-adv-x="1366" 
 />
    <glyph glyph-name="quotesingle" unicode="'" horiz-adv-x="391" 
 />
    <glyph glyph-name="parenleft" unicode="(" horiz-adv-x="682" 
 />
    <glyph glyph-name="parenright" unicode=")" horiz-adv-x="682" 
 />
    <glyph glyph-name="asterisk" unicode="*" horiz-adv-x="797" 
 />
    <glyph glyph-name="plus" unicode="+" horiz-adv-x="1196" 
 />
    <glyph glyph-name="comma" unicode="," horiz-adv-x="288" 
 />
    <glyph glyph-name="glyph16" unicode="-" horiz-adv-x="1228" 
 />
    <glyph glyph-name="glyph16" unicode="&#xad;" horiz-adv-x="1228" 
 />
    <glyph glyph-name="period" unicode="." horiz-adv-x="244" 
d="M52 144h144q12 0 12 -84q0 -80 -12 -80h-144q-12 3 -12 32v100q0 30 12 32z" />
    <glyph glyph-name="slash" unicode="/" horiz-adv-x="1136" 
 />
    <glyph glyph-name="zero.001" horiz-adv-x="1232" 
 />
    <glyph glyph-name="one.001" horiz-adv-x="641" 
 />
    <glyph glyph-name="two.001" horiz-adv-x="1200" 
 />
    <glyph glyph-name="three.001" horiz-adv-x="1177" 
 />
    <glyph glyph-name="four.001" horiz-adv-x="1255" 
 />
    <glyph glyph-name="five.001" horiz-adv-x="1186" 
 />
    <glyph glyph-name="six.001" horiz-adv-x="1136" 
 />
    <glyph glyph-name="seven.001" horiz-adv-x="1195" 
 />
    <glyph glyph-name="eight.001" horiz-adv-x="1067" 
 />
    <glyph glyph-name="nine.001" horiz-adv-x="1122" 
 />
    <glyph glyph-name="semicolon.001" horiz-adv-x="316" 
 />
    <glyph glyph-name="less" unicode="&#x3c;" horiz-adv-x="1196" 
 />
    <glyph glyph-name="equal" unicode="=" horiz-adv-x="1228" 
 />
    <glyph glyph-name="greater" unicode="&#x3e;" horiz-adv-x="1196" 
 />
    <glyph glyph-name="question" unicode="?" horiz-adv-x="1008" 
 />
    <glyph glyph-name="at" unicode="@" horiz-adv-x="1476" 
 />
    <glyph glyph-name="A" unicode="A" horiz-adv-x="1263" 
d="M760 1365q120 -222 264 -592q124 -327 220 -712l12 -56h-312q-9 3 -88 228q-132 -12 -236 -12l-220 12q-74 -228 -88 -228h-304l-4 4h-4q135 543 312 964q108 245 184 392h264zM516 541h228l-112 312q-7 0 -116 -312z" />
    <glyph glyph-name="B" unicode="B" horiz-adv-x="1171" 
d="M484 1360q620 0 620 -324v-28q0 -242 -252 -312l-20 -4v-4q151 0 268 -136q56 -83 56 -212q0 -340 -604 -340h-424q-16 0 -24 164q-24 212 -24 472v88q0 323 40 632l4 4h360zM428 1188v-364h188q134 0 168 120l4 44v32q0 168 -332 168h-28zM428 568v-376h72q250 0 292 80
q28 39 28 112q0 184 -292 184h-100z" />
    <glyph glyph-name="C" unicode="C" horiz-adv-x="1036" 
d="M695 1360h64q200 0 200 -20v-324l-8 -8h-192q-305 0 -384 -208q-16 -60 -16 -104v-32q0 -207 216 -288q87 -24 172 -24h204l8 -8v-328q0 -16 -152 -16h-104q-304 0 -524 204q-168 179 -168 456v40q0 409 340 580q168 80 344 80z" />
    <glyph glyph-name="D" unicode="D" horiz-adv-x="1272" 
d="M84 1364h412q552 0 712 -400q44 -152 44 -284q0 -449 -444 -616q-184 -64 -444 -64h-280l-8 8v1348zM400 1096q24 -251 24 -416q0 -164 -24 -408h36q239 0 396 160q84 103 84 256q0 279 -280 376q-102 32 -232 32h-4z" />
    <glyph glyph-name="E" unicode="E" horiz-adv-x="1088" 
d="M1049 1360q16 0 16 -128v-40q0 -140 -16 -140h-640v-220h368q11 0 16 -152q0 -156 -20 -156h-364v-216h640q16 0 16 -140v-32q0 -136 -16 -136h-940q-16 0 -24 164q-24 212 -24 472v88q0 322 40 632l4 4h944z" />
    <glyph glyph-name="F" unicode="F" horiz-adv-x="1093" 
d="M1050 1360q16 0 16 -128v-40q0 -140 -16 -140h-640v-244h468q13 0 16 -152q-3 -156 -16 -156h-468v-492l-8 -8h-292q-16 0 -24 164q-24 212 -24 472v88q0 323 40 632l4 4h944z" />
    <glyph glyph-name="G" unicode="G" horiz-adv-x="1206" 
d="M712 1364h44q200 0 392 -60v-304h-4q-195 80 -352 80h-32q-270 0 -356 -200q-40 -90 -40 -200v-44q0 -260 236 -332l52 -8q224 0 224 204v8h-188l-8 8v208l8 8h452q24 0 24 -268q0 -292 -36 -292q-149 -172 -388 -172q-387 0 -548 168q-176 174 -176 468v52
q0 478 396 632q133 44 300 44z" />
    <glyph glyph-name="H" unicode="H" horiz-adv-x="1386" 
d="M401 1360l8 -8v-520h560l8 8v512l8 8h292q15 0 40 -400l8 -280q0 -336 -44 -680h-296l-8 8v516h-568v-516l-8 -8h-292q-16 0 -24 164q-24 213 -24 472v88q0 323 40 632l4 4h296z" />
    <glyph glyph-name="I" unicode="I" horiz-adv-x="546" 
d="M429 1356q15 0 40 -400l8 -280q0 -336 -44 -680h-324q-16 0 -24 164q-24 208 -24 472v88q0 323 40 632l4 4h324z" />
    <glyph glyph-name="J" unicode="J" horiz-adv-x="861" 
d="M412 1360h332q16 0 32 -352v-176q0 -603 -152 -720q-110 -112 -436 -112h-140l-8 8v316l8 8h12q250 0 328 128q16 33 16 68v824z" />
    <glyph glyph-name="K" unicode="K" horiz-adv-x="1276" 
d="M461 1360l8 -8v-604h4q23 51 352 612h396q0 -10 -296 -524q-68 -107 -68 -124q363 -623 408 -712h-396q-36 52 -396 684h-4v-676l-8 -8h-332q-16 0 -24 164q-24 212 -24 472v88q0 323 40 632l4 4h336z" />
    <glyph glyph-name="L" unicode="L" horiz-adv-x="1001" 
d="M93 1364h332q24 -16 36 -464v-128q0 -186 -24 -424h528l8 -8v-332l-8 -8h-872l-8 8v1348z" />
    <glyph glyph-name="M" unicode="M" horiz-adv-x="1748" 
d="M411 1360q126 -85 408 -380l52 -64q310 337 464 444h300q24 0 44 -528l4 -160q0 -312 -40 -668l-4 -4h-296l-8 8v856l-464 -460h-4l-464 460v-856l-8 -8h-292q-16 0 -24 164q-24 207 -24 472v88q0 322 40 632l4 4h312z" />
    <glyph glyph-name="N" unicode="N" horiz-adv-x="1552" 
d="M409 1364q27 -23 612 -708l104 -116v816l8 8h296q14 0 36 -360q8 -92 8 -252v-136q0 -303 -40 -616h-304l-716 828v-816l-8 -8h-292q-16 0 -24 164q-24 208 -24 472v88q0 323 40 632l4 4h300z" />
    <glyph glyph-name="O" unicode="O" horiz-adv-x="1359" 
d="M647 1360h32q425 0 612 -352q60 -148 60 -332v-4q0 -475 -400 -628q-133 -44 -240 -44h-56q-298 0 -508 228q-132 183 -132 428v48q0 516 492 640q78 16 140 16zM363 696v-32q0 -218 200 -292q69 -20 120 -20q229 0 304 208q16 52 16 120v8q0 235 -220 304
q-44 12 -108 16q-210 0 -292 -192q-20 -58 -20 -120z" />
    <glyph glyph-name="P" unicode="P" horiz-adv-x="1123" 
d="M88 1360h464q295 0 464 -128q80 -78 80 -156v-52q0 -308 -348 -448q-159 -52 -284 -52q-12 -313 -40 -524h-336l-8 8v1344zM448 1132v-4l16 -364h8q256 32 256 224v12q0 87 -160 120q-57 12 -120 12z" />
    <glyph glyph-name="Q" unicode="Q" horiz-adv-x="1372" 
d="M647 1369h32q425 0 612 -352q60 -148 60 -332v-4q0 -435 -336 -600v-4q101 -6 292 -295l-4 -4h-376q-6 0 -60 92q-94 139 -212 139q-298 0 -508 228q-132 183 -132 428v48q0 515 492 640q78 16 140 16zM363 705v-32q0 -219 200 -292q69 -20 120 -20q229 0 304 208
q16 52 16 120v8q0 234 -220 304q-44 12 -108 16q-210 0 -292 -192q-20 -58 -20 -120z" />
    <glyph glyph-name="R" unicode="R" horiz-adv-x="1189" 
d="M79 1360h460q432 -10 532 -212q16 -44 16 -72v-52q0 -254 -252 -408q125 -103 176 -196q66 -106 156 -416l-4 -4h-380q-8 0 -64 208q-101 272 -264 272q-26 -480 -44 -480h-332l-8 8v1344zM439 1132v-4q16 -183 16 -364h8q256 32 256 224v4q0 140 -280 140z" />
    <glyph glyph-name="S" unicode="S" horiz-adv-x="1150" 
d="M542 1360h52q251 0 500 -40v-308l-8 -8q-267 52 -420 52h-20q-144 0 -144 -64q0 -55 272 -244q344 -235 344 -444v-8q0 -212 -352 -284q-97 -12 -164 -12h-76q-230 0 -476 32l-4 4v312l8 8q226 -40 364 -40h40q172 0 172 76q0 61 -316 248q-292 196 -292 404v24
q0 212 368 280q71 12 152 12z" />
    <glyph glyph-name="T" unicode="T" horiz-adv-x="1263" 
d="M584 1360h84q288 0 568 -36v-308q0 -22 -436 -40v-968l-8 -8h-332l-8 8v968h-4q-414 17 -432 40v300q0 30 568 44z" />
    <glyph glyph-name="U" unicode="U" horiz-adv-x="1324" 
d="M73 1360h332l8 -8v-824q0 -74 64 -132q66 -48 156 -48h40q155 0 208 116q12 32 12 60v828l8 8h332l8 -8v-872q0 -260 -244 -408q-140 -72 -308 -72h-72q-403 0 -532 340q-20 84 -20 148v864z" />
    <glyph glyph-name="V" unicode="V" horiz-adv-x="1281" 
d="M351 1372q8 0 252 -744l36 -104h4q277 848 288 848h336q0 -93 -224 -756q-140 -359 -272 -604q-57 -12 -116 -12h-32q-124 0 -124 24q-191 366 -376 940q-52 166 -112 404l4 4h336z" />
    <glyph glyph-name="W" unicode="W" horiz-adv-x="1958" 
d="M379 1360q19 -24 144 -384l192 -528h4l260 720h4q20 -30 264 -720q8 6 152 404q176 492 188 508h364v-4q0 -79 -208 -708q-146 -380 -288 -648h-408q-11 1 -60 152q-14 -18 -60 -152h-412q-26 26 -160 332q-149 327 -292 840l-48 184l4 4h360z" />
    <glyph glyph-name="X" unicode="X" horiz-adv-x="1220" 
d="M20 1364h392q32 -31 200 -272q94 146 192 272h388l4 -4h4l-364 -628q176 -294 364 -728l-4 -4h-388l-200 332h-4q-141 -257 -192 -332h-388l-4 4h-4q179 408 364 720q0 11 -316 556q-44 71 -44 84z" />
    <glyph glyph-name="Y" unicode="Y" horiz-adv-x="1189" 
d="M178 1360h48q184 0 184 -24q113 -160 176 -296l8 -24h4q42 116 176 312q0 32 192 32h48q172 -2 172 -16v-4l-416 -720v-612l-8 -8h-332l-8 8v600q-10 35 -292 516q-117 198 -124 224q67 12 172 12z" />
    <glyph glyph-name="Z" unicode="Z" horiz-adv-x="1189" 
d="M1183 1362v-346h-2l1 -1v0l-5 -4q-179 -227 -379 -427q-119 -118 -256 -238h639v-346h-1158v346l4 4q179 227 380 428q118 118 256 238h-643v346h1163z" />
    <glyph glyph-name="bracketleft" unicode="[" horiz-adv-x="569" 
 />
    <glyph glyph-name="backslash" unicode="\" horiz-adv-x="569" 
 />
    <glyph glyph-name="bracketright" unicode="]" horiz-adv-x="569" 
 />
    <glyph glyph-name="asciicircum" unicode="^" horiz-adv-x="961" 
 />
    <glyph glyph-name="underscore" unicode="_" horiz-adv-x="1425" 
 />
    <glyph glyph-name="grave" unicode="`" horiz-adv-x="391" 
 />
    <glyph glyph-name="a" unicode="a" horiz-adv-x="1263" 
d="M760 1365q120 -222 264 -592q124 -327 220 -712l12 -56h-312q-9 3 -88 228q-132 -12 -236 -12l-220 12q-74 -228 -88 -228h-304l-4 4h-4q135 543 312 964q108 245 184 392h264zM516 541h228l-112 312q-7 0 -116 -312z" />
    <glyph glyph-name="b" unicode="b" horiz-adv-x="1171" 
d="M484 1360q620 0 620 -324v-28q0 -242 -252 -312l-20 -4v-4q151 0 268 -136q56 -83 56 -212q0 -340 -604 -340h-424q-16 0 -24 164q-24 212 -24 472v88q0 323 40 632l4 4h360zM432 1180v-348h160q184 0 184 172q0 106 -100 144q-64 32 -244 32zM432 556v-356h4
q313 0 336 72q32 34 32 100v16q0 131 -180 164l-48 4h-144z" />
    <glyph glyph-name="c" unicode="c" horiz-adv-x="1036" 
d="M695 1360h64q200 0 200 -20v-324l-8 -8h-192q-305 0 -384 -208q-16 -60 -16 -104v-32q0 -207 216 -288q87 -24 172 -24h204l8 -8v-328q0 -16 -152 -16h-104q-304 0 -524 204q-168 179 -168 456v40q0 409 340 580q168 80 344 80z" />
    <glyph glyph-name="d" unicode="d" horiz-adv-x="1272" 
d="M84 1364h412q552 0 712 -400q44 -152 44 -284q0 -449 -444 -616q-184 -64 -444 -64h-280l-8 8v1348zM400 1096q24 -251 24 -416q0 -164 -24 -408h36q239 0 396 160q84 103 84 256q0 279 -280 376q-102 32 -232 32h-4z" />
    <glyph glyph-name="e" unicode="e" horiz-adv-x="1088" 
d="M1049 1360q16 0 16 -128v-40q0 -140 -16 -140h-640v-220h368q11 0 16 -152q0 -156 -20 -156h-364v-216h640q16 0 16 -140v-32q0 -136 -16 -136h-940q-16 0 -24 164q-24 212 -24 472v88q0 322 40 632l4 4h944z" />
    <glyph glyph-name="f" unicode="f" horiz-adv-x="1093" 
d="M1050 1360q16 0 16 -128v-40q0 -140 -16 -140h-640v-244h468q13 0 16 -152q-3 -156 -16 -156h-468v-492l-8 -8h-292q-16 0 -24 164q-24 212 -24 472v88q0 323 40 632l4 4h944z" />
    <glyph glyph-name="g" unicode="g" horiz-adv-x="1206" 
d="M712 1364h44q200 0 392 -60v-304h-4q-195 80 -352 80h-32q-270 0 -356 -200q-40 -90 -40 -200v-44q0 -260 236 -332l52 -8q224 0 224 204v8h-188l-8 8v208l8 8h452q24 0 24 -268q0 -292 -36 -292q-149 -172 -388 -172q-387 0 -548 168q-176 174 -176 468v52
q0 478 396 632q133 44 300 44z" />
    <glyph glyph-name="h" unicode="h" horiz-adv-x="1386" 
d="M401 1360l8 -8v-520h560l8 8v512l8 8h292q15 0 40 -400l8 -280q0 -336 -44 -680h-296l-8 8v516h-568v-516l-8 -8h-292q-16 0 -24 164q-24 213 -24 472v88q0 323 40 632l4 4h296z" />
    <glyph glyph-name="i" unicode="i" horiz-adv-x="546" 
d="M429 1356q15 0 40 -400l8 -280q0 -336 -44 -680h-324q-16 0 -24 164q-24 208 -24 472v88q0 323 40 632l4 4h324z" />
    <glyph glyph-name="j" unicode="j" horiz-adv-x="861" 
d="M412 1360h332q16 0 32 -352v-176q0 -603 -152 -720q-110 -112 -436 -112h-140l-8 8v316l8 8h12q250 0 328 128q16 33 16 68v824z" />
    <glyph glyph-name="k" unicode="k" horiz-adv-x="1276" 
d="M461 1360l8 -8v-604h4q23 51 352 612h396q0 -10 -296 -524q-68 -107 -68 -124q363 -623 408 -712h-396q-36 52 -396 684h-4v-676l-8 -8h-332q-16 0 -24 164q-24 212 -24 472v88q0 323 40 632l4 4h336z" />
    <glyph glyph-name="l" unicode="l" horiz-adv-x="1001" 
d="M93 1364h332q24 -16 36 -464v-128q0 -186 -24 -424h528l8 -8v-332l-8 -8h-872l-8 8v1348z" />
    <glyph glyph-name="m" unicode="m" horiz-adv-x="1748" 
d="M411 1360q126 -85 408 -380l52 -64q310 337 464 444h300q24 0 44 -528l4 -160q0 -312 -40 -668l-4 -4h-296l-8 8v856l-464 -460h-4l-464 460v-856l-8 -8h-292q-16 0 -24 164q-24 207 -24 472v88q0 322 40 632l4 4h312z" />
    <glyph glyph-name="n" unicode="n" horiz-adv-x="1552" 
d="M409 1364q27 -23 612 -708l104 -116v816l8 8h296q14 0 36 -360q8 -92 8 -252v-136q0 -303 -40 -616h-304l-716 828v-816l-8 -8h-292q-16 0 -24 164q-24 208 -24 472v88q0 323 40 632l4 4h300z" />
    <glyph glyph-name="o" unicode="o" horiz-adv-x="1359" 
d="M647 1360h32q425 0 612 -352q60 -148 60 -332v-4q0 -475 -400 -628q-133 -44 -240 -44h-56q-298 0 -508 228q-132 183 -132 428v48q0 516 492 640q78 16 140 16zM363 696v-32q0 -218 200 -292q69 -20 120 -20q229 0 304 208q16 52 16 120v8q0 235 -220 304
q-44 12 -108 16q-210 0 -292 -192q-20 -58 -20 -120z" />
    <glyph glyph-name="p" unicode="p" horiz-adv-x="1123" 
d="M88 1360h464q295 0 464 -128q80 -78 80 -156v-52q0 -308 -348 -448q-159 -52 -284 -52q-12 -313 -40 -524h-336l-8 8v1344zM448 1132v-4l16 -364h8q256 32 256 224v12q0 87 -160 120q-57 12 -120 12z" />
    <glyph glyph-name="q" unicode="q" horiz-adv-x="1372" 
d="M647 1369h32q425 0 612 -352q60 -148 60 -332v-4q0 -435 -336 -600v-4q101 -6 292 -295l-4 -4h-376q-6 0 -60 92q-94 139 -212 139q-298 0 -508 228q-132 183 -132 428v48q0 515 492 640q78 16 140 16zM363 705v-32q0 -219 200 -292q69 -20 120 -20q229 0 304 208
q16 52 16 120v8q0 234 -220 304q-44 12 -108 16q-210 0 -292 -192q-20 -58 -20 -120z" />
    <glyph glyph-name="r" unicode="r" horiz-adv-x="1189" 
d="M79 1360h460q432 -10 532 -212q16 -44 16 -72v-52q0 -254 -252 -408q125 -103 176 -196q66 -106 156 -416l-4 -4h-380q-8 0 -64 208q-101 272 -264 272q-26 -480 -44 -480h-332l-8 8v1344zM439 1132v-4q16 -183 16 -364h8q256 32 256 224v4q0 140 -280 140z" />
    <glyph glyph-name="s" unicode="s" horiz-adv-x="1150" 
d="M542 1360h52q251 0 500 -40v-308l-8 -8q-267 52 -420 52h-20q-144 0 -144 -64q0 -55 272 -244q344 -235 344 -444v-8q0 -212 -352 -284q-97 -12 -164 -12h-76q-230 0 -476 32l-4 4v312l8 8q226 -40 364 -40h40q172 0 172 76q0 61 -316 248q-292 196 -292 404v24
q0 212 368 280q71 12 152 12z" />
    <glyph glyph-name="t" unicode="t" horiz-adv-x="1263" 
d="M584 1360h84q288 0 568 -36v-308q0 -22 -436 -40v-968l-8 -8h-332l-8 8v968h-4q-414 17 -432 40v300q0 30 568 44z" />
    <glyph glyph-name="u" unicode="u" horiz-adv-x="1324" 
d="M73 1360h332l8 -8v-824q0 -74 64 -132q66 -48 156 -48h40q155 0 208 116q12 32 12 60v828l8 8h332l8 -8v-872q0 -260 -244 -408q-140 -72 -308 -72h-72q-403 0 -532 340q-20 84 -20 148v864z" />
    <glyph glyph-name="v" unicode="v" horiz-adv-x="1281" 
d="M351 1372q8 0 252 -744l36 -104h4q277 848 288 848h336q0 -93 -224 -756q-140 -359 -272 -604q-57 -12 -116 -12h-32q-124 0 -124 24q-191 366 -376 940q-52 166 -112 404l4 4h336z" />
    <glyph glyph-name="w" unicode="w" horiz-adv-x="1958" 
d="M379 1360q19 -24 144 -384l192 -528h4l260 720h4q20 -30 264 -720q8 6 152 404q176 492 188 508h364v-4q0 -79 -208 -708q-146 -380 -288 -648h-408q-11 1 -60 152q-14 -18 -60 -152h-412q-26 26 -160 332q-149 327 -292 840l-48 184l4 4h360z" />
    <glyph glyph-name="x" unicode="x" horiz-adv-x="1220" 
d="M20 1364h392q32 -31 200 -272q94 146 192 272h388l4 -4h4l-364 -628q176 -294 364 -728l-4 -4h-388l-200 332h-4q-141 -257 -192 -332h-388l-4 4h-4q179 408 364 720q0 11 -316 556q-44 71 -44 84z" />
    <glyph glyph-name="y" unicode="y" horiz-adv-x="1189" 
d="M178 1360h48q184 0 184 -24q113 -160 176 -296l8 -24h4q42 116 176 312q0 32 192 32h48q172 -2 172 -16v-4l-416 -720v-612l-8 -8h-332l-8 8v600q-10 35 -292 516q-117 198 -124 224q67 12 172 12z" />
    <glyph glyph-name="z" unicode="z" horiz-adv-x="1189" 
d="M24 1364h1148l8 -8v-336q-108 -156 -480 -528l-156 -136v-8h624l8 -8v-332l-8 -8h-1144l-8 8v328q0 20 136 176q158 193 500 504h-628l-8 8v332z" />
    <glyph glyph-name="braceleft" unicode="{" horiz-adv-x="684" 
 />
    <glyph glyph-name="bar" unicode="|" horiz-adv-x="532" 
 />
    <glyph glyph-name="braceright" unicode="}" horiz-adv-x="684" 
 />
    <glyph glyph-name="asciitilde" unicode="~" horiz-adv-x="1196" 
 />
    <glyph glyph-name="Adieresis" unicode="&#xc4;" horiz-adv-x="1366" 
 />
    <glyph glyph-name="Aring" unicode="&#xc5;" horiz-adv-x="1366" 
 />
    <glyph glyph-name="Ccedilla" unicode="&#xc7;" horiz-adv-x="1479" 
 />
    <glyph glyph-name="Eacute" unicode="&#xc9;" horiz-adv-x="1366" 
 />
    <glyph glyph-name="Ntilde" unicode="&#xd1;" horiz-adv-x="1479" 
 />
    <glyph glyph-name="Odieresis" unicode="&#xd6;" horiz-adv-x="1593" 
 />
    <glyph glyph-name="Udieresis" unicode="&#xdc;" horiz-adv-x="1479" 
 />
    <glyph glyph-name="aacute" unicode="&#xe1;" 
 />
    <glyph glyph-name="agrave" unicode="&#xe0;" 
 />
    <glyph glyph-name="acircumflex" unicode="&#xe2;" 
 />
    <glyph glyph-name="adieresis" unicode="&#xe4;" 
 />
    <glyph glyph-name="atilde" unicode="&#xe3;" 
 />
    <glyph glyph-name="aring" unicode="&#xe5;" 
 />
    <glyph glyph-name="ccedilla" unicode="&#xe7;" horiz-adv-x="1024" 
 />
    <glyph glyph-name="eacute" unicode="&#xe9;" 
 />
    <glyph glyph-name="egrave" unicode="&#xe8;" 
 />
    <glyph glyph-name="ecircumflex" unicode="&#xea;" 
 />
    <glyph glyph-name="edieresis" unicode="&#xeb;" 
 />
    <glyph glyph-name="iacute" unicode="&#xed;" horiz-adv-x="569" 
 />
    <glyph glyph-name="igrave" unicode="&#xec;" horiz-adv-x="569" 
 />
    <glyph glyph-name="icircumflex" unicode="&#xee;" horiz-adv-x="569" 
 />
    <glyph glyph-name="idieresis" unicode="&#xef;" horiz-adv-x="569" 
 />
    <glyph glyph-name="ntilde" unicode="&#xf1;" 
 />
    <glyph glyph-name="oacute" unicode="&#xf3;" 
 />
    <glyph glyph-name="ograve" unicode="&#xf2;" 
 />
    <glyph glyph-name="ocircumflex" unicode="&#xf4;" 
 />
    <glyph glyph-name="odieresis" unicode="&#xf6;" 
 />
    <glyph glyph-name="otilde" unicode="&#xf5;" 
 />
    <glyph glyph-name="uacute" unicode="&#xfa;" 
 />
    <glyph glyph-name="ugrave" unicode="&#xf9;" 
 />
    <glyph glyph-name="ucircumflex" unicode="&#xfb;" 
 />
    <glyph glyph-name="udieresis" unicode="&#xfc;" 
 />
    <glyph glyph-name="dagger" unicode="&#x2020;" 
 />
    <glyph glyph-name="degree" unicode="&#xb0;" horiz-adv-x="819" 
 />
    <glyph glyph-name="cent" unicode="&#xa2;" 
 />
    <glyph glyph-name="sterling" unicode="&#xa3;" 
 />
    <glyph glyph-name="section" unicode="&#xa7;" 
 />
    <glyph glyph-name="bullet" unicode="&#x2022;" horiz-adv-x="717" 
 />
    <glyph glyph-name="paragraph" unicode="&#xb6;" horiz-adv-x="1100" 
 />
    <glyph glyph-name="germandbls" unicode="&#xdf;" horiz-adv-x="1251" 
 />
    <glyph glyph-name="registered" unicode="&#xae;" horiz-adv-x="1509" 
 />
    <glyph glyph-name="copyright" unicode="&#xa9;" horiz-adv-x="1509" 
 />
    <glyph glyph-name="trademark" unicode="&#x2122;" horiz-adv-x="2048" 
 />
    <glyph glyph-name="acute" unicode="&#xb4;" horiz-adv-x="356" 
 />
    <glyph glyph-name="dieresis" unicode="&#xa8;" horiz-adv-x="682" 
 />
    <glyph glyph-name="notequal" unicode="&#x2260;" horiz-adv-x="1124" 
 />
    <glyph glyph-name="AE" unicode="&#xc6;" horiz-adv-x="2048" 
 />
    <glyph glyph-name="Oslash" unicode="&#xd8;" horiz-adv-x="1593" 
 />
    <glyph glyph-name="infinity" unicode="&#x221e;" horiz-adv-x="1460" 
 />
    <glyph glyph-name="plusminus" unicode="&#xb1;" horiz-adv-x="1124" 
 />
    <glyph glyph-name="lessequal" unicode="&#x2264;" horiz-adv-x="1124" 
 />
    <glyph glyph-name="greaterequal" unicode="&#x2265;" horiz-adv-x="1124" 
 />
    <glyph glyph-name="yen" unicode="&#xa5;" 
 />
    <glyph glyph-name="mu" unicode="&#xb5;" horiz-adv-x="1180" 
 />
    <glyph glyph-name="partialdiff" unicode="&#x2202;" horiz-adv-x="1012" 
 />
    <glyph glyph-name="summation" unicode="&#x2211;" horiz-adv-x="1460" 
 />
    <glyph glyph-name="product" unicode="&#x220f;" horiz-adv-x="1686" 
 />
    <glyph glyph-name=".notdef.001" horiz-adv-x="1536" 
d="M256 0v1280h1024v-1280h-1024zM288 32h960v1216h-960v-1216z" />
    <glyph glyph-name="integral" unicode="&#x222b;" horiz-adv-x="561" 
 />
    <glyph glyph-name="ordfeminine" unicode="&#xaa;" horiz-adv-x="758" 
 />
    <glyph glyph-name="ordmasculine" unicode="&#xba;" horiz-adv-x="748" 
 />
    <glyph glyph-name="Omega" unicode="&#x2126;" horiz-adv-x="1573" 
 />
    <glyph glyph-name="ae" unicode="&#xe6;" horiz-adv-x="1821" 
 />
    <glyph glyph-name="oslash" unicode="&#xf8;" horiz-adv-x="1251" 
 />
    <glyph glyph-name="questiondown" unicode="&#xbf;" horiz-adv-x="1251" 
 />
    <glyph glyph-name="exclamdown" unicode="&#xa1;" horiz-adv-x="682" 
 />
    <glyph glyph-name="logicalnot" unicode="&#xac;" horiz-adv-x="1196" 
 />
    <glyph glyph-name="radical" unicode="&#x221a;" horiz-adv-x="1124" 
 />
    <glyph glyph-name="florin" unicode="&#x192;" 
 />
    <glyph glyph-name="approxequal" unicode="&#x2248;" horiz-adv-x="1124" 
 />
    <glyph glyph-name="Delta" unicode="&#x2206;" horiz-adv-x="1253" 
 />
    <glyph glyph-name="guillemotleft" unicode="&#xab;" 
 />
    <glyph glyph-name="guillemotright" unicode="&#xbb;" 
 />
    <glyph glyph-name="ellipsis" unicode="&#x2026;" horiz-adv-x="2048" 
 />
    <glyph glyph-name="Agrave" unicode="&#xc0;" horiz-adv-x="1366" 
 />
    <glyph glyph-name="Atilde" unicode="&#xc3;" horiz-adv-x="1366" 
 />
    <glyph glyph-name="Otilde" unicode="&#xd5;" horiz-adv-x="1593" 
 />
    <glyph glyph-name="OE" unicode="&#x152;" horiz-adv-x="2048" 
 />
    <glyph glyph-name="oe" unicode="&#x153;" horiz-adv-x="1933" 
 />
    <glyph glyph-name="endash" unicode="&#x2013;" 
 />
    <glyph glyph-name="emdash" unicode="&#x2014;" horiz-adv-x="2048" 
 />
    <glyph glyph-name="quotedblleft" unicode="&#x201c;" horiz-adv-x="470" 
 />
    <glyph glyph-name="quotedblright" unicode="&#x201d;" horiz-adv-x="470" 
 />
    <glyph glyph-name="quoteleft" unicode="&#x2018;" horiz-adv-x="391" 
 />
    <glyph glyph-name="quoteright" unicode="&#x2019;" horiz-adv-x="391" 
 />
    <glyph glyph-name="divide" unicode="&#xf7;" horiz-adv-x="1124" 
 />
    <glyph glyph-name="lozenge" unicode="&#x25ca;" horiz-adv-x="1012" 
 />
    <glyph glyph-name="ydieresis" unicode="&#xff;" horiz-adv-x="1024" 
 />
    <glyph glyph-name="Ydieresis" unicode="&#x178;" horiz-adv-x="1366" 
 />
    <glyph glyph-name="fraction" unicode="&#x2044;" horiz-adv-x="342" 
 />
    <glyph glyph-name="fraction" unicode="&#x2215;" horiz-adv-x="342" 
 />
    <glyph glyph-name="Euro" unicode="&#x20ac;" 
 />
    <glyph glyph-name="guilsinglleft" unicode="&#x2039;" horiz-adv-x="682" 
 />
    <glyph glyph-name="guilsinglright" unicode="&#x203a;" horiz-adv-x="682" 
 />
    <glyph glyph-name="uniF001" unicode="&#xf001;" horiz-adv-x="1024" 
 />
    <glyph glyph-name="uniF001" unicode="&#xfb01;" horiz-adv-x="1024" 
 />
    <glyph glyph-name="uniF002" unicode="&#xf002;" horiz-adv-x="1024" 
 />
    <glyph glyph-name="uniF002" unicode="&#xfb02;" horiz-adv-x="1024" 
 />
    <glyph glyph-name="daggerdbl" unicode="&#x2021;" 
 />
    <glyph glyph-name="periodcentered" unicode="&#xb7;" horiz-adv-x="569" 
 />
    <glyph glyph-name="periodcentered" unicode="&#x2219;" horiz-adv-x="569" 
 />
    <glyph glyph-name="quotesinglbase" unicode="&#x201a;" horiz-adv-x="455" 
 />
    <glyph glyph-name="quotedblbase" unicode="&#x201e;" horiz-adv-x="682" 
 />
    <glyph glyph-name="perthousand" unicode="&#x2030;" horiz-adv-x="2048" 
 />
    <glyph glyph-name="Acircumflex" unicode="&#xc2;" horiz-adv-x="1366" 
 />
    <glyph glyph-name="Ecircumflex" unicode="&#xca;" horiz-adv-x="1366" 
 />
    <glyph glyph-name="Aacute" unicode="&#xc1;" horiz-adv-x="1366" 
 />
    <glyph glyph-name="Edieresis" unicode="&#xcb;" horiz-adv-x="1366" 
 />
    <glyph glyph-name="Egrave" unicode="&#xc8;" horiz-adv-x="1366" 
 />
    <glyph glyph-name="Iacute" unicode="&#xcd;" horiz-adv-x="569" 
 />
    <glyph glyph-name="Icircumflex" unicode="&#xce;" horiz-adv-x="569" 
 />
    <glyph glyph-name="Idieresis" unicode="&#xcf;" horiz-adv-x="569" 
 />
    <glyph glyph-name="Igrave" unicode="&#xcc;" horiz-adv-x="569" 
 />
    <glyph glyph-name="Oacute" unicode="&#xd3;" horiz-adv-x="1593" 
 />
    <glyph glyph-name="Ocircumflex" unicode="&#xd4;" horiz-adv-x="1593" 
 />
    <glyph glyph-name="Ograve" unicode="&#xd2;" horiz-adv-x="1593" 
 />
    <glyph glyph-name="Uacute" unicode="&#xda;" horiz-adv-x="1479" 
 />
    <glyph glyph-name="Ucircumflex" unicode="&#xdb;" horiz-adv-x="1479" 
 />
    <glyph glyph-name="Ugrave" unicode="&#xd9;" horiz-adv-x="1479" 
 />
    <glyph glyph-name="dotlessi" unicode="&#x131;" horiz-adv-x="569" 
 />
    <glyph glyph-name="circumflex" unicode="&#x2c6;" horiz-adv-x="682" 
 />
    <glyph glyph-name="tilde" unicode="&#x2dc;" horiz-adv-x="682" 
 />
    <glyph glyph-name="uni02C9" unicode="&#x2c9;" horiz-adv-x="682" 
 />
    <glyph glyph-name="breve" unicode="&#x2d8;" horiz-adv-x="682" 
 />
    <glyph glyph-name="dotaccent" unicode="&#x2d9;" horiz-adv-x="682" 
 />
    <glyph glyph-name="ring" unicode="&#x2da;" horiz-adv-x="682" 
 />
    <glyph glyph-name="cedilla" unicode="&#xb8;" horiz-adv-x="682" 
 />
    <glyph glyph-name="hungarumlaut" unicode="&#x2dd;" horiz-adv-x="682" 
 />
    <glyph glyph-name="ogonek" unicode="&#x2db;" horiz-adv-x="682" 
 />
    <glyph glyph-name="caron" unicode="&#x2c7;" horiz-adv-x="682" 
 />
    <glyph glyph-name="Lslash" unicode="&#x141;" 
 />
    <glyph glyph-name="lslash" unicode="&#x142;" horiz-adv-x="455" 
 />
    <glyph glyph-name="Scaron" unicode="&#x160;" horiz-adv-x="1366" 
 />
    <glyph glyph-name="scaron" unicode="&#x161;" horiz-adv-x="1024" 
 />
    <glyph glyph-name="Zcaron" unicode="&#x17d;" horiz-adv-x="1251" 
 />
    <glyph glyph-name="zcaron" unicode="&#x17e;" horiz-adv-x="1024" 
 />
    <glyph glyph-name="brokenbar" unicode="&#xa6;" horiz-adv-x="532" 
 />
    <glyph glyph-name="Eth" unicode="&#xd0;" horiz-adv-x="1479" 
 />
    <glyph glyph-name="eth" unicode="&#xf0;" 
 />
    <glyph glyph-name="Yacute" unicode="&#xdd;" horiz-adv-x="1366" 
 />
    <glyph glyph-name="yacute" unicode="&#xfd;" horiz-adv-x="1024" 
 />
    <glyph glyph-name="Thorn" unicode="&#xde;" horiz-adv-x="1366" 
 />
    <glyph glyph-name="thorn" unicode="&#xfe;" 
 />
    <glyph glyph-name="minus" unicode="&#x2212;" horiz-adv-x="1196" 
 />
    <glyph glyph-name="multiply" unicode="&#xd7;" horiz-adv-x="1196" 
 />
    <glyph glyph-name="uni00B9" unicode="&#xb9;" horiz-adv-x="682" 
 />
    <glyph glyph-name="uni00B2" unicode="&#xb2;" horiz-adv-x="682" 
 />
    <glyph glyph-name="uni00B3" unicode="&#xb3;" horiz-adv-x="682" 
 />
    <glyph glyph-name="onehalf" unicode="&#xbd;" horiz-adv-x="1708" 
 />
    <glyph glyph-name="onequarter" unicode="&#xbc;" horiz-adv-x="1708" 
 />
    <glyph glyph-name="threequarters" unicode="&#xbe;" horiz-adv-x="1708" 
 />
    <glyph glyph-name="franc" unicode="&#x20a3;" 
 />
    <glyph glyph-name="Gbreve" unicode="&#x11e;" horiz-adv-x="1593" 
 />
    <glyph glyph-name="gbreve" unicode="&#x11f;" 
 />
    <glyph glyph-name="Idotaccent" unicode="&#x130;" horiz-adv-x="569" 
 />
    <glyph glyph-name="Scedilla" unicode="&#x15e;" horiz-adv-x="1366" 
 />
    <glyph glyph-name="scedilla" unicode="&#x15f;" horiz-adv-x="1024" 
 />
    <glyph glyph-name="Cacute" unicode="&#x106;" horiz-adv-x="1479" 
 />
    <glyph glyph-name="cacute" unicode="&#x107;" horiz-adv-x="1024" 
 />
    <glyph glyph-name="Ccaron" unicode="&#x10c;" horiz-adv-x="1479" 
 />
    <glyph glyph-name="ccaron" unicode="&#x10d;" horiz-adv-x="1024" 
 />
    <glyph glyph-name="dcroat" unicode="&#x111;" 
 />
    <glyph glyph-name="currency" unicode="&#xa4;" 
 />
    <glyph glyph-name="macron" unicode="&#xaf;" horiz-adv-x="1131" 
 />
    <glyph glyph-name="Amacron" unicode="&#x100;" horiz-adv-x="1366" 
 />
    <glyph glyph-name="amacron" unicode="&#x101;" 
 />
    <glyph glyph-name="Abreve" unicode="&#x102;" horiz-adv-x="1366" 
 />
    <glyph glyph-name="abreve" unicode="&#x103;" 
 />
    <glyph glyph-name="Aogonek" unicode="&#x104;" horiz-adv-x="1366" 
 />
    <glyph glyph-name="aogonek" unicode="&#x105;" 
 />
    <glyph glyph-name="Ccircumflex" unicode="&#x108;" horiz-adv-x="1479" 
 />
    <glyph glyph-name="ccircumflex" unicode="&#x109;" horiz-adv-x="1024" 
 />
    <glyph glyph-name="Cdotaccent" unicode="&#x10a;" horiz-adv-x="1479" 
 />
    <glyph glyph-name="cdotaccent" unicode="&#x10b;" horiz-adv-x="1024" 
 />
    <glyph glyph-name="Dcaron" unicode="&#x10e;" horiz-adv-x="1479" 
 />
    <glyph glyph-name="dcaron" unicode="&#x10f;" horiz-adv-x="1259" 
 />
    <glyph glyph-name="Dcroat" unicode="&#x110;" horiz-adv-x="1479" 
 />
    <glyph glyph-name="Emacron" unicode="&#x112;" horiz-adv-x="1366" 
 />
    <glyph glyph-name="emacron" unicode="&#x113;" 
 />
    <glyph glyph-name="Ebreve" unicode="&#x114;" horiz-adv-x="1366" 
 />
    <glyph glyph-name="ebreve" unicode="&#x115;" 
 />
    <glyph glyph-name="Edotaccent" unicode="&#x116;" horiz-adv-x="1366" 
 />
    <glyph glyph-name="edotaccent" unicode="&#x117;" 
 />
    <glyph glyph-name="Eogonek" unicode="&#x118;" horiz-adv-x="1366" 
 />
    <glyph glyph-name="eogonek" unicode="&#x119;" 
 />
    <glyph glyph-name="Ecaron" unicode="&#x11a;" horiz-adv-x="1366" 
 />
    <glyph glyph-name="ecaron" unicode="&#x11b;" 
 />
    <glyph glyph-name="Gcircumflex" unicode="&#x11c;" horiz-adv-x="1593" 
 />
    <glyph glyph-name="gcircumflex" unicode="&#x11d;" 
 />
    <glyph glyph-name="Gdotaccent" unicode="&#x120;" horiz-adv-x="1593" 
 />
    <glyph glyph-name="gdotaccent" unicode="&#x121;" 
 />
    <glyph glyph-name="Gcommaaccent" unicode="&#x122;" horiz-adv-x="1593" 
 />
    <glyph glyph-name="gcommaaccent" unicode="&#x123;" 
 />
    <glyph glyph-name="Hcircumflex" unicode="&#x124;" horiz-adv-x="1479" 
 />
    <glyph glyph-name="hcircumflex" unicode="&#x125;" 
 />
    <glyph glyph-name="Hbar" unicode="&#x126;" horiz-adv-x="1479" 
 />
    <glyph glyph-name="hbar" unicode="&#x127;" 
 />
    <glyph glyph-name="Itilde" unicode="&#x128;" horiz-adv-x="569" 
 />
    <glyph glyph-name="itilde" unicode="&#x129;" horiz-adv-x="569" 
 />
    <glyph glyph-name="Imacron" unicode="&#x12a;" horiz-adv-x="569" 
 />
    <glyph glyph-name="imacron" unicode="&#x12b;" horiz-adv-x="569" 
 />
    <glyph glyph-name="Ibreve" unicode="&#x12c;" horiz-adv-x="569" 
 />
    <glyph glyph-name="ibreve" unicode="&#x12d;" horiz-adv-x="569" 
 />
    <glyph glyph-name="Iogonek" unicode="&#x12e;" horiz-adv-x="569" 
 />
    <glyph glyph-name="iogonek" unicode="&#x12f;" horiz-adv-x="455" 
 />
    <glyph glyph-name="IJ" unicode="&#x132;" horiz-adv-x="1505" 
 />
    <glyph glyph-name="ij" unicode="&#x133;" horiz-adv-x="909" 
 />
    <glyph glyph-name="Jcircumflex" unicode="&#x134;" horiz-adv-x="1024" 
 />
    <glyph glyph-name="jcircumflex" unicode="&#x135;" horiz-adv-x="455" 
 />
    <glyph glyph-name="Kcommaaccent" unicode="&#x136;" horiz-adv-x="1366" 
 />
    <glyph glyph-name="kcommaaccent" unicode="&#x137;" horiz-adv-x="1024" 
 />
    <glyph glyph-name="kgreenlandic" unicode="&#x138;" horiz-adv-x="1024" 
 />
    <glyph glyph-name="Lacute" unicode="&#x139;" 
 />
    <glyph glyph-name="lacute" unicode="&#x13a;" horiz-adv-x="455" 
 />
    <glyph glyph-name="Lcommaaccent" unicode="&#x13b;" 
 />
    <glyph glyph-name="lcommaaccent" unicode="&#x13c;" horiz-adv-x="455" 
 />
    <glyph glyph-name="Lcaron" unicode="&#x13d;" 
 />
    <glyph glyph-name="lcaron" unicode="&#x13e;" horiz-adv-x="597" 
 />
    <glyph glyph-name="Ldot" unicode="&#x13f;" 
 />
    <glyph glyph-name="ldot" unicode="&#x140;" horiz-adv-x="684" 
 />
    <glyph glyph-name="Nacute" unicode="&#x143;" horiz-adv-x="1479" 
 />
    <glyph glyph-name="nacute" unicode="&#x144;" 
 />
    <glyph glyph-name="Ncommaaccent" unicode="&#x145;" horiz-adv-x="1479" 
 />
    <glyph glyph-name="ncommaaccent" unicode="&#x146;" 
 />
    <glyph glyph-name="Ncaron" unicode="&#x147;" horiz-adv-x="1479" 
 />
    <glyph glyph-name="ncaron" unicode="&#x148;" 
 />
    <glyph glyph-name="napostrophe" unicode="&#x149;" horiz-adv-x="1237" 
 />
    <glyph glyph-name="Eng" unicode="&#x14a;" horiz-adv-x="1481" 
 />
    <glyph glyph-name="eng" unicode="&#x14b;" 
 />
    <glyph glyph-name="Omacron" unicode="&#x14c;" horiz-adv-x="1593" 
 />
    <glyph glyph-name="omacron" unicode="&#x14d;" 
 />
    <glyph glyph-name="Obreve" unicode="&#x14e;" horiz-adv-x="1593" 
 />
    <glyph glyph-name="obreve" unicode="&#x14f;" 
 />
    <glyph glyph-name="Ohungarumlaut" unicode="&#x150;" horiz-adv-x="1593" 
 />
    <glyph glyph-name="ohungarumlaut" unicode="&#x151;" 
 />
    <glyph glyph-name="Racute" unicode="&#x154;" horiz-adv-x="1479" 
 />
    <glyph glyph-name="racute" unicode="&#x155;" horiz-adv-x="682" 
 />
    <glyph glyph-name="Rcommaaccent" unicode="&#x156;" horiz-adv-x="1479" 
 />
    <glyph glyph-name="rcommaaccent" unicode="&#x157;" horiz-adv-x="682" 
 />
    <glyph glyph-name="Rcaron" unicode="&#x158;" horiz-adv-x="1479" 
 />
    <glyph glyph-name="rcaron" unicode="&#x159;" horiz-adv-x="682" 
 />
    <glyph glyph-name="Sacute" unicode="&#x15a;" horiz-adv-x="1366" 
 />
    <glyph glyph-name="sacute" unicode="&#x15b;" horiz-adv-x="1024" 
 />
    <glyph glyph-name="Scircumflex" unicode="&#x15c;" horiz-adv-x="1366" 
 />
    <glyph glyph-name="scircumflex" unicode="&#x15d;" horiz-adv-x="1024" 
 />
    <glyph glyph-name="Tcommaaccent" unicode="&#x162;" horiz-adv-x="1251" 
 />
    <glyph glyph-name="tcommaaccent" unicode="&#x163;" horiz-adv-x="569" 
 />
    <glyph glyph-name="Tcaron" unicode="&#x164;" horiz-adv-x="1251" 
 />
    <glyph glyph-name="tcaron" unicode="&#x165;" horiz-adv-x="768" 
 />
    <glyph glyph-name="Tbar" unicode="&#x166;" horiz-adv-x="1251" 
 />
    <glyph glyph-name="tbar" unicode="&#x167;" horiz-adv-x="569" 
 />
    <glyph glyph-name="Utilde" unicode="&#x168;" horiz-adv-x="1479" 
 />
    <glyph glyph-name="utilde" unicode="&#x169;" 
 />
    <glyph glyph-name="Umacron" unicode="&#x16a;" horiz-adv-x="1479" 
 />
    <glyph glyph-name="umacron" unicode="&#x16b;" 
 />
    <glyph glyph-name="Ubreve" unicode="&#x16c;" horiz-adv-x="1479" 
 />
    <glyph glyph-name="ubreve" unicode="&#x16d;" 
 />
    <glyph glyph-name="Uring" unicode="&#x16e;" horiz-adv-x="1479" 
 />
    <glyph glyph-name="uring" unicode="&#x16f;" 
 />
    <glyph glyph-name="Uhungarumlaut" unicode="&#x170;" horiz-adv-x="1479" 
 />
    <glyph glyph-name="uhungarumlaut" unicode="&#x171;" 
 />
    <glyph glyph-name="Uogonek" unicode="&#x172;" horiz-adv-x="1479" 
 />
    <glyph glyph-name="uogonek" unicode="&#x173;" 
 />
    <glyph glyph-name="Wcircumflex" unicode="&#x174;" horiz-adv-x="1933" 
 />
    <glyph glyph-name="wcircumflex" unicode="&#x175;" horiz-adv-x="1479" 
 />
    <glyph glyph-name="Ycircumflex" unicode="&#x176;" horiz-adv-x="1366" 
 />
    <glyph glyph-name="ycircumflex" unicode="&#x177;" horiz-adv-x="1024" 
 />
    <glyph glyph-name="Zacute" unicode="&#x179;" horiz-adv-x="1251" 
 />
    <glyph glyph-name="zacute" unicode="&#x17a;" horiz-adv-x="1024" 
 />
    <glyph glyph-name="Zdotaccent" unicode="&#x17b;" horiz-adv-x="1251" 
 />
    <glyph glyph-name="zdotaccent" unicode="&#x17c;" horiz-adv-x="1024" 
 />
    <glyph glyph-name="longs" unicode="&#x17f;" horiz-adv-x="455" 
 />
    <glyph glyph-name="Aringacute" unicode="&#x1fa;" horiz-adv-x="1366" 
 />
    <glyph glyph-name="aringacute" unicode="&#x1fb;" 
 />
    <glyph glyph-name="AEacute" unicode="&#x1fc;" horiz-adv-x="2048" 
 />
    <glyph glyph-name="aeacute" unicode="&#x1fd;" horiz-adv-x="1821" 
 />
    <glyph glyph-name="Oslashacute" unicode="&#x1fe;" horiz-adv-x="1593" 
 />
    <glyph glyph-name="oslashacute" unicode="&#x1ff;" horiz-adv-x="1251" 
 />
    <glyph glyph-name="tonos" unicode="&#x384;" horiz-adv-x="682" 
 />
    <glyph glyph-name="dieresistonos" unicode="&#x385;" horiz-adv-x="682" 
 />
    <glyph glyph-name="Alphatonos" unicode="&#x386;" horiz-adv-x="1367" 
 />
    <glyph glyph-name="anoteleia" unicode="&#x387;" horiz-adv-x="569" 
 />
    <glyph glyph-name="Epsilontonos" unicode="&#x388;" horiz-adv-x="1606" 
 />
    <glyph glyph-name="Etatonos" unicode="&#x389;" horiz-adv-x="1716" 
 />
    <glyph glyph-name="Iotatonos" unicode="&#x38a;" horiz-adv-x="786" 
 />
    <glyph glyph-name="Omicrontonos" unicode="&#x38c;" horiz-adv-x="1586" 
 />
    <glyph glyph-name="Upsilontonos" unicode="&#x38e;" horiz-adv-x="1752" 
 />
    <glyph glyph-name="Omegatonos" unicode="&#x38f;" horiz-adv-x="1541" 
 />
    <glyph glyph-name="iotadieresistonos" unicode="&#x390;" horiz-adv-x="455" 
 />
    <glyph glyph-name="Alpha" unicode="&#x391;" horiz-adv-x="1366" 
 />
    <glyph glyph-name="Beta" unicode="&#x392;" horiz-adv-x="1366" 
 />
    <glyph glyph-name="Gamma" unicode="&#x393;" horiz-adv-x="1128" 
 />
    <glyph glyph-name="uni0394" unicode="&#x394;" horiz-adv-x="1368" 
 />
    <glyph glyph-name="Epsilon" unicode="&#x395;" horiz-adv-x="1366" 
 />
    <glyph glyph-name="Zeta" unicode="&#x396;" horiz-adv-x="1251" 
 />
    <glyph glyph-name="Eta" unicode="&#x397;" horiz-adv-x="1479" 
 />
    <glyph glyph-name="Theta" unicode="&#x398;" horiz-adv-x="1593" 
 />
    <glyph glyph-name="Iota" unicode="&#x399;" horiz-adv-x="569" 
 />
    <glyph glyph-name="Kappa" unicode="&#x39a;" horiz-adv-x="1366" 
 />
    <glyph glyph-name="Lambda" unicode="&#x39b;" horiz-adv-x="1368" 
 />
    <glyph glyph-name="Mu" unicode="&#x39c;" horiz-adv-x="1706" 
 />
    <glyph glyph-name="Nu" unicode="&#x39d;" horiz-adv-x="1479" 
 />
    <glyph glyph-name="Xi" unicode="&#x39e;" horiz-adv-x="1331" 
 />
    <glyph glyph-name="Omicron" unicode="&#x39f;" horiz-adv-x="1593" 
 />
    <glyph glyph-name="Pi" unicode="&#x3a0;" horiz-adv-x="1479" 
 />
    <glyph glyph-name="Rho" unicode="&#x3a1;" horiz-adv-x="1366" 
 />
    <glyph glyph-name="Sigma" unicode="&#x3a3;" horiz-adv-x="1266" 
 />
    <glyph glyph-name="Tau" unicode="&#x3a4;" horiz-adv-x="1251" 
 />
    <glyph glyph-name="Upsilon" unicode="&#x3a5;" horiz-adv-x="1366" 
 />
    <glyph glyph-name="Phi" unicode="&#x3a6;" horiz-adv-x="1634" 
 />
    <glyph glyph-name="Chi" unicode="&#x3a7;" horiz-adv-x="1366" 
 />
    <glyph glyph-name="Psi" unicode="&#x3a8;" horiz-adv-x="1711" 
 />
    <glyph glyph-name="uni03A9" unicode="&#x3a9;" horiz-adv-x="1531" 
 />
    <glyph glyph-name="Iotadieresis" unicode="&#x3aa;" horiz-adv-x="569" 
 />
    <glyph glyph-name="Upsilondieresis" unicode="&#x3ab;" horiz-adv-x="1366" 
 />
    <glyph glyph-name="alphatonos" unicode="&#x3ac;" horiz-adv-x="1184" 
 />
    <glyph glyph-name="epsilontonos" unicode="&#x3ad;" horiz-adv-x="913" 
 />
    <glyph glyph-name="etatonos" unicode="&#x3ae;" 
 />
    <glyph glyph-name="iotatonos" unicode="&#x3af;" horiz-adv-x="455" 
 />
    <glyph glyph-name="upsilondieresistonos" unicode="&#x3b0;" horiz-adv-x="1120" 
 />
    <glyph glyph-name="alpha" unicode="&#x3b1;" horiz-adv-x="1184" 
 />
    <glyph glyph-name="beta" unicode="&#x3b2;" horiz-adv-x="1178" 
 />
    <glyph glyph-name="gamma" unicode="&#x3b3;" horiz-adv-x="1024" 
 />
    <glyph glyph-name="delta" unicode="&#x3b4;" horiz-adv-x="1140" 
 />
    <glyph glyph-name="epsilon" unicode="&#x3b5;" horiz-adv-x="913" 
 />
    <glyph glyph-name="zeta" unicode="&#x3b6;" horiz-adv-x="903" 
 />
    <glyph glyph-name="eta" unicode="&#x3b7;" 
 />
    <glyph glyph-name="theta" unicode="&#x3b8;" 
 />
    <glyph glyph-name="iota" unicode="&#x3b9;" horiz-adv-x="455" 
 />
    <glyph glyph-name="kappa" unicode="&#x3ba;" horiz-adv-x="1024" 
 />
    <glyph glyph-name="lambda" unicode="&#x3bb;" horiz-adv-x="1024" 
 />
    <glyph glyph-name="uni03BC" unicode="&#x3bc;" horiz-adv-x="1180" 
 />
    <glyph glyph-name="nu" unicode="&#x3bd;" horiz-adv-x="1024" 
 />
    <glyph glyph-name="xi" unicode="&#x3be;" horiz-adv-x="917" 
 />
    <glyph glyph-name="omicron" unicode="&#x3bf;" 
 />
    <glyph glyph-name="pi" unicode="&#x3c0;" horiz-adv-x="1413" 
 />
    <glyph glyph-name="rho" unicode="&#x3c1;" horiz-adv-x="1165" 
 />
    <glyph glyph-name="sigma1" unicode="&#x3c2;" horiz-adv-x="987" 
 />
    <glyph glyph-name="sigma" unicode="&#x3c3;" horiz-adv-x="1264" 
 />
    <glyph glyph-name="tau" unicode="&#x3c4;" horiz-adv-x="809" 
 />
    <glyph glyph-name="upsilon" unicode="&#x3c5;" horiz-adv-x="1120" 
 />
    <glyph glyph-name="phi" unicode="&#x3c6;" horiz-adv-x="1328" 
 />
    <glyph glyph-name="chi" unicode="&#x3c7;" horiz-adv-x="1075" 
 />
    <glyph glyph-name="psi" unicode="&#x3c8;" horiz-adv-x="1460" 
 />
    <glyph glyph-name="omega" unicode="&#x3c9;" horiz-adv-x="1599" 
 />
    <glyph glyph-name="iotadieresis" unicode="&#x3ca;" horiz-adv-x="455" 
 />
    <glyph glyph-name="upsilondieresis" unicode="&#x3cb;" horiz-adv-x="1120" 
 />
    <glyph glyph-name="omicrontonos" unicode="&#x3cc;" 
 />
    <glyph glyph-name="upsilontonos" unicode="&#x3cd;" horiz-adv-x="1120" 
 />
    <glyph glyph-name="omegatonos" unicode="&#x3ce;" horiz-adv-x="1599" 
 />
    <glyph glyph-name="afii10023" unicode="&#x401;" horiz-adv-x="1367" 
 />
    <glyph glyph-name="afii10051" unicode="&#x402;" horiz-adv-x="1771" 
 />
    <glyph glyph-name="afii10052" unicode="&#x403;" horiz-adv-x="1109" 
 />
    <glyph glyph-name="afii10053" unicode="&#x404;" horiz-adv-x="1472" 
 />
    <glyph glyph-name="afii10054" unicode="&#x405;" horiz-adv-x="1366" 
 />
    <glyph glyph-name="afii10055" unicode="&#x406;" horiz-adv-x="569" 
 />
    <glyph glyph-name="afii10056" unicode="&#x407;" horiz-adv-x="569" 
 />
    <glyph glyph-name="afii10057" unicode="&#x408;" horiz-adv-x="1024" 
 />
    <glyph glyph-name="afii10058" unicode="&#x409;" horiz-adv-x="2165" 
 />
    <glyph glyph-name="afii10059" unicode="&#x40a;" horiz-adv-x="2069" 
 />
    <glyph glyph-name="afii10060" unicode="&#x40b;" horiz-adv-x="1749" 
 />
    <glyph glyph-name="afii10061" unicode="&#x40c;" horiz-adv-x="1193" 
 />
    <glyph glyph-name="afii10062" unicode="&#x40e;" horiz-adv-x="1301" 
 />
    <glyph glyph-name="afii10145" unicode="&#x40f;" horiz-adv-x="1472" 
 />
    <glyph glyph-name="afii10017" unicode="&#x410;" horiz-adv-x="1366" 
 />
    <glyph glyph-name="afii10018" unicode="&#x411;" horiz-adv-x="1344" 
 />
    <glyph glyph-name="afii10019" unicode="&#x412;" horiz-adv-x="1366" 
 />
    <glyph glyph-name="afii10020" unicode="&#x413;" horiz-adv-x="1109" 
 />
    <glyph glyph-name="afii10021" unicode="&#x414;" horiz-adv-x="1387" 
 />
    <glyph glyph-name="afii10022" unicode="&#x415;" horiz-adv-x="1366" 
 />
    <glyph glyph-name="afii10024" unicode="&#x416;" horiz-adv-x="1891" 
 />
    <glyph glyph-name="afii10025" unicode="&#x417;" horiz-adv-x="1237" 
 />
    <glyph glyph-name="afii10026" unicode="&#x418;" horiz-adv-x="1472" 
 />
    <glyph glyph-name="afii10027" unicode="&#x419;" horiz-adv-x="1472" 
 />
    <glyph glyph-name="afii10028" unicode="&#x41a;" horiz-adv-x="1193" 
 />
    <glyph glyph-name="afii10029" unicode="&#x41b;" horiz-adv-x="1344" 
 />
    <glyph glyph-name="afii10030" unicode="&#x41c;" horiz-adv-x="1706" 
 />
    <glyph glyph-name="afii10031" unicode="&#x41d;" horiz-adv-x="1479" 
 />
    <glyph glyph-name="afii10032" unicode="&#x41e;" horiz-adv-x="1593" 
 />
    <glyph glyph-name="afii10033" unicode="&#x41f;" horiz-adv-x="1472" 
 />
    <glyph glyph-name="afii10034" unicode="&#x420;" horiz-adv-x="1366" 
 />
    <glyph glyph-name="afii10035" unicode="&#x421;" horiz-adv-x="1479" 
 />
    <glyph glyph-name="afii10036" unicode="&#x422;" horiz-adv-x="1251" 
 />
    <glyph glyph-name="afii10037" unicode="&#x423;" horiz-adv-x="1301" 
 />
    <glyph glyph-name="afii10038" unicode="&#x424;" horiz-adv-x="1557" 
 />
    <glyph glyph-name="afii10039" unicode="&#x425;" horiz-adv-x="1366" 
 />
    <glyph glyph-name="afii10040" unicode="&#x426;" horiz-adv-x="1515" 
 />
    <glyph glyph-name="afii10041" unicode="&#x427;" horiz-adv-x="1365" 
 />
    <glyph glyph-name="afii10042" unicode="&#x428;" horiz-adv-x="1877" 
 />
    <glyph glyph-name="afii10043" unicode="&#x429;" horiz-adv-x="1920" 
 />
    <glyph glyph-name="afii10044" unicode="&#x42a;" horiz-adv-x="1621" 
 />
    <glyph glyph-name="afii10045" unicode="&#x42b;" horiz-adv-x="1813" 
 />
    <glyph glyph-name="afii10046" unicode="&#x42c;" horiz-adv-x="1344" 
 />
    <glyph glyph-name="afii10047" unicode="&#x42d;" horiz-adv-x="1472" 
 />
    <glyph glyph-name="afii10048" unicode="&#x42e;" horiz-adv-x="2069" 
 />
    <glyph glyph-name="afii10049" unicode="&#x42f;" horiz-adv-x="1479" 
 />
    <glyph glyph-name="afii10065" unicode="&#x430;" 
 />
    <glyph glyph-name="afii10066" unicode="&#x431;" horiz-adv-x="1173" 
 />
    <glyph glyph-name="afii10067" unicode="&#x432;" horiz-adv-x="1088" 
 />
    <glyph glyph-name="afii10068" unicode="&#x433;" horiz-adv-x="747" 
 />
    <glyph glyph-name="afii10069" unicode="&#x434;" horiz-adv-x="1195" 
 />
    <glyph glyph-name="afii10070" unicode="&#x435;" 
 />
    <glyph glyph-name="afii10072" unicode="&#x436;" horiz-adv-x="1370" 
 />
    <glyph glyph-name="afii10073" unicode="&#x437;" horiz-adv-x="939" 
 />
    <glyph glyph-name="afii10074" unicode="&#x438;" horiz-adv-x="1144" 
 />
    <glyph glyph-name="afii10075" unicode="&#x439;" horiz-adv-x="1144" 
 />
    <glyph glyph-name="afii10076" unicode="&#x43a;" horiz-adv-x="896" 
 />
    <glyph glyph-name="afii10077" unicode="&#x43b;" horiz-adv-x="1195" 
 />
    <glyph glyph-name="afii10078" unicode="&#x43c;" horiz-adv-x="1408" 
 />
    <glyph glyph-name="afii10079" unicode="&#x43d;" horiz-adv-x="1131" 
 />
    <glyph glyph-name="afii10080" unicode="&#x43e;" 
 />
    <glyph glyph-name="afii10081" unicode="&#x43f;" horiz-adv-x="1109" 
 />
    <glyph glyph-name="afii10082" unicode="&#x440;" 
 />
    <glyph glyph-name="afii10083" unicode="&#x441;" horiz-adv-x="1024" 
 />
    <glyph glyph-name="afii10084" unicode="&#x442;" horiz-adv-x="938" 
 />
    <glyph glyph-name="afii10085" unicode="&#x443;" horiz-adv-x="1024" 
 />
    <glyph glyph-name="afii10086" unicode="&#x444;" horiz-adv-x="1685" 
 />
    <glyph glyph-name="afii10087" unicode="&#x445;" horiz-adv-x="1024" 
 />
    <glyph glyph-name="afii10088" unicode="&#x446;" horiz-adv-x="1173" 
 />
    <glyph glyph-name="afii10089" unicode="&#x447;" horiz-adv-x="1067" 
 />
    <glyph glyph-name="afii10090" unicode="&#x448;" horiz-adv-x="1643" 
 />
    <glyph glyph-name="afii10091" unicode="&#x449;" horiz-adv-x="1685" 
 />
    <glyph glyph-name="afii10092" unicode="&#x44a;" horiz-adv-x="1280" 
 />
    <glyph glyph-name="afii10093" unicode="&#x44b;" horiz-adv-x="1472" 
 />
    <glyph glyph-name="afii10094" unicode="&#x44c;" horiz-adv-x="1067" 
 />
    <glyph glyph-name="afii10095" unicode="&#x44d;" horiz-adv-x="1045" 
 />
    <glyph glyph-name="afii10096" unicode="&#x44e;" horiz-adv-x="1536" 
 />
    <glyph glyph-name="afii10097" unicode="&#x44f;" horiz-adv-x="1109" 
 />
    <glyph glyph-name="afii10071" unicode="&#x451;" 
 />
    <glyph glyph-name="afii10099" unicode="&#x452;" 
 />
    <glyph glyph-name="afii10100" unicode="&#x453;" horiz-adv-x="747" 
 />
    <glyph glyph-name="afii10101" unicode="&#x454;" horiz-adv-x="1045" 
 />
    <glyph glyph-name="afii10102" unicode="&#x455;" horiz-adv-x="1024" 
 />
    <glyph glyph-name="afii10103" unicode="&#x456;" horiz-adv-x="455" 
 />
    <glyph glyph-name="afii10104" unicode="&#x457;" horiz-adv-x="569" 
 />
    <glyph glyph-name="afii10105" unicode="&#x458;" horiz-adv-x="455" 
 />
    <glyph glyph-name="afii10106" unicode="&#x459;" horiz-adv-x="1856" 
 />
    <glyph glyph-name="afii10107" unicode="&#x45a;" horiz-adv-x="1664" 
 />
    <glyph glyph-name="afii10108" unicode="&#x45b;" 
 />
    <glyph glyph-name="afii10109" unicode="&#x45c;" horiz-adv-x="896" 
 />
    <glyph glyph-name="afii10110" unicode="&#x45e;" horiz-adv-x="1024" 
 />
    <glyph glyph-name="afii10193" unicode="&#x45f;" horiz-adv-x="1131" 
 />
    <glyph glyph-name="afii10050" unicode="&#x490;" horiz-adv-x="1001" 
 />
    <glyph glyph-name="afii10098" unicode="&#x491;" horiz-adv-x="842" 
 />
    <glyph glyph-name="Wgrave" unicode="&#x1e80;" horiz-adv-x="1933" 
 />
    <glyph glyph-name="wgrave" unicode="&#x1e81;" horiz-adv-x="1479" 
 />
    <glyph glyph-name="Wacute" unicode="&#x1e82;" horiz-adv-x="1933" 
 />
    <glyph glyph-name="wacute" unicode="&#x1e83;" horiz-adv-x="1479" 
 />
    <glyph glyph-name="Wdieresis" unicode="&#x1e84;" horiz-adv-x="1933" 
 />
    <glyph glyph-name="wdieresis" unicode="&#x1e85;" horiz-adv-x="1479" 
 />
    <glyph glyph-name="Ygrave" unicode="&#x1ef2;" horiz-adv-x="1366" 
 />
    <glyph glyph-name="ygrave" unicode="&#x1ef3;" horiz-adv-x="1024" 
 />
    <glyph glyph-name="afii00208" unicode="&#x2015;" horiz-adv-x="2048" 
 />
    <glyph glyph-name="underscoredbl" unicode="&#x2017;" horiz-adv-x="1131" 
 />
    <glyph glyph-name="quotereversed" unicode="&#x201b;" horiz-adv-x="455" 
 />
    <glyph glyph-name="minute" unicode="&#x2032;" horiz-adv-x="384" 
 />
    <glyph glyph-name="second" unicode="&#x2033;" horiz-adv-x="725" 
 />
    <glyph glyph-name="exclamdbl" unicode="&#x203c;" horiz-adv-x="1024" 
 />
    <glyph glyph-name="uni203E" unicode="&#x203e;" horiz-adv-x="682" 
 />
    <glyph glyph-name="uni207F" unicode="&#x207f;" horiz-adv-x="747" 
 />
    <glyph glyph-name="lira" unicode="&#x20a4;" 
 />
    <glyph glyph-name="peseta" unicode="&#x20a7;" horiz-adv-x="2240" 
 />
    <glyph glyph-name="afii61248" unicode="&#x2105;" horiz-adv-x="1813" 
 />
    <glyph glyph-name="afii61289" unicode="&#x2113;" horiz-adv-x="662" 
 />
    <glyph glyph-name="afii61352" unicode="&#x2116;" horiz-adv-x="2197" 
 />
    <glyph glyph-name="estimated" unicode="&#x212e;" horiz-adv-x="1229" 
 />
    <glyph glyph-name="oneeighth" unicode="&#x215b;" horiz-adv-x="1708" 
 />
    <glyph glyph-name="threeeighths" unicode="&#x215c;" horiz-adv-x="1708" 
 />
    <glyph glyph-name="fiveeighths" unicode="&#x215d;" horiz-adv-x="1708" 
 />
    <glyph glyph-name="seveneighths" unicode="&#x215e;" horiz-adv-x="1708" 
 />
    <glyph glyph-name="arrowleft" unicode="&#x2190;" horiz-adv-x="2048" 
 />
    <glyph glyph-name="arrowup" unicode="&#x2191;" horiz-adv-x="1024" 
 />
    <glyph glyph-name="arrowright" unicode="&#x2192;" horiz-adv-x="2048" 
 />
    <glyph glyph-name="arrowdown" unicode="&#x2193;" horiz-adv-x="1024" 
 />
    <glyph glyph-name="arrowboth" unicode="&#x2194;" horiz-adv-x="2048" 
 />
    <glyph glyph-name="arrowupdn" unicode="&#x2195;" horiz-adv-x="1024" 
 />
    <glyph glyph-name="arrowupdnbse" unicode="&#x21a8;" horiz-adv-x="1024" 
 />
    <glyph glyph-name="orthogonal" unicode="&#x221f;" horiz-adv-x="2005" 
 />
    <glyph glyph-name="intersection" unicode="&#x2229;" horiz-adv-x="1472" 
 />
    <glyph glyph-name="equivalence" unicode="&#x2261;" horiz-adv-x="1195" 
 />
    <glyph glyph-name="house" unicode="&#x2302;" horiz-adv-x="1237" 
 />
    <glyph glyph-name="revlogicalnot" unicode="&#x2310;" horiz-adv-x="1196" 
 />
    <glyph glyph-name="integraltp" unicode="&#x2320;" horiz-adv-x="1237" 
 />
    <glyph glyph-name="integralbt" unicode="&#x2321;" horiz-adv-x="1237" 
 />
    <glyph glyph-name="SF100000" unicode="&#x2500;" horiz-adv-x="1451" 
 />
    <glyph glyph-name="SF110000" unicode="&#x2502;" horiz-adv-x="1280" 
 />
    <glyph glyph-name="SF010000" unicode="&#x250c;" horiz-adv-x="1451" 
 />
    <glyph glyph-name="SF030000" unicode="&#x2510;" horiz-adv-x="1451" 
 />
    <glyph glyph-name="SF020000" unicode="&#x2514;" horiz-adv-x="1451" 
 />
    <glyph glyph-name="SF040000" unicode="&#x2518;" horiz-adv-x="1451" 
 />
    <glyph glyph-name="SF080000" unicode="&#x251c;" horiz-adv-x="1451" 
 />
    <glyph glyph-name="SF090000" unicode="&#x2524;" horiz-adv-x="1451" 
 />
    <glyph glyph-name="SF060000" unicode="&#x252c;" horiz-adv-x="1451" 
 />
    <glyph glyph-name="SF070000" unicode="&#x2534;" horiz-adv-x="1451" 
 />
    <glyph glyph-name="SF050000" unicode="&#x253c;" horiz-adv-x="1451" 
 />
    <glyph glyph-name="SF430000" unicode="&#x2550;" horiz-adv-x="1451" 
 />
    <glyph glyph-name="SF240000" unicode="&#x2551;" horiz-adv-x="1451" 
 />
    <glyph glyph-name="SF510000" unicode="&#x2552;" horiz-adv-x="1451" 
 />
    <glyph glyph-name="SF520000" unicode="&#x2553;" horiz-adv-x="1451" 
 />
    <glyph glyph-name="SF390000" unicode="&#x2554;" horiz-adv-x="1451" 
 />
    <glyph glyph-name="SF220000" unicode="&#x2555;" horiz-adv-x="1451" 
 />
    <glyph glyph-name="SF210000" unicode="&#x2556;" horiz-adv-x="1451" 
 />
    <glyph glyph-name="SF250000" unicode="&#x2557;" horiz-adv-x="1451" 
 />
    <glyph glyph-name="SF500000" unicode="&#x2558;" horiz-adv-x="1451" 
 />
    <glyph glyph-name="SF490000" unicode="&#x2559;" horiz-adv-x="1451" 
 />
    <glyph glyph-name="SF380000" unicode="&#x255a;" horiz-adv-x="1451" 
 />
    <glyph glyph-name="SF280000" unicode="&#x255b;" horiz-adv-x="1451" 
 />
    <glyph glyph-name="SF270000" unicode="&#x255c;" horiz-adv-x="1451" 
 />
    <glyph glyph-name="SF260000" unicode="&#x255d;" horiz-adv-x="1451" 
 />
    <glyph glyph-name="SF360000" unicode="&#x255e;" horiz-adv-x="1451" 
 />
    <glyph glyph-name="SF370000" unicode="&#x255f;" horiz-adv-x="1451" 
 />
    <glyph glyph-name="SF420000" unicode="&#x2560;" horiz-adv-x="1451" 
 />
    <glyph glyph-name="SF190000" unicode="&#x2561;" horiz-adv-x="1451" 
 />
    <glyph glyph-name="SF200000" unicode="&#x2562;" horiz-adv-x="1451" 
 />
    <glyph glyph-name="SF230000" unicode="&#x2563;" horiz-adv-x="1451" 
 />
    <glyph glyph-name="SF470000" unicode="&#x2564;" horiz-adv-x="1451" 
 />
    <glyph glyph-name="SF480000" unicode="&#x2565;" horiz-adv-x="1451" 
 />
    <glyph glyph-name="SF410000" unicode="&#x2566;" horiz-adv-x="1451" 
 />
    <glyph glyph-name="SF450000" unicode="&#x2567;" horiz-adv-x="1451" 
 />
    <glyph glyph-name="SF460000" unicode="&#x2568;" horiz-adv-x="1451" 
 />
    <glyph glyph-name="SF400000" unicode="&#x2569;" horiz-adv-x="1451" 
 />
    <glyph glyph-name="SF540000" unicode="&#x256a;" horiz-adv-x="1451" 
 />
    <glyph glyph-name="SF530000" unicode="&#x256b;" horiz-adv-x="1451" 
 />
    <glyph glyph-name="SF440000" unicode="&#x256c;" horiz-adv-x="1451" 
 />
    <glyph glyph-name="upblock" unicode="&#x2580;" horiz-adv-x="1451" 
 />
    <glyph glyph-name="dnblock" unicode="&#x2584;" horiz-adv-x="1451" 
 />
    <glyph glyph-name="block" unicode="&#x2588;" horiz-adv-x="1451" 
 />
    <glyph glyph-name="lfblock" unicode="&#x258c;" horiz-adv-x="1451" 
 />
    <glyph glyph-name="rtblock" unicode="&#x2590;" horiz-adv-x="1451" 
 />
    <glyph glyph-name="ltshade" unicode="&#x2591;" horiz-adv-x="1451" 
 />
    <glyph glyph-name="shade" unicode="&#x2592;" horiz-adv-x="1451" 
 />
    <glyph glyph-name="dkshade" unicode="&#x2593;" horiz-adv-x="1493" 
 />
    <glyph glyph-name="filledbox" unicode="&#x25a0;" horiz-adv-x="1237" 
 />
    <glyph glyph-name="H22073" unicode="&#x25a1;" horiz-adv-x="1237" 
 />
    <glyph glyph-name="H18543" unicode="&#x25aa;" horiz-adv-x="726" 
 />
    <glyph glyph-name="H18551" unicode="&#x25ab;" horiz-adv-x="726" 
 />
    <glyph glyph-name="filledrect" unicode="&#x25ac;" horiz-adv-x="2048" 
 />
    <glyph glyph-name="triagup" unicode="&#x25b2;" horiz-adv-x="2027" 
 />
    <glyph glyph-name="triagrt" unicode="&#x25ba;" horiz-adv-x="2027" 
 />
    <glyph glyph-name="triagdn" unicode="&#x25bc;" horiz-adv-x="2027" 
 />
    <glyph glyph-name="triaglf" unicode="&#x25c4;" horiz-adv-x="2027" 
 />
    <glyph glyph-name="circle" unicode="&#x25cb;" horiz-adv-x="1237" 
 />
    <glyph glyph-name="H18533" unicode="&#x25cf;" horiz-adv-x="1237" 
 />
    <glyph glyph-name="invbullet" unicode="&#x25d8;" horiz-adv-x="1237" 
 />
    <glyph glyph-name="invcircle" unicode="&#x25d9;" horiz-adv-x="1237" 
 />
    <glyph glyph-name="openbullet" unicode="&#x25e6;" horiz-adv-x="726" 
 />
    <glyph glyph-name="smileface" unicode="&#x263a;" horiz-adv-x="2091" 
 />
    <glyph glyph-name="invsmileface" unicode="&#x263b;" horiz-adv-x="2155" 
 />
    <glyph glyph-name="sun" unicode="&#x263c;" horiz-adv-x="1877" 
 />
    <glyph glyph-name="female" unicode="&#x2640;" horiz-adv-x="1536" 
 />
    <glyph glyph-name="male" unicode="&#x2642;" horiz-adv-x="1536" 
 />
    <glyph glyph-name="spade" unicode="&#x2660;" horiz-adv-x="1088" 
 />
    <glyph glyph-name="club" unicode="&#x2663;" horiz-adv-x="1344" 
 />
    <glyph glyph-name="heart" unicode="&#x2665;" horiz-adv-x="1216" 
 />
    <glyph glyph-name="diamond" unicode="&#x2666;" horiz-adv-x="1045" 
 />
    <glyph glyph-name="musicalnote" unicode="&#x266a;" horiz-adv-x="1024" 
 />
    <glyph glyph-name="musicalnotedbl" unicode="&#x266b;" horiz-adv-x="1536" 
 />
    <glyph glyph-name="uniF004" unicode="&#xf004;" horiz-adv-x="682" 
 />
    <glyph glyph-name="uniF005" unicode="&#xf005;" horiz-adv-x="682" 
 />
    <glyph glyph-name="colon.001" horiz-adv-x="1707" 
d="M-329 1153h14q18 0 36.5 -0.5t37.5 -5.5v-39q0 -5 -58 -5v-130h-44h-3v130q-27 0 -41.5 1.5t-16.5 3.5v39q0 6 75 6zM-185 1153h3v-70h74v70h39q6 0 6 -53l3 -36q0 -23 -2 -45.5l-4 -45.5h-42v69h-74v-69h-3h-39v6q0 3 -1 7t-2 9q0 14 -1.5 29t-1.5 32v14q0 20 2 41l4 42
h39zM86 1153q3 0 3 -17v-5q0 -8 -0.5 -14t-2.5 -6h-85v-28h49v-5q0 -7 3 -14q0 -8 -2 -16q-1 -4 -1 -6h-49v-28h85q3 0 3 -19v-3q0 -19 -3 -19h-124q-3 0 -3 22q-2 14 -2.5 29t-0.5 32v14q0 20 0.5 41t5.5 42h124zM339 1147q27 -7 27 -33t-36 -58q-18 -19 -44 -36h80v-47
h-152v47q17 11 32.5 22.5t28.5 24.5q13 11 21 18.5l12 11.5q5 8 1 12.5t-12 4.5q-25 0 -33 -17q-6 -4 -6 -14h-47q0 9 3.5 18.5t7.5 18.5q21 33 70 33q14 0 26.5 -0.5t20.5 -5.5zM378 992h16q2 0 2.5 -3.5t0.5 -7.5q0 -11 -3 -11h-16q-3 0 -3 5v11q0 6 3 6zM441 1144
q15 12 42 12q25 0 44 -12q36 -23 36 -80q0 -60 -36 -80q-11 -7 -20.5 -9t-20.5 -2q-13 0 -25 2t-20 9q-38 21 -38 80q0 56 38 80zM463 1020l10 -4t13 -2q4 0 9.5 2t9.5 4q19 11 19 44q0 30 -19 42q-4 4 -10 4.5t-12 0.5t-10.5 -0.5t-9.5 -4.5q-19 -13 -19 -42q0 -32 19 -44z
M730 1156q1 0 36 -100l2 -14l16.5 49.5l12.5 35.5l10 29h45q0 -13 -28 -103q-11 -23 -19.5 -43t-19.5 -35q-3 -2 -14 -2h-5q-17 0 -17 2q-13 26 -25 56.5t-25 68.5q-2 13 -5.5 26t-8.5 30h45zM993 1153q3 0 3 -17v-5q0 -8 -0.5 -14t-2.5 -6h-83v-28h47q3 0 3 -19
q0 -22 -3 -22h-47v-28h83q3 0 3 -19v-3q0 -19 -3 -19h-125q-1 2 -2 6t-1 16q-2 14 -2 29v32v14q0 20 1.5 41t3.5 42h125zM1010 1153h61q29 0 46.5 -7.5t25.5 -20.5v-8v-9q0 -34 -34 -55q17 -13 25 -25q5 -6 9 -20.5t11 -34.5h-50q-1 2 -2 6q-1 3 -2.5 8t-3.5 13
q-17 36 -36 36l-3 -47t-3 -16h-44v180zM1057 1122q2 -12 2.5 -24t0.5 -23q36 4 36 28q0 19 -39 19zM1229 1153h8q17 0 33 -2l33 -4v-39l-2 -2q-35 8 -56 8h-3q-19 0 -19 -11q0 -4 39 -31q21 -17 32.5 -31t11.5 -27v-3q0 -27 -47 -36q-6 -2 -12 -2h-10h-8h-33.5t-30.5 2l-3 3
v42h3q14 -2 26.5 -4t20.5 -2h6q24 0 24 11q0 7 -44 34q-39 25 -39 52v3q0 14 12.5 23t37.5 16h20zM1367 1153q2 0 6 -53v-39q0 -20 -0.5 -42.5t-5.5 -45.5h-41q-2 0 -2.5 4.5t-0.5 17.5q-2 12 -4 28t-2 33v14q0 20 2 41l4 42h44zM1470 1153h3q29 0 49.5 -11t33.5 -36
q4 -8 4.5 -20t0.5 -25q0 -63 -52 -83q-18 -5 -31 -5h-8q-40 0 -67 30q-8 13 -13.5 27t-5.5 31v6q0 66 66 83q7 2 11 2.5t9 0.5zM1431 1064v-3q0 -31 28 -39q4 -2 8 -2h8q32 0 39 27q3 3 3 17q0 17 -8 25.5t-23 13.5q-2 2 -5.5 2.5t-7.5 0.5q-15 0 -24 -6.5t-15 -18.5
q-2 -5 -2.5 -8.5t-0.5 -8.5zM1619 1156q0 -5 81 -95l14 -16v108v3h39q5 0 5 -50q2 -7 2.5 -15t0.5 -19v-19q0 -19 -2 -39.5l-4 -40.5h-41l-95 110v-108l-2 -2h-39q-1 2 -2 6t-1 16q-2 14 -2.5 29.5t-0.5 34.5v11q0 20 2 41l4 42v3h41zM1944 1153q4 0 8 -53v-39
q0 -20 -1.5 -42.5t-3.5 -45.5h-45q-1 2 -2 5t-1 17q-2 12 -2 28v33v14q0 20 0.5 41t4.5 42h42zM2033 1153h8q17 0 33 -2l33 -4v-39l-2 -2q-37 8 -56 8h-3q-19 0 -19 -11q0 -2 9.5 -10t26.5 -21q47 -33 47 -58v-3q0 -27 -47 -36q-6 -2 -12 -2h-10h-11h-31t-30 2l-3 3v42h3
q14 -2 26.5 -4t20.5 -2h5q25 0 25 11q0 7 -44 34q-39 25 -39 52v3q0 14 12.5 23t37.5 16h20zM-393 828h53q71 0 97 -55l3.5 -19.5t1.5 -16.5q0 -61 -61 -83q-24 -9 -58 -9h-36h-3v181zM-352 792q0 -17 1.5 -30.5t1.5 -24.5q0 -13 -1.5 -25.5t-1.5 -29.5h6q28 0 50 22
q11 11 11 33q0 38 -36 50q-13 5 -31 5zM-149 826h3q29 0 49.5 -11t33.5 -36q4 -9 4.5 -20.5t0.5 -24.5q0 -63 -52 -83l-16.5 -4t-14.5 -2h-8q-19 0 -36.5 8.5t-30.5 22.5q-11 13 -15 27t-4 31v6q0 65 66 86h20zM-188 737v-3q0 -31 28 -39q4 -2 8 -2h6q34 0 41 27q0 2 1.5 7
t1.5 10q0 17 -8 26t-23 16h-13q-15 0 -24 -6.5t-15 -18.5q-2 -5 -2.5 -9t-0.5 -8zM-11 826q2 0 7 -13.5l13 -36.5l25 -70l36 95q3 -3 36 -95q1 5 4 13q2 7 6 16.5t9 23.5q6 17 11 29.5l8 20.5q4 10 6 17h50q0 -7 -8 -30l-22 -65q-8 -25 -18 -46t-18 -40h-56q-1 2 -2 5
q-1 2 -2.5 6l-3.5 9l-2 -6q-1 -3 -2.5 -6t-3.5 -8h-53q-2 2 -8 13t-14 32q-11 21 -19.5 49l-19.5 62l-6 25h47zM256 828q0 -2 20 -26t60 -68l14 -16v108v2h41q0 -5 1 -12q1 -6 1.5 -15.5t0.5 -21.5q0 -7 1.5 -15t1.5 -19v-19q0 -19 -2 -39.5l-4 -41.5h-41l-94 111v-108
l-3 -3h-39q-1 2 -2 6t-1 17q-2 14 -2.5 29t-0.5 34v11q0 21 2 42l4 42v2h42zM419 828h44q3 -2 3 -63v-17q0 -13 -0.5 -27t-2.5 -28h73v-3v-45h-117h-3v181zM627 826h3q57 0 80 -47q9 -18 9 -45q0 -62 -53 -83l-16 -4t-15 -2h-8q-21 0 -38 8.5t-31 22.5q-17 26 -17 58v6
q0 65 67 86h19zM588 737v-3q0 -30 25 -39q7 -2 11 -2h6q17 0 26 6.5t15 20.5q0 2 1.5 7t1.5 10q0 17 -8 26t-22 16h-14q-15 0 -24 -6.5t-15 -18.5q-2 -5 -2.5 -9t-0.5 -8zM818 828q7 -17 16.5 -36t17.5 -44q8 -21 16 -45t14 -49l3 -9h-42q-2 0 -4.5 8.5t-9.5 22.5h-30h-31
q-8 -31 -11 -31h-38h-3l20.5 70t20.5 61q8 14 14.5 28t10.5 24h36zM785 718h31l-14 41q-5 0 -17 -41zM896 828h55q74 0 95 -55l3.5 -19.5t1.5 -16.5q0 -62 -58 -83q-26 -9 -61 -9h-36h-3v181zM938 792q2 -17 2 -30.5v-24.5v-25.5t-2 -29.5h5q31 0 53 22q11 11 11 33
q0 38 -39 50q-13 5 -30 5zM1148 828q8 -17 18 -36t18 -44q8 -21 16 -45t15 -49v-9h-42q-1 4 -3 8t-3.5 9.5t-4.5 13.5h-30h-31l-3.5 -13.5t-3.5 -9.5l-4 -8h-42q9 38 19 70t23 61l12.5 28t12.5 24h33zM1118 718h30l-16 41q-2 -4 -4 -10q-2 -5 -4.5 -13zM1281 826
q83 0 83 -42v-5q0 -29 -36 -42h-2q10 0 19.5 -4.5t16.5 -14.5q8 -10 8 -28q0 -45 -80 -45h-56q-3 0 -3 23q-2 14 -3.5 29t-1.5 34v11q0 21 1.5 42t3.5 42h50zM1273 803v-47h25q11 0 15.5 3t6.5 11v6v5q0 22 -44 22h-3zM1273 720v-50h8q19 0 28 2.5t14 9.5q0 2 1.5 5.5
t1.5 7.5q0 25 -39 25h-14zM1384 828h44q6 -4 6 -63v-17q0 -13 -0.5 -27t-2.5 -28h69l3 -3v-45h-3h-116v181v2zM1644 826q3 0 3 -17v-6q0 -19 -3 -19h-86v-28h50q0 -2 1 -5q2 -6 2 -14q0 -22 -3 -22h-50v-28h86q3 0 3 -19v-3q0 -20 -3 -20h-124q-3 0 -3 23q-2 14 -2.5 29
t-0.5 34v11q0 21 0.5 42t5.5 42h124zM1869 828l16.5 -36l19.5 -44q8 -21 14.5 -45l13.5 -49l3 -9h-42l-4 8t-3.5 9.5l-3.5 13.5h-33h-28l-5 -13.5t-4 -9.5t-2 -8h-42q8 38 18.5 70t23.5 61l11.5 28t10.5 24h36zM1836 718h30l-14 41q-1 -4 -4 -10l-5 -13zM1985 826h11
q21 0 40 -0.5t38 -5.5v-39q0 -5 -58 -5v-131h-3h-44v131q-29 0 -42.5 1.5t-15.5 3.5v39q0 6 74 6zM-352 499v-70h75v70h3h39q1 -5 2 -13q2 -14 3 -40v-36q0 -23 -1.5 -46t-3.5 -46h-39h-3v70h-75v-70h-38q-3 0 -3 23l-4 29t-2 34v11q0 21 2 42l4 42h3h38zM-144 499h11
q19 0 37.5 -0.5t37.5 -2.5v-42q0 -5 -58 -5v-131h-44v131h-3q-55 0 -55 5v39q0 6 74 6zM25 499h12q19 0 37 -0.5t37 -2.5v-42q0 -5 -58 -5v-131h-44h-3v131q-53 0 -58 5v39q0 6 77 6zM128 499h61q39 0 61 -17q6 -5 8.5 -10t2.5 -9v-9q0 -41 -47 -58q-19 -8 -36 -8
q-2 -21 -3 -38t-3 -32h-44h-3v181h3zM175 468l3 -47q33 4 33 28v2q0 7 -4.5 11t-17.5 6h-14zM275 457h19v-11v-11h-19q-3 0 -3 3v13q0 6 3 6zM275 377h19v-12v-11h-19q-3 0 -3 6v11q0 6 3 6zM458 487q-13 -31 -27 -59t-31 -57l-34 -52.5l-36 -52.5l-5 2l-8 6l-6 3l27 57.5
t31 55.5q15 27 33 54.5l37 54.5l5 -3l8 -6zM608 487q-13 -31 -27 -59l-29 -57l-34 -52.5t-38 -52.5l-5 2l-9 6l-5 3h2l26 57.5t30 55.5l33.5 54.5t35.5 54.5l6 -3l11 -6zM749 499q0 -1 1 -4q2 -6 2 -13v-6q0 -8 -2 -14q-1 -3 -1 -5h-86v-31h64v-19v-22h-64v-67h-39
q-2 0 -2.5 6t-2.5 17q0 14 -1.5 29t-1.5 34v11q0 21 2 42l4 42h2h125zM835 501l16.5 -36l19.5 -44q8 -21 14.5 -45l13.5 -49l2 -9h-41l-4 8t-3.5 9.5l-3.5 13.5h-33h-28l-5 -13.5t-4 -9.5t-2 -8h-42q8 38 18.5 70t23.5 61q6 17 11.5 29l10.5 23h36zM802 390h30l-14 42
q-1 -5 -4 -11l-5 -12.5t-7 -18.5zM990 499h9q12 0 19.5 -0.5t7.5 -2.5v-42l-3 -3h-24q-42 0 -53 -27v-14v-3q0 -26 28 -39q6 -2 11.5 -2.5t10.5 -0.5h27l3 -2v-42q0 -3 -22 -3h-14q-41 0 -69 28q-11 13 -16.5 27.5t-5.5 33.5v6q0 55 44 74q13 7 24 9.5t23 2.5zM1112 499h11
q19 0 38.5 -0.5t36.5 -2.5v-42q0 -5 -58 -5v-131h-44v131q-59 0 -59 5v39q0 6 75 6zM1287 499h3q29 0 49.5 -11t33.5 -37q8 -18 8 -44q0 -62 -55 -83l-16.5 -4t-14.5 -2h-8q-36 0 -67 31q-8 12 -13.5 26.5t-5.5 31.5v6q0 65 66 86h20zM1248 410v-3q0 -31 28 -39q4 -2 8 -2.5
t8 -0.5q32 0 39 28q2 5 2.5 8.5t0.5 8.5q0 33 -31 41h-13q-15 0 -24 -6t-15 -19q0 -4 -1.5 -8t-1.5 -8zM1392 499h61q29 0 46 -8t23 -20q1 -2 2 -2.5t1 -2.5v-3v-9q0 -17 -8 -30.5t-25 -21.5l14 -15.5t8 -12.5q6 -7 11 -21t11 -35h-50q-4 0 -8 28q-16 36 -36 36
q-2 -16 -2.5 -27.5t-1.5 -19.5q-1 -10 -1 -17h-45h-3v181h3zM1439 468q2 -13 2.5 -24.5t0.5 -22.5q17 2 26.5 8.5t9.5 19.5v2q0 17 -39 17zM1597 499q1 -5 2 -13q1 -7 1.5 -16.5t2.5 -23.5v-39q0 -21 -2 -43.5l-4 -45.5h-44q-1 1 -2 5t-1 18q-2 12 -2.5 28t-0.5 33v13
q0 21 2 42l4 42h44zM1697 499h6q29 0 48 -11t32 -37q5 -8 6.5 -19.5t1.5 -24.5q0 -63 -52 -83l-16.5 -4t-17.5 -2h-5q-40 0 -69 31q-17 23 -17 58v6q0 65 66 86h17zM1661 410v-3q0 -30 25 -39q6 -2 9 -2.5t8 -0.5q29 0 41 28v17q0 34 -27 41h-14q-32 0 -39 -25
q-2 -4 -2.5 -8t-0.5 -8zM1800 338h19v-11v-11h-19q-1 0 -2 1t-1 4v11q0 3 1 4zM1836 499h44v-111q0 -7 8 -17q5 -5 10.5 -5.5t12.5 -0.5h5q21 0 25 14q3 3 3 9v111h44h3v-117q0 -35 -33 -53q-15 -11 -42 -11h-8q-56 0 -72 45q0 6 -1.5 10.5t-1.5 8.5v117h3zM2074 499h6
q17 0 33 -0.5t33 -5.5v-39v-3q-19 5 -31.5 7t-23.5 2h-3q-19 0 -19 -9t36 -33q44 -32 44 -58v-3q0 -27 -44 -36q-8 -2 -13 -2.5t-10 -0.5h-11q-14 0 -30 0.5t-33 2.5v3v41l29 -3.5t20 -1.5h6q22 0 22 11q0 9 -41 33q-39 27 -39 53v3q0 30 50 39h19z" />
    <glyph glyph-name="colon.002" horiz-adv-x="1707" 
d="M-329 1153h14q18 0 36.5 -0.5t37.5 -5.5v-39q0 -5 -58 -5v-130h-44h-3v130q-27 0 -41.5 1.5t-16.5 3.5v39q0 6 75 6zM-185 1153h3v-70h74v70h39q6 0 6 -53l3 -36q0 -23 -2 -45.5l-4 -45.5h-42v69h-74v-69h-3h-39v6q0 3 -1 7t-2 9q0 14 -1.5 29t-1.5 32v14q0 20 2 41l4 42
h39zM86 1153q3 0 3 -17v-5q0 -8 -0.5 -14t-2.5 -6h-85v-28h49v-5q0 -7 3 -14q0 -8 -2 -16q-1 -4 -1 -6h-49v-28h85q3 0 3 -19v-3q0 -19 -3 -19h-124q-3 0 -3 22q-2 14 -2.5 29t-0.5 32v14q0 20 0.5 41t5.5 42h124zM339 1147q27 -7 27 -33t-36 -58q-18 -19 -44 -36h80v-47
h-152v47q17 11 32.5 22.5t28.5 24.5q13 11 21 18.5l12 11.5q5 8 1 12.5t-12 4.5q-25 0 -33 -17q-6 -4 -6 -14h-47q0 9 3.5 18.5t7.5 18.5q21 33 70 33q14 0 26.5 -0.5t20.5 -5.5zM378 992h16q2 0 2.5 -3.5t0.5 -7.5q0 -11 -3 -11h-16q-3 0 -3 5v11q0 6 3 6zM441 1144
q15 12 42 12q25 0 44 -12q36 -23 36 -80q0 -60 -36 -80q-11 -7 -20.5 -9t-20.5 -2q-13 0 -25 2t-20 9q-38 21 -38 80q0 56 38 80zM463 1020l10 -4t13 -2q4 0 9.5 2t9.5 4q19 11 19 44q0 30 -19 42q-4 4 -10 4.5t-12 0.5t-10.5 -0.5t-9.5 -4.5q-19 -13 -19 -42q0 -32 19 -44z
M730 1156q1 0 36 -100l2 -14l16.5 49.5l12.5 35.5l10 29h45q0 -13 -28 -103q-11 -23 -19.5 -43t-19.5 -35q-3 -2 -14 -2h-5q-17 0 -17 2q-13 26 -25 56.5t-25 68.5q-2 13 -5.5 26t-8.5 30h45zM993 1153q3 0 3 -17v-5q0 -8 -0.5 -14t-2.5 -6h-83v-28h47q3 0 3 -19
q0 -22 -3 -22h-47v-28h83q3 0 3 -19v-3q0 -19 -3 -19h-125q-1 2 -2 6t-1 16q-2 14 -2 29v32v14q0 20 1.5 41t3.5 42h125zM1010 1153h61q29 0 46.5 -7.5t25.5 -20.5v-8v-9q0 -34 -34 -55q17 -13 25 -25q5 -6 9 -20.5t11 -34.5h-50q-1 2 -2 6q-1 3 -2.5 8t-3.5 13
q-17 36 -36 36l-3 -47t-3 -16h-44v180zM1057 1122q2 -12 2.5 -24t0.5 -23q36 4 36 28q0 19 -39 19zM1229 1153h8q17 0 33 -2l33 -4v-39l-2 -2q-35 8 -56 8h-3q-19 0 -19 -11q0 -4 39 -31q21 -17 32.5 -31t11.5 -27v-3q0 -27 -47 -36q-6 -2 -12 -2h-10h-8h-33.5t-30.5 2l-3 3
v42h3q14 -2 26.5 -4t20.5 -2h6q24 0 24 11q0 7 -44 34q-39 25 -39 52v3q0 14 12.5 23t37.5 16h20zM1367 1153q2 0 6 -53v-39q0 -20 -0.5 -42.5t-5.5 -45.5h-41q-2 0 -2.5 4.5t-0.5 17.5q-2 12 -4 28t-2 33v14q0 20 2 41l4 42h44zM1470 1153h3q29 0 49.5 -11t33.5 -36
q4 -8 4.5 -20t0.5 -25q0 -63 -52 -83q-18 -5 -31 -5h-8q-40 0 -67 30q-8 13 -13.5 27t-5.5 31v6q0 66 66 83q7 2 11 2.5t9 0.5zM1431 1064v-3q0 -31 28 -39q4 -2 8 -2h8q32 0 39 27q3 3 3 17q0 17 -8 25.5t-23 13.5q-2 2 -5.5 2.5t-7.5 0.5q-15 0 -24 -6.5t-15 -18.5
q-2 -5 -2.5 -8.5t-0.5 -8.5zM1619 1156q0 -5 81 -95l14 -16v108v3h39q5 0 5 -50q2 -7 2.5 -15t0.5 -19v-19q0 -19 -2 -39.5l-4 -40.5h-41l-95 110v-108l-2 -2h-39q-1 2 -2 6t-1 16q-2 14 -2.5 29.5t-0.5 34.5v11q0 20 2 41l4 42v3h41zM1944 1153q4 0 8 -53v-39
q0 -20 -1.5 -42.5t-3.5 -45.5h-45q-1 2 -2 5t-1 17q-2 12 -2 28v33v14q0 20 0.5 41t4.5 42h42zM2033 1153h8q17 0 33 -2l33 -4v-39l-2 -2q-37 8 -56 8h-3q-19 0 -19 -11q0 -2 9.5 -10t26.5 -21q47 -33 47 -58v-3q0 -27 -47 -36q-6 -2 -12 -2h-10h-11h-31t-30 2l-3 3v42h3
q14 -2 26.5 -4t20.5 -2h5q25 0 25 11q0 7 -44 34q-39 25 -39 52v3q0 14 12.5 23t37.5 16h20zM-393 828h53q71 0 97 -55l3.5 -19.5t1.5 -16.5q0 -61 -61 -83q-24 -9 -58 -9h-36h-3v181zM-352 792q0 -17 1.5 -30.5t1.5 -24.5q0 -13 -1.5 -25.5t-1.5 -29.5h6q28 0 50 22
q11 11 11 33q0 38 -36 50q-13 5 -31 5zM-149 826h3q29 0 49.5 -11t33.5 -36q4 -9 4.5 -20.5t0.5 -24.5q0 -63 -52 -83l-16.5 -4t-14.5 -2h-8q-19 0 -36.5 8.5t-30.5 22.5q-11 13 -15 27t-4 31v6q0 65 66 86h20zM-188 737v-3q0 -31 28 -39q4 -2 8 -2h6q34 0 41 27q0 2 1.5 7
t1.5 10q0 17 -8 26t-23 16h-13q-15 0 -24 -6.5t-15 -18.5q-2 -5 -2.5 -9t-0.5 -8zM-11 826q2 0 7 -13.5l13 -36.5l25 -70l36 95q3 -3 36 -95q1 5 4 13q2 7 6 16.5t9 23.5q6 17 11 29.5l8 20.5q4 10 6 17h50q0 -7 -8 -30l-22 -65q-8 -25 -18 -46t-18 -40h-56q-1 2 -2 5
q-1 2 -2.5 6l-3.5 9l-2 -6q-1 -3 -2.5 -6t-3.5 -8h-53q-2 2 -8 13t-14 32q-11 21 -19.5 49l-19.5 62l-6 25h47zM256 828q0 -2 20 -26t60 -68l14 -16v108v2h41q0 -5 1 -12q1 -6 1.5 -15.5t0.5 -21.5q0 -7 1.5 -15t1.5 -19v-19q0 -19 -2 -39.5l-4 -41.5h-41l-94 111v-108
l-3 -3h-39q-1 2 -2 6t-1 17q-2 14 -2.5 29t-0.5 34v11q0 21 2 42l4 42v2h42zM419 828h44q3 -2 3 -63v-17q0 -13 -0.5 -27t-2.5 -28h73v-3v-45h-117h-3v181zM627 826h3q57 0 80 -47q9 -18 9 -45q0 -62 -53 -83l-16 -4t-15 -2h-8q-21 0 -38 8.5t-31 22.5q-17 26 -17 58v6
q0 65 67 86h19zM588 737v-3q0 -30 25 -39q7 -2 11 -2h6q17 0 26 6.5t15 20.5q0 2 1.5 7t1.5 10q0 17 -8 26t-22 16h-14q-15 0 -24 -6.5t-15 -18.5q-2 -5 -2.5 -9t-0.5 -8zM818 828q7 -17 16.5 -36t17.5 -44q8 -21 16 -45t14 -49l3 -9h-42q-2 0 -4.5 8.5t-9.5 22.5h-30h-31
q-8 -31 -11 -31h-38h-3l20.5 70t20.5 61q8 14 14.5 28t10.5 24h36zM785 718h31l-14 41q-5 0 -17 -41zM896 828h55q74 0 95 -55l3.5 -19.5t1.5 -16.5q0 -62 -58 -83q-26 -9 -61 -9h-36h-3v181zM938 792q2 -17 2 -30.5v-24.5v-25.5t-2 -29.5h5q31 0 53 22q11 11 11 33
q0 38 -39 50q-13 5 -30 5zM1148 828q8 -17 18 -36t18 -44q8 -21 16 -45t15 -49v-9h-42q-1 4 -3 8t-3.5 9.5t-4.5 13.5h-30h-31l-3.5 -13.5t-3.5 -9.5l-4 -8h-42q9 38 19 70t23 61l12.5 28t12.5 24h33zM1118 718h30l-16 41q-2 -4 -4 -10q-2 -5 -4.5 -13zM1281 826
q83 0 83 -42v-5q0 -29 -36 -42h-2q10 0 19.5 -4.5t16.5 -14.5q8 -10 8 -28q0 -45 -80 -45h-56q-3 0 -3 23q-2 14 -3.5 29t-1.5 34v11q0 21 1.5 42t3.5 42h50zM1273 803v-47h25q11 0 15.5 3t6.5 11v6v5q0 22 -44 22h-3zM1273 720v-50h8q19 0 28 2.5t14 9.5q0 2 1.5 5.5
t1.5 7.5q0 25 -39 25h-14zM1384 828h44q6 -4 6 -63v-17q0 -13 -0.5 -27t-2.5 -28h69l3 -3v-45h-3h-116v181v2zM1644 826q3 0 3 -17v-6q0 -19 -3 -19h-86v-28h50q0 -2 1 -5q2 -6 2 -14q0 -22 -3 -22h-50v-28h86q3 0 3 -19v-3q0 -20 -3 -20h-124q-3 0 -3 23q-2 14 -2.5 29
t-0.5 34v11q0 21 0.5 42t5.5 42h124zM1869 828l16.5 -36l19.5 -44q8 -21 14.5 -45l13.5 -49l3 -9h-42l-4 8t-3.5 9.5l-3.5 13.5h-33h-28l-5 -13.5t-4 -9.5t-2 -8h-42q8 38 18.5 70t23.5 61l11.5 28t10.5 24h36zM1836 718h30l-14 41q-1 -4 -4 -10l-5 -13zM1985 826h11
q21 0 40 -0.5t38 -5.5v-39q0 -5 -58 -5v-131h-3h-44v131q-29 0 -42.5 1.5t-15.5 3.5v39q0 6 74 6zM-352 499v-70h75v70h3h39q1 -5 2 -13q2 -14 3 -40v-36q0 -23 -1.5 -46t-3.5 -46h-39h-3v70h-75v-70h-38q-3 0 -3 23l-4 29t-2 34v11q0 21 2 42l4 42h3h38zM-144 499h11
q19 0 37.5 -0.5t37.5 -2.5v-42q0 -5 -58 -5v-131h-44v131h-3q-55 0 -55 5v39q0 6 74 6zM25 499h12q19 0 37 -0.5t37 -2.5v-42q0 -5 -58 -5v-131h-44h-3v131q-53 0 -58 5v39q0 6 77 6zM128 499h61q39 0 61 -17q6 -5 8.5 -10t2.5 -9v-9q0 -41 -47 -58q-19 -8 -36 -8
q-2 -21 -3 -38t-3 -32h-44h-3v181h3zM175 468l3 -47q33 4 33 28v2q0 7 -4.5 11t-17.5 6h-14zM275 457h19v-11v-11h-19q-3 0 -3 3v13q0 6 3 6zM275 377h19v-12v-11h-19q-3 0 -3 6v11q0 6 3 6zM458 487q-13 -31 -27 -59t-31 -57l-34 -52.5l-36 -52.5l-5 2l-8 6l-6 3l27 57.5
t31 55.5q15 27 33 54.5l37 54.5l5 -3l8 -6zM608 487q-13 -31 -27 -59l-29 -57l-34 -52.5t-38 -52.5l-5 2l-9 6l-5 3h2l26 57.5t30 55.5l33.5 54.5t35.5 54.5l6 -3l11 -6zM749 499q0 -1 1 -4q2 -6 2 -13v-6q0 -8 -2 -14q-1 -3 -1 -5h-86v-31h64v-19v-22h-64v-67h-39
q-2 0 -2.5 6t-2.5 17q0 14 -1.5 29t-1.5 34v11q0 21 2 42l4 42h2h125zM835 501l16.5 -36l19.5 -44q8 -21 14.5 -45l13.5 -49l2 -9h-41l-4 8t-3.5 9.5l-3.5 13.5h-33h-28l-5 -13.5t-4 -9.5t-2 -8h-42q8 38 18.5 70t23.5 61q6 17 11.5 29l10.5 23h36zM802 390h30l-14 42
q-1 -5 -4 -11l-5 -12.5t-7 -18.5zM990 499h9q12 0 19.5 -0.5t7.5 -2.5v-42l-3 -3h-24q-42 0 -53 -27v-14v-3q0 -26 28 -39q6 -2 11.5 -2.5t10.5 -0.5h27l3 -2v-42q0 -3 -22 -3h-14q-41 0 -69 28q-11 13 -16.5 27.5t-5.5 33.5v6q0 55 44 74q13 7 24 9.5t23 2.5zM1112 499h11
q19 0 38.5 -0.5t36.5 -2.5v-42q0 -5 -58 -5v-131h-44v131q-59 0 -59 5v39q0 6 75 6zM1287 499h3q29 0 49.5 -11t33.5 -37q8 -18 8 -44q0 -62 -55 -83l-16.5 -4t-14.5 -2h-8q-36 0 -67 31q-8 12 -13.5 26.5t-5.5 31.5v6q0 65 66 86h20zM1248 410v-3q0 -31 28 -39q4 -2 8 -2.5
t8 -0.5q32 0 39 28q2 5 2.5 8.5t0.5 8.5q0 33 -31 41h-13q-15 0 -24 -6t-15 -19q0 -4 -1.5 -8t-1.5 -8zM1392 499h61q29 0 46 -8t23 -20q1 -2 2 -2.5t1 -2.5v-3v-9q0 -17 -8 -30.5t-25 -21.5l14 -15.5t8 -12.5q6 -7 11 -21t11 -35h-50q-4 0 -8 28q-16 36 -36 36
q-2 -16 -2.5 -27.5t-1.5 -19.5q-1 -10 -1 -17h-45h-3v181h3zM1439 468q2 -13 2.5 -24.5t0.5 -22.5q17 2 26.5 8.5t9.5 19.5v2q0 17 -39 17zM1597 499q1 -5 2 -13q1 -7 1.5 -16.5t2.5 -23.5v-39q0 -21 -2 -43.5l-4 -45.5h-44q-1 1 -2 5t-1 18q-2 12 -2.5 28t-0.5 33v13
q0 21 2 42l4 42h44zM1697 499h6q29 0 48 -11t32 -37q5 -8 6.5 -19.5t1.5 -24.5q0 -63 -52 -83l-16.5 -4t-17.5 -2h-5q-40 0 -69 31q-17 23 -17 58v6q0 65 66 86h17zM1661 410v-3q0 -30 25 -39q6 -2 9 -2.5t8 -0.5q29 0 41 28v17q0 34 -27 41h-14q-32 0 -39 -25
q-2 -4 -2.5 -8t-0.5 -8zM1800 338h19v-11v-11h-19q-1 0 -2 1t-1 4v11q0 3 1 4zM1836 499h44v-111q0 -7 8 -17q5 -5 10.5 -5.5t12.5 -0.5h5q21 0 25 14q3 3 3 9v111h44h3v-117q0 -35 -33 -53q-15 -11 -42 -11h-8q-56 0 -72 45q0 6 -1.5 10.5t-1.5 8.5v117h3zM2074 499h6
q17 0 33 -0.5t33 -5.5v-39v-3q-19 5 -31.5 7t-23.5 2h-3q-19 0 -19 -9t36 -33q44 -32 44 -58v-3q0 -27 -44 -36q-8 -2 -13 -2.5t-10 -0.5h-11q-14 0 -30 0.5t-33 2.5v3v41l29 -3.5t20 -1.5h6q22 0 22 11q0 9 -41 33q-39 27 -39 53v3q0 30 50 39h19z" />
    <glyph glyph-name="semicolon.002" horiz-adv-x="2599" 
d="M61 1153h14q18 0 36.5 -0.5t37.5 -5.5v-39q0 -5 -58 -5v-130h-44l-3 130q-27 0 -41.5 1.5t-16.5 3.5v39q0 6 75 6zM205 1153l3 -70h74v70h39q6 0 6 -53l3 -36q0 -23 -2 -45.5l-4 -45.5h-42v69h-74v-69h-42v6q0 3 -1 7t-2 9q0 14 -1.5 29t-1.5 32v14q0 20 2 41l4 42h39z
M476 1153q3 0 3 -17v-5q0 -8 -0.5 -14t-2.5 -6h-85v-28h49v-5q0 -7 3 -14q0 -8 -2 -16q-1 -4 -1 -6h-49v-28h85q3 0 3 -19q0 -13 -0.5 -17.5t-2.5 -4.5h-124q-3 0 -3 22q-2 14 -2.5 29t-0.5 32v14q0 20 0.5 41t5.5 42h124zM729 1147q27 -7 27 -33t-36 -58q-18 -19 -44 -36
h80v-47h-152v47q17 11 32.5 22.5t28.5 24.5q13 11 21 18.5l12 11.5q2 3 2 8q0 9 -13 9q-25 0 -33 -17q-6 -4 -6 -14h-47q0 8 3 17t7 17q0 1 0.5 1.5t0.5 1.5q21 33 70 33q14 0 26.5 -0.5t20.5 -5.5zM768 992h16q2 0 2.5 -3.5t0.5 -7.5q0 -11 -3 -11h-16q-3 0 -3 5v11
q0 6 3 6zM831 1144q15 12 42 12q25 0 44 -12q36 -23 36 -80q0 -60 -36 -80q-11 -7 -20.5 -9t-20.5 -2q-13 0 -25 2t-20 9q-38 21 -38 80q0 56 38 80zM853 1020l10 -4t13 -2q4 0 9.5 2t9.5 4q19 11 19 44q0 30 -19 42q-4 4 -10 4.5t-12 0.5t-10.5 -0.5t-9.5 -4.5
q-19 -13 -19 -42q0 -32 19 -44zM1120 1156q1 0 36 -100l2 -14l16.5 49.5l12.5 35.5l10 29h45q0 -13 -28 -103q-11 -23 -19.5 -43t-19.5 -35q-3 -2 -14 -2h-5q-17 0 -17 2q-13 26 -25 56.5t-25 68.5q-2 13 -5.5 26t-8.5 30h45zM1383 1153q3 0 3 -17v-5q0 -8 -0.5 -14t-2.5 -6
h-83v-28h47q3 0 3 -19q0 -22 -3 -22h-47v-28h83q3 0 3 -19q0 -13 -0.5 -17.5t-2.5 -4.5h-125q-1 2 -2 6t-1 16q-2 14 -2 29v32v14q0 20 1.5 41t3.5 42h125zM1400 1153h61q29 0 46.5 -7.5t25.5 -20.5v-8v-9q0 -34 -34 -55q17 -13 25 -25q5 -6 9 -20.5t11 -34.5h-50q-1 2 -2 6
q-1 3 -2.5 8t-3.5 13q-17 36 -36 36l-3 -47t-3 -16h-44v180zM1447 1122q2 -12 2.5 -24t0.5 -23q36 4 36 28q0 19 -39 19zM1619 1153h8q17 0 33 -2l33 -4v-39q-18 2 -32.5 4t-25.5 2q-22 0 -22 -11q0 -4 39 -31q21 -17 32.5 -31t11.5 -27q0 -17 -12 -25.5t-35 -13.5
q-6 -2 -12 -2h-10h-8h-33.5t-30.5 2l-3 3v42q17 -2 29.5 -4t20.5 -2h6q24 0 24 11q0 7 -44 34q-39 25 -39 52q0 17 12.5 26t37.5 16h20zM1757 1153q2 0 6 -53v-39q0 -20 -0.5 -42.5t-5.5 -45.5h-41q-2 0 -2.5 4.5t-0.5 17.5q-2 12 -4 28t-2 33v14q0 20 2 41l4 42h44z
M1860 1153q31 0 52 -11t34 -36q4 -8 4.5 -20t0.5 -25q0 -63 -52 -83q-18 -5 -31 -5h-8q-40 0 -67 30q-8 13 -13.5 27t-5.5 31v6q0 66 66 83q7 2 11 2.5t9 0.5zM1821 1064q0 -34 28 -42q4 -2 8 -2h8q32 0 39 27q3 3 3 17q0 17 -8 25.5t-23 13.5q-2 2 -5.5 2.5t-7.5 0.5
q-15 0 -24 -6.5t-15 -18.5q-2 -5 -2.5 -8.5t-0.5 -8.5zM2009 1156q0 -5 81 -95l14 -16v108l39 3q5 0 5 -50q2 -7 2.5 -15t0.5 -19v-19q0 -19 -2 -39.5l-4 -40.5h-41l-95 110v-108l-41 -2q-1 2 -2 6t-1 16q-2 14 -2.5 29.5t-0.5 34.5v11q0 20 2 41l4 42zM2334 1153q4 0 8 -53
v-39q0 -20 -1.5 -42.5t-3.5 -45.5h-45q-1 2 -2 5t-1 17q-2 12 -2 28v33v14q0 20 0.5 41t4.5 42h42zM2423 1153h8q17 0 33 -2l33 -4v-39q-19 2 -33 4t-25 2q-22 0 -22 -11q0 -2 9.5 -10t26.5 -21q47 -33 47 -58q0 -17 -12 -25.5t-35 -13.5q-6 -2 -12 -2h-10h-11h-31t-30 2
l-3 3v42q17 -2 29.5 -4t20.5 -2h5q25 0 25 11q0 7 -44 34q-39 25 -39 52q0 17 12.5 26t37.5 16h20zM-3 828h53q71 0 97 -55l3.5 -19.5t1.5 -16.5q0 -61 -61 -83q-24 -9 -58 -9h-36l-3 181zM38 792q0 -17 1.5 -30.5t1.5 -24.5q0 -13 -1.5 -25.5t-1.5 -29.5h6q28 0 50 22
q11 11 11 33q0 38 -36 50q-13 5 -31 5zM241 826q31 0 52 -11t34 -36q4 -9 4.5 -20.5t0.5 -24.5q0 -63 -52 -83l-16.5 -4t-14.5 -2h-8q-19 0 -36.5 8.5t-30.5 22.5q-11 13 -15 27t-4 31v6q0 65 66 86h20zM202 737q0 -34 28 -42q4 -2 8 -2h6q34 0 41 27q0 2 1.5 7t1.5 10
q0 17 -8 26t-23 16h-13q-15 0 -24 -6.5t-15 -18.5q-2 -5 -2.5 -9t-0.5 -8zM379 826q2 0 7 -13.5l13 -36.5l25 -70l36 95q2 -2 9.5 -22.5l21.5 -58.5q2 -4 2.5 -7t2.5 -7q1 5 4 13q2 7 6 16.5t9 23.5q6 17 11 29.5l8 20.5q4 10 6 17h50q0 -7 -8 -30l-22 -65q-8 -25 -18 -46
t-18 -40h-56q-1 2 -2 5q-1 2 -2.5 6l-3.5 9l-2 -6q-1 -3 -2.5 -6t-3.5 -8h-53q-2 2 -8 13t-14 32q-11 21 -19.5 49l-19.5 62l-6 25h47zM646 828q0 -2 20 -26t60 -68l14 -16v108l41 2q0 -5 1 -12q1 -6 1.5 -15.5t0.5 -21.5q0 -7 1.5 -15t1.5 -19v-19q0 -19 -2 -39.5l-4 -41.5
h-41l-94 111v-108l-3 -3h-39q-1 2 -2 6t-1 17q-2 14 -2.5 29t-0.5 34v11q0 21 2 42l4 42zM809 828h44q3 -2 3 -63v-17q0 -13 -0.5 -27t-2.5 -28h73v-48h-117l-3 181zM1017 826q32 0 51.5 -11t31.5 -36q9 -18 9 -45q0 -62 -53 -83l-16 -4t-15 -2h-8q-21 0 -38 8.5t-31 22.5
q-17 26 -17 58v6q0 65 67 86h19zM978 737q0 -33 25 -42q7 -2 11 -2h6q17 0 26 6.5t15 20.5q0 2 1.5 7t1.5 10q0 17 -8 26t-22 16h-14q-15 0 -24 -6.5t-15 -18.5q-2 -5 -2.5 -9t-0.5 -8zM1208 828q7 -17 16.5 -36t17.5 -44q8 -21 16 -45t14 -49l3 -9h-42q-2 0 -4.5 8.5
t-9.5 22.5h-30h-31q0 -1 -0.5 -1.5t-0.5 -1.5q-8 -28 -10 -28h-38q8 38 17.5 70t20.5 61q8 14 14.5 28t10.5 24h36zM1175 718h31l-14 41q-5 0 -17 -41zM1286 828h55q74 0 95 -55l3.5 -19.5t1.5 -16.5q0 -62 -58 -83q-26 -9 -61 -9h-36l-3 181zM1328 792q2 -17 2 -30.5v-24.5
v-25.5t-2 -29.5h5q31 0 53 22q11 11 11 33q0 38 -39 50q-13 5 -30 5zM1538 828q8 -17 18 -36t18 -44q8 -21 16 -45t15 -49v-9h-42q-1 4 -3 8t-3.5 9.5t-4.5 13.5h-30h-31l-3.5 -13.5t-3.5 -9.5l-4 -8h-42q9 38 19 70t23 61l12.5 28t12.5 24h33zM1508 718h30l-16 41
q-2 -4 -4 -10q-2 -5 -4.5 -13zM1671 826q83 0 83 -42v-5q0 -29 -36 -42q8 0 17.5 -4.5t16.5 -14.5q8 -10 8 -28q0 -45 -80 -45h-56q-3 0 -3 23q-2 14 -3.5 29t-1.5 34v11q0 21 1.5 42t3.5 42h50zM1663 803v-47h25q11 0 15.5 3t6.5 11v11q0 22 -47 22zM1663 720v-50h8
q19 0 28 2.5t14 9.5q0 2 1.5 5.5t1.5 7.5q0 25 -39 25h-14zM1774 828h44q6 -4 6 -63v-17q0 -13 -0.5 -27t-2.5 -28h69l3 -3v-45h-119v183zM2034 826q3 0 3 -17v-6q0 -19 -3 -19h-86v-28h50q0 -2 1 -5q2 -6 2 -14q0 -22 -3 -22h-50v-28h86q3 0 3 -19v-3q0 -20 -3 -20h-124
q-3 0 -3 23q-2 14 -2.5 29t-0.5 34v11q0 21 0.5 42t5.5 42h124zM2259 828l16.5 -36l19.5 -44q8 -21 14.5 -45l13.5 -49l3 -9h-42l-4 8t-3.5 9.5l-3.5 13.5h-33h-28l-5 -13.5t-4 -9.5t-2 -8h-42q8 38 18.5 70t23.5 61l11.5 28t10.5 24h36zM2226 718h30l-14 41q-1 -4 -4 -10
l-5 -13zM2375 826h11q21 0 40 -0.5t38 -5.5v-39q0 -5 -58 -5v-131h-47v131q-29 0 -42.5 1.5t-15.5 3.5v39q0 6 74 6zM38 499v-70h75v70h42q1 -5 2 -13q2 -14 3 -40v-36q0 -23 -1.5 -46t-3.5 -46h-39l-3 70h-75v-70h-38q-3 0 -3 23l-4 29t-2 34v11q0 21 2 42l4 42h41z
M246 499h11q19 0 37.5 -0.5t37.5 -2.5v-42q0 -5 -58 -5v-131h-44v131q-58 0 -58 5v39q0 6 74 6zM415 499h12q19 0 37 -0.5t37 -2.5v-42q0 -5 -58 -5v-131h-44l-3 131q-53 0 -58 5v39q0 6 77 6zM518 499h61q39 0 61 -17q6 -5 8.5 -10t2.5 -9v-9q0 -41 -47 -58q-19 -8 -36 -8
q-2 -21 -3 -38t-3 -32h-44v181zM565 468l3 -47q33 4 33 28q0 8 -4.5 12.5t-17.5 6.5h-14zM665 457h19v-11v-11h-19q-3 0 -3 3v13q0 6 3 6zM665 377h19v-12v-11h-19q-3 0 -3 6v11q0 6 3 6zM848 487q-13 -31 -27.5 -59t-31.5 -57q-16 -27 -33 -52.5l-36 -52.5l-5 2l-8 6l-6 3
q26 60 57 113q16 27 34 54.5l37 54.5l13 -9zM998 487q-13 -31 -27 -59l-29 -57l-34 -52.5t-38 -52.5l-5 2l-14 9l27.5 57.5t30.5 55.5l33.5 54.5t35.5 54.5l17 -9zM1139 499q0 -1 1 -4q2 -6 2 -13v-6q0 -8 -2 -14q-1 -3 -1 -5h-86v-31h64v-19v-22h-64v-67h-39q-2 0 -2.5 6
t-2.5 17q0 14 -1.5 29t-1.5 34v11q0 21 2 42l4 42h127zM1225 501l16.5 -36l19.5 -44q8 -21 14.5 -45l13.5 -49l2 -9h-41l-4 8t-3.5 9.5l-3.5 13.5h-33h-28l-5 -13.5t-4 -9.5t-2 -8h-42q8 38 18.5 70t23.5 61q6 17 11.5 29l10.5 23h36zM1192 390h30l-14 42q-1 -5 -4 -11
l-5 -12.5t-7 -18.5zM1380 499h9q12 0 19.5 -0.5t7.5 -2.5v-42l-3 -3h-24q-42 0 -53 -27v-14q0 -17 6.5 -26t21.5 -16q6 -2 11.5 -2.5t10.5 -0.5h27l3 -2v-42q0 -3 -22 -3h-14q-41 0 -69 28q-11 13 -16.5 27.5t-5.5 33.5v6q0 55 44 74q13 7 24 9.5t23 2.5zM1502 499h11
q19 0 38.5 -0.5t36.5 -2.5v-42q0 -5 -58 -5v-131h-44v131q-59 0 -59 5v39q0 6 75 6zM1677 499q31 0 52 -11t34 -37q8 -18 8 -44q0 -62 -55 -83l-16.5 -4t-14.5 -2h-8q-36 0 -67 31q-8 12 -13.5 26.5t-5.5 31.5v6q0 65 66 86h20zM1638 410q0 -34 28 -42q4 -2 8 -2.5t8 -0.5
q32 0 39 28q2 5 2.5 8.5t0.5 8.5q0 33 -31 41h-13q-15 0 -24 -6t-15 -19zM1782 499h61q29 0 46 -8t23 -20q1 -2 2 -2.5t1 -2.5v-3v-9q0 -17 -8 -30.5t-25 -21.5l14 -15.5t8 -12.5q6 -7 11 -21t11 -35h-50q-4 0 -8 28q-16 36 -36 36q-2 -16 -2.5 -27.5t-1.5 -19.5
q-1 -10 -1 -17h-45v181zM1829 468q2 -13 2.5 -24.5t0.5 -22.5q17 2 26.5 8.5t9.5 19.5q0 19 -39 19zM1987 499q1 -5 2 -13q1 -7 1.5 -16.5t2.5 -23.5v-39q0 -20 -2 -41.5l-4 -44.5q0 -1 -5.5 -1.5t-38.5 -1.5q-1 1 -2 5t-1 18q-2 12 -2.5 28t-0.5 33v13q0 21 2 42l4 42h44z
M2087 499h6q29 0 48 -11t32 -37q5 -8 6.5 -19.5t1.5 -24.5q0 -63 -52 -83l-16.5 -4t-17.5 -2h-5q-40 0 -69 31q-17 23 -17 58v6q0 65 66 86h17zM2051 410q0 -33 25 -42q6 -2 9 -2.5t8 -0.5q29 0 41 28v17q0 34 -27 41h-14q-32 0 -39 -25q-2 -4 -2.5 -8t-0.5 -8zM2190 338h19
v-11v-11h-19q-1 0 -2 1t-1 4v11q0 3 1 4zM2226 499h44v-111q0 -7 8 -17q5 -5 10.5 -5.5t12.5 -0.5h5q21 0 25 14q3 3 3 9v111h44l3 -117q0 -35 -33 -53q-15 -11 -42 -11h-8q-56 0 -72 45q0 6 -1.5 10.5t-1.5 8.5zM2464 499h6q17 0 33 -0.5t33 -5.5v-39v-3q-19 5 -31.5 7
t-23.5 2q-13 0 -17.5 -2t-4.5 -7q0 -9 36 -33q44 -32 44 -58q0 -17 -10.5 -25.5t-33.5 -13.5q-8 -2 -13 -2.5t-10 -0.5h-11q-14 0 -30 0.5t-33 2.5v44l29 -3.5t20 -1.5h6q22 0 22 11q0 9 -41 33q-39 27 -39 53q0 33 50 42h19z" />
    <glyph glyph-name="colon" unicode=":" horiz-adv-x="2599" 
d="M61 1153h14q18 0 36.5 -0.5t37.5 -5.5v-39q0 -5 -58 -5v-130h-44h-3v130q-27 0 -41.5 1.5t-16.5 3.5v39q0 6 75 6zM205 1153h3v-70h74v70h39q6 0 6 -53l3 -36q0 -23 -2 -45.5l-4 -45.5h-42v69h-74v-69h-3h-39v6q0 3 -1 7t-2 9q0 14 -1.5 29t-1.5 32v14q0 20 2 41l4 42h39
zM476 1153q3 0 3 -17v-5q0 -8 -0.5 -14t-2.5 -6h-85v-28h49v-5q0 -7 3 -14q0 -8 -2 -16q-1 -4 -1 -6h-49v-28h85q3 0 3 -19v-3q0 -19 -3 -19h-124q-3 0 -3 22q-2 14 -2.5 29t-0.5 32v14q0 20 0.5 41t5.5 42h124zM729 1147q27 -7 27 -33t-36 -58q-18 -19 -44 -36h80v-47h-152
v47q17 11 32.5 22.5t28.5 24.5q13 11 21 18.5l12 11.5q5 8 1 12.5t-12 4.5q-25 0 -33 -17q-6 -4 -6 -14h-47q0 9 3.5 18.5t7.5 18.5q21 33 70 33q14 0 26.5 -0.5t20.5 -5.5zM768 992h16q2 0 2.5 -3.5t0.5 -7.5q0 -11 -3 -11h-16q-3 0 -3 5v11q0 6 3 6zM831 1144q15 12 42 12
q25 0 44 -12q36 -23 36 -80q0 -60 -36 -80q-11 -7 -20.5 -9t-20.5 -2q-13 0 -25 2t-20 9q-38 21 -38 80q0 56 38 80zM853 1020l10 -4t13 -2q4 0 9.5 2t9.5 4q19 11 19 44q0 30 -19 42q-4 4 -10 4.5t-12 0.5t-10.5 -0.5t-9.5 -4.5q-19 -13 -19 -42q0 -32 19 -44zM1120 1156
q1 0 36 -100l2 -14l16.5 49.5l12.5 35.5l10 29h45q0 -13 -28 -103q-11 -23 -19.5 -43t-19.5 -35q-3 -2 -14 -2h-5q-17 0 -17 2q-13 26 -25 56.5t-25 68.5q-2 13 -5.5 26t-8.5 30h45zM1383 1153q3 0 3 -17v-5q0 -8 -0.5 -14t-2.5 -6h-83v-28h47q3 0 3 -19q0 -22 -3 -22h-47
v-28h83q3 0 3 -19v-3q0 -19 -3 -19h-125q-1 2 -2 6t-1 16q-2 14 -2 29v32v14q0 20 1.5 41t3.5 42h125zM1400 1153h61q29 0 46.5 -7.5t25.5 -20.5v-8v-9q0 -34 -34 -55q17 -13 25 -25q5 -6 9 -20.5t11 -34.5h-50q-1 2 -2 6q-1 3 -2.5 8t-3.5 13q-17 36 -36 36l-3 -47t-3 -16
h-44v180zM1447 1122q2 -12 2.5 -24t0.5 -23q36 4 36 28q0 19 -39 19zM1619 1153h8q17 0 33 -2l33 -4v-39l-2 -2q-35 8 -56 8h-3q-19 0 -19 -11q0 -4 39 -31q21 -17 32.5 -31t11.5 -27v-3q0 -27 -47 -36q-6 -2 -12 -2h-10h-8h-33.5t-30.5 2l-3 3v42h3q14 -2 26.5 -4t20.5 -2
h6q24 0 24 11q0 7 -44 34q-39 25 -39 52v3q0 14 12.5 23t37.5 16h20zM1757 1153q2 0 6 -53v-39q0 -20 -0.5 -42.5t-5.5 -45.5h-41q-2 0 -2.5 4.5t-0.5 17.5q-2 12 -4 28t-2 33v14q0 20 2 41l4 42h44zM1860 1153h3q29 0 49.5 -11t33.5 -36q4 -8 4.5 -20t0.5 -25
q0 -63 -52 -83q-18 -5 -31 -5h-8q-40 0 -67 30q-8 13 -13.5 27t-5.5 31v6q0 66 66 83q7 2 11 2.5t9 0.5zM1821 1064v-3q0 -31 28 -39q4 -2 8 -2h8q32 0 39 27q3 3 3 17q0 17 -8 25.5t-23 13.5q-2 2 -5.5 2.5t-7.5 0.5q-15 0 -24 -6.5t-15 -18.5q-2 -5 -2.5 -8.5t-0.5 -8.5z
M2009 1156q0 -5 81 -95l14 -16v108v3h39q5 0 5 -50q2 -7 2.5 -15t0.5 -19v-19q0 -19 -2 -39.5l-4 -40.5h-41l-95 110v-108l-2 -2h-39q-1 2 -2 6t-1 16q-2 14 -2.5 29.5t-0.5 34.5v11q0 20 2 41l4 42v3h41zM2334 1153q4 0 8 -53v-39q0 -20 -1.5 -42.5t-3.5 -45.5h-45
q-1 2 -2 5t-1 17q-2 12 -2 28v33v14q0 20 0.5 41t4.5 42h42zM2423 1153h8q17 0 33 -2l33 -4v-39l-2 -2q-37 8 -56 8h-3q-19 0 -19 -11q0 -2 9.5 -10t26.5 -21q47 -33 47 -58v-3q0 -27 -47 -36q-6 -2 -12 -2h-10h-11h-31t-30 2l-3 3v42h3q14 -2 26.5 -4t20.5 -2h5q25 0 25 11
q0 7 -44 34q-39 25 -39 52v3q0 14 12.5 23t37.5 16h20zM-3 828h53q71 0 97 -55l3.5 -19.5t1.5 -16.5q0 -61 -61 -83q-24 -9 -58 -9h-36h-3v181zM38 792q0 -17 1.5 -30.5t1.5 -24.5q0 -13 -1.5 -25.5t-1.5 -29.5h6q28 0 50 22q11 11 11 33q0 38 -36 50q-13 5 -31 5zM241 826
h3q29 0 49.5 -11t33.5 -36q4 -9 4.5 -20.5t0.5 -24.5q0 -63 -52 -83l-16.5 -4t-14.5 -2h-8q-19 0 -36.5 8.5t-30.5 22.5q-11 13 -15 27t-4 31v6q0 65 66 86h20zM202 737v-3q0 -31 28 -39q4 -2 8 -2h6q34 0 41 27q0 2 1.5 7t1.5 10q0 17 -8 26t-23 16h-13q-15 0 -24 -6.5
t-15 -18.5q-2 -5 -2.5 -9t-0.5 -8zM379 826q2 0 7 -13.5l13 -36.5l25 -70l36 95q3 -3 36 -95q1 5 4 13q2 7 6 16.5t9 23.5q6 17 11 29.5l8 20.5q4 10 6 17h50q0 -7 -8 -30l-22 -65q-8 -25 -18 -46t-18 -40h-56q-1 2 -2 5q-1 2 -2.5 6l-3.5 9l-2 -6q-1 -3 -2.5 -6t-3.5 -8
h-53q-2 2 -8 13t-14 32q-11 21 -19.5 49l-19.5 62l-6 25h47zM646 828q0 -2 20 -26t60 -68l14 -16v108v2h41q0 -5 1 -12q1 -6 1.5 -15.5t0.5 -21.5q0 -7 1.5 -15t1.5 -19v-19q0 -19 -2 -39.5l-4 -41.5h-41l-94 111v-108l-3 -3h-39q-1 2 -2 6t-1 17q-2 14 -2.5 29t-0.5 34v11
q0 21 2 42l4 42v2h42zM809 828h44q3 -2 3 -63v-17q0 -13 -0.5 -27t-2.5 -28h73v-3v-45h-117h-3v181zM1017 826h3q57 0 80 -47q9 -18 9 -45q0 -62 -53 -83l-16 -4t-15 -2h-8q-21 0 -38 8.5t-31 22.5q-17 26 -17 58v6q0 65 67 86h19zM978 737v-3q0 -30 25 -39q7 -2 11 -2h6
q17 0 26 6.5t15 20.5q0 2 1.5 7t1.5 10q0 17 -8 26t-22 16h-14q-15 0 -24 -6.5t-15 -18.5q-2 -5 -2.5 -9t-0.5 -8zM1208 828q7 -17 16.5 -36t17.5 -44q8 -21 16 -45t14 -49l3 -9h-42q-2 0 -4.5 8.5t-9.5 22.5h-30h-31q-8 -31 -11 -31h-38h-3l20.5 70t20.5 61q8 14 14.5 28
t10.5 24h36zM1175 718h31l-14 41q-5 0 -17 -41zM1286 828h55q74 0 95 -55l3.5 -19.5t1.5 -16.5q0 -62 -58 -83q-26 -9 -61 -9h-36h-3v181zM1328 792q2 -17 2 -30.5v-24.5v-25.5t-2 -29.5h5q31 0 53 22q11 11 11 33q0 38 -39 50q-13 5 -30 5zM1538 828q8 -17 18 -36t18 -44
q8 -21 16 -45t15 -49v-9h-42q-1 4 -3 8t-3.5 9.5t-4.5 13.5h-30h-31l-3.5 -13.5t-3.5 -9.5l-4 -8h-42q9 38 19 70t23 61l12.5 28t12.5 24h33zM1508 718h30l-16 41q-2 -4 -4 -10q-2 -5 -4.5 -13zM1671 826q83 0 83 -42v-5q0 -29 -36 -42h-2q10 0 19.5 -4.5t16.5 -14.5
q8 -10 8 -28q0 -45 -80 -45h-56q-3 0 -3 23q-2 14 -3.5 29t-1.5 34v11q0 21 1.5 42t3.5 42h50zM1663 803v-47h25q11 0 15.5 3t6.5 11v6v5q0 22 -44 22h-3zM1663 720v-50h8q19 0 28 2.5t14 9.5q0 2 1.5 5.5t1.5 7.5q0 25 -39 25h-14zM1774 828h44q6 -4 6 -63v-17
q0 -13 -0.5 -27t-2.5 -28h69l3 -3v-45h-3h-116v181v2zM2034 826q3 0 3 -17v-6q0 -19 -3 -19h-86v-28h50q0 -2 1 -5q2 -6 2 -14q0 -22 -3 -22h-50v-28h86q3 0 3 -19v-3q0 -20 -3 -20h-124q-3 0 -3 23q-2 14 -2.5 29t-0.5 34v11q0 21 0.5 42t5.5 42h124zM2259 828l16.5 -36
l19.5 -44q8 -21 14.5 -45l13.5 -49l3 -9h-42l-4 8t-3.5 9.5l-3.5 13.5h-33h-28l-5 -13.5t-4 -9.5t-2 -8h-42q8 38 18.5 70t23.5 61l11.5 28t10.5 24h36zM2226 718h30l-14 41q-1 -4 -4 -10l-5 -13zM2375 826h11q21 0 40 -0.5t38 -5.5v-39q0 -5 -58 -5v-131h-3h-44v131
q-29 0 -42.5 1.5t-15.5 3.5v39q0 6 74 6zM38 499v-70h75v70h3h39q1 -5 2 -13q2 -14 3 -40v-36q0 -23 -1.5 -46t-3.5 -46h-39h-3v70h-75v-70h-38q-3 0 -3 23l-4 29t-2 34v11q0 21 2 42l4 42h3h38zM246 499h11q19 0 37.5 -0.5t37.5 -2.5v-42q0 -5 -58 -5v-131h-44v131h-3
q-55 0 -55 5v39q0 6 74 6zM415 499h12q19 0 37 -0.5t37 -2.5v-42q0 -5 -58 -5v-131h-44h-3v131q-53 0 -58 5v39q0 6 77 6zM518 499h61q39 0 61 -17q6 -5 8.5 -10t2.5 -9v-9q0 -41 -47 -58q-19 -8 -36 -8q-2 -21 -3 -38t-3 -32h-44h-3v181h3zM565 468l3 -47q33 4 33 28v2
q0 7 -4.5 11t-17.5 6h-14zM665 457h19v-11v-11h-19q-3 0 -3 3v13q0 6 3 6zM665 377h19v-12v-11h-19q-3 0 -3 6v11q0 6 3 6zM848 487q-13 -31 -27 -59t-31 -57l-34 -52.5l-36 -52.5l-5 2l-8 6l-6 3l27 57.5t31 55.5q15 27 33 54.5l37 54.5l5 -3l8 -6zM998 487
q-13 -31 -27 -59l-29 -57l-34 -52.5t-38 -52.5l-5 2l-9 6l-5 3h2l26 57.5t30 55.5l33.5 54.5t35.5 54.5l6 -3l11 -6zM1139 499q0 -1 1 -4q2 -6 2 -13v-6q0 -8 -2 -14q-1 -3 -1 -5h-86v-31h64v-19v-22h-64v-67h-39q-2 0 -2.5 6t-2.5 17q0 14 -1.5 29t-1.5 34v11q0 21 2 42
l4 42h2h125zM1225 501l16.5 -36l19.5 -44q8 -21 14.5 -45l13.5 -49l2 -9h-41l-4 8t-3.5 9.5l-3.5 13.5h-33h-28l-5 -13.5t-4 -9.5t-2 -8h-42q8 38 18.5 70t23.5 61q6 17 11.5 29l10.5 23h36zM1192 390h30l-14 42q-1 -5 -4 -11l-5 -12.5t-7 -18.5zM1380 499h9q12 0 19.5 -0.5
t7.5 -2.5v-42l-3 -3h-24q-42 0 -53 -27v-14v-3q0 -26 28 -39q6 -2 11.5 -2.5t10.5 -0.5h27l3 -2v-42q0 -3 -22 -3h-14q-41 0 -69 28q-11 13 -16.5 27.5t-5.5 33.5v6q0 55 44 74q13 7 24 9.5t23 2.5zM1502 499h11q19 0 38.5 -0.5t36.5 -2.5v-42q0 -5 -58 -5v-131h-44v131
q-59 0 -59 5v39q0 6 75 6zM1677 499h3q29 0 49.5 -11t33.5 -37q8 -18 8 -44q0 -62 -55 -83l-16.5 -4t-14.5 -2h-8q-36 0 -67 31q-8 12 -13.5 26.5t-5.5 31.5v6q0 65 66 86h20zM1638 410v-3q0 -31 28 -39q4 -2 8 -2.5t8 -0.5q32 0 39 28q2 5 2.5 8.5t0.5 8.5q0 33 -31 41h-13
q-15 0 -24 -6t-15 -19q0 -4 -1.5 -8t-1.5 -8zM1782 499h61q29 0 46 -8t23 -20q1 -2 2 -2.5t1 -2.5v-3v-9q0 -17 -8 -30.5t-25 -21.5l14 -15.5t8 -12.5q6 -7 11 -21t11 -35h-50q-4 0 -8 28q-16 36 -36 36q-2 -16 -2.5 -27.5t-1.5 -19.5q-1 -10 -1 -17h-45h-3v181h3zM1829 468
q2 -13 2.5 -24.5t0.5 -22.5q17 2 26.5 8.5t9.5 19.5v2q0 17 -39 17zM1987 499q1 -5 2 -13q1 -7 1.5 -16.5t2.5 -23.5v-39q0 -21 -2 -43.5l-4 -45.5h-44q-1 1 -2 5t-1 18q-2 12 -2.5 28t-0.5 33v13q0 21 2 42l4 42h44zM2087 499h6q29 0 48 -11t32 -37q5 -8 6.5 -19.5
t1.5 -24.5q0 -63 -52 -83l-16.5 -4t-17.5 -2h-5q-40 0 -69 31q-17 23 -17 58v6q0 65 66 86h17zM2051 410v-3q0 -30 25 -39q6 -2 9 -2.5t8 -0.5q29 0 41 28v17q0 34 -27 41h-14q-32 0 -39 -25q-2 -4 -2.5 -8t-0.5 -8zM2190 338h19v-11v-11h-19q-1 0 -2 1t-1 4v11q0 3 1 4z
M2226 499h44v-111q0 -7 8 -17q5 -5 10.5 -5.5t12.5 -0.5h5q21 0 25 14q3 3 3 9v111h44h3v-117q0 -35 -33 -53q-15 -11 -42 -11h-8q-56 0 -72 45q0 6 -1.5 10.5t-1.5 8.5v117h3zM2464 499h6q17 0 33 -0.5t33 -5.5v-39v-3q-19 5 -31.5 7t-23.5 2h-3q-19 0 -19 -9t36 -33
q44 -32 44 -58v-3q0 -27 -44 -36q-8 -2 -13 -2.5t-10 -0.5h-11q-14 0 -30 0.5t-33 2.5v3v41l29 -3.5t20 -1.5h6q22 0 22 11q0 9 -41 33q-39 27 -39 53v3q0 30 50 39h19z" />
    <glyph glyph-name="semicolon" unicode=";" horiz-adv-x="2599" 
d="M61 1153h14q18 0 36.5 -0.5t37.5 -5.5v-39q0 -5 -58 -5v-130h-44h-3v130q-27 0 -41.5 1.5t-16.5 3.5v39q0 6 75 6zM205 1153h3v-70h74v70h39q6 0 6 -53l3 -36q0 -23 -2 -45.5l-4 -45.5h-42v69h-74v-69h-3h-39v6q0 3 -1 7t-2 9q0 14 -1.5 29t-1.5 32v14q0 20 2 41l4 42h39
zM476 1153q3 0 3 -17v-5q0 -8 -0.5 -14t-2.5 -6h-85v-28h49v-5q0 -7 3 -14q0 -8 -2 -16q-1 -4 -1 -6h-49v-28h85q3 0 3 -19v-3q0 -19 -3 -19h-124q-3 0 -3 22q-2 14 -2.5 29t-0.5 32v14q0 20 0.5 41t5.5 42h124zM729 1147q27 -7 27 -33t-36 -58q-18 -19 -44 -36h80v-47h-152
v47q17 11 32.5 22.5t28.5 24.5q13 11 21 18.5l12 11.5q5 8 1 12.5t-12 4.5q-25 0 -33 -17q-6 -4 -6 -14h-47q0 9 3.5 18.5t7.5 18.5q21 33 70 33q14 0 26.5 -0.5t20.5 -5.5zM768 992h16q2 0 2.5 -3.5t0.5 -7.5q0 -11 -3 -11h-16q-3 0 -3 5v11q0 6 3 6zM831 1144q15 12 42 12
q25 0 44 -12q36 -23 36 -80q0 -60 -36 -80q-11 -7 -20.5 -9t-20.5 -2q-13 0 -25 2t-20 9q-38 21 -38 80q0 56 38 80zM853 1020l10 -4t13 -2q4 0 9.5 2t9.5 4q19 11 19 44q0 30 -19 42q-4 4 -10 4.5t-12 0.5t-10.5 -0.5t-9.5 -4.5q-19 -13 -19 -42q0 -32 19 -44zM1120 1156
q1 0 36 -100l2 -14l16.5 49.5l12.5 35.5l10 29h45q0 -13 -28 -103q-11 -23 -19.5 -43t-19.5 -35q-3 -2 -14 -2h-5q-17 0 -17 2q-13 26 -25 56.5t-25 68.5q-2 13 -5.5 26t-8.5 30h45zM1383 1153q3 0 3 -17v-5q0 -8 -0.5 -14t-2.5 -6h-83v-28h47q3 0 3 -19q0 -22 -3 -22h-47
v-28h83q3 0 3 -19v-3q0 -19 -3 -19h-125q-1 2 -2 6t-1 16q-2 14 -2 29v32v14q0 20 1.5 41t3.5 42h125zM1400 1153h61q29 0 46.5 -7.5t25.5 -20.5v-8v-9q0 -34 -34 -55q17 -13 25 -25q5 -6 9 -20.5t11 -34.5h-50q-1 2 -2 6q-1 3 -2.5 8t-3.5 13q-17 36 -36 36l-3 -47t-3 -16
h-44v180zM1447 1122q2 -12 2.5 -24t0.5 -23q36 4 36 28q0 19 -39 19zM1619 1153h8q17 0 33 -2l33 -4v-39l-2 -2q-35 8 -56 8h-3q-19 0 -19 -11q0 -4 39 -31q21 -17 32.5 -31t11.5 -27v-3q0 -27 -47 -36q-6 -2 -12 -2h-10h-8h-33.5t-30.5 2l-3 3v42h3q14 -2 26.5 -4t20.5 -2
h6q24 0 24 11q0 7 -44 34q-39 25 -39 52v3q0 14 12.5 23t37.5 16h20zM1757 1153q2 0 6 -53v-39q0 -20 -0.5 -42.5t-5.5 -45.5h-41q-2 0 -2.5 4.5t-0.5 17.5q-2 12 -4 28t-2 33v14q0 20 2 41l4 42h44zM1860 1153h3q29 0 49.5 -11t33.5 -36q4 -8 4.5 -20t0.5 -25
q0 -63 -52 -83q-18 -5 -31 -5h-8q-40 0 -67 30q-8 13 -13.5 27t-5.5 31v6q0 66 66 83q7 2 11 2.5t9 0.5zM1821 1064v-3q0 -31 28 -39q4 -2 8 -2h8q32 0 39 27q3 3 3 17q0 17 -8 25.5t-23 13.5q-2 2 -5.5 2.5t-7.5 0.5q-15 0 -24 -6.5t-15 -18.5q-2 -5 -2.5 -8.5t-0.5 -8.5z
M2009 1156q0 -5 81 -95l14 -16v108v3h39q5 0 5 -50q2 -7 2.5 -15t0.5 -19v-19q0 -19 -2 -39.5l-4 -40.5h-41l-95 110v-108l-2 -2h-39q-1 2 -2 6t-1 16q-2 14 -2.5 29.5t-0.5 34.5v11q0 20 2 41l4 42v3h41zM2334 1153q4 0 8 -53v-39q0 -20 -1.5 -42.5t-3.5 -45.5h-45
q-1 2 -2 5t-1 17q-2 12 -2 28v33v14q0 20 0.5 41t4.5 42h42zM2423 1153h8q17 0 33 -2l33 -4v-39l-2 -2q-37 8 -56 8h-3q-19 0 -19 -11q0 -2 9.5 -10t26.5 -21q47 -33 47 -58v-3q0 -27 -47 -36q-6 -2 -12 -2h-10h-11h-31t-30 2l-3 3v42h3q14 -2 26.5 -4t20.5 -2h5q25 0 25 11
q0 7 -44 34q-39 25 -39 52v3q0 14 12.5 23t37.5 16h20zM-3 828h53q71 0 97 -55l3.5 -19.5t1.5 -16.5q0 -61 -61 -83q-24 -9 -58 -9h-36h-3v181zM38 792q0 -17 1.5 -30.5t1.5 -24.5q0 -13 -1.5 -25.5t-1.5 -29.5h6q28 0 50 22q11 11 11 33q0 38 -36 50q-13 5 -31 5zM241 826
h3q29 0 49.5 -11t33.5 -36q4 -9 4.5 -20.5t0.5 -24.5q0 -63 -52 -83l-16.5 -4t-14.5 -2h-8q-19 0 -36.5 8.5t-30.5 22.5q-11 13 -15 27t-4 31v6q0 65 66 86h20zM202 737v-3q0 -31 28 -39q4 -2 8 -2h6q34 0 41 27q0 2 1.5 7t1.5 10q0 17 -8 26t-23 16h-13q-15 0 -24 -6.5
t-15 -18.5q-2 -5 -2.5 -9t-0.5 -8zM379 826q2 0 7 -13.5l13 -36.5l25 -70l36 95q3 -3 36 -95q1 5 4 13q2 7 6 16.5t9 23.5q6 17 11 29.5l8 20.5q4 10 6 17h50q0 -7 -8 -30l-22 -65q-8 -25 -18 -46t-18 -40h-56q-1 2 -2 5q-1 2 -2.5 6l-3.5 9l-2 -6q-1 -3 -2.5 -6t-3.5 -8
h-53q-2 2 -8 13t-14 32q-11 21 -19.5 49l-19.5 62l-6 25h47zM646 828q0 -2 20 -26t60 -68l14 -16v108v2h41q0 -5 1 -12q1 -6 1.5 -15.5t0.5 -21.5q0 -7 1.5 -15t1.5 -19v-19q0 -19 -2 -39.5l-4 -41.5h-41l-94 111v-108l-3 -3h-39q-1 2 -2 6t-1 17q-2 14 -2.5 29t-0.5 34v11
q0 21 2 42l4 42v2h42zM809 828h44q3 -2 3 -63v-17q0 -13 -0.5 -27t-2.5 -28h73v-3v-45h-117h-3v181zM1017 826h3q57 0 80 -47q9 -18 9 -45q0 -62 -53 -83l-16 -4t-15 -2h-8q-21 0 -38 8.5t-31 22.5q-17 26 -17 58v6q0 65 67 86h19zM978 737v-3q0 -30 25 -39q7 -2 11 -2h6
q17 0 26 6.5t15 20.5q0 2 1.5 7t1.5 10q0 17 -8 26t-22 16h-14q-15 0 -24 -6.5t-15 -18.5q-2 -5 -2.5 -9t-0.5 -8zM1208 828q7 -17 16.5 -36t17.5 -44q8 -21 16 -45t14 -49l3 -9h-42q-2 0 -4.5 8.5t-9.5 22.5h-30h-31q-8 -31 -11 -31h-38h-3l20.5 70t20.5 61q8 14 14.5 28
t10.5 24h36zM1175 718h31l-14 41q-5 0 -17 -41zM1286 828h55q74 0 95 -55l3.5 -19.5t1.5 -16.5q0 -62 -58 -83q-26 -9 -61 -9h-36h-3v181zM1328 792q2 -17 2 -30.5v-24.5v-25.5t-2 -29.5h5q31 0 53 22q11 11 11 33q0 38 -39 50q-13 5 -30 5zM1538 828q8 -17 18 -36t18 -44
q8 -21 16 -45t15 -49v-9h-42q-1 4 -3 8t-3.5 9.5t-4.5 13.5h-30h-31l-3.5 -13.5t-3.5 -9.5l-4 -8h-42q9 38 19 70t23 61l12.5 28t12.5 24h33zM1508 718h30l-16 41q-2 -4 -4 -10q-2 -5 -4.5 -13zM1671 826q83 0 83 -42v-5q0 -29 -36 -42h-2q10 0 19.5 -4.5t16.5 -14.5
q8 -10 8 -28q0 -45 -80 -45h-56q-3 0 -3 23q-2 14 -3.5 29t-1.5 34v11q0 21 1.5 42t3.5 42h50zM1663 803v-47h25q11 0 15.5 3t6.5 11v6v5q0 22 -44 22h-3zM1663 720v-50h8q19 0 28 2.5t14 9.5q0 2 1.5 5.5t1.5 7.5q0 25 -39 25h-14zM1774 828h44q6 -4 6 -63v-17
q0 -13 -0.5 -27t-2.5 -28h69l3 -3v-45h-3h-116v181v2zM2034 826q3 0 3 -17v-6q0 -19 -3 -19h-86v-28h50q0 -2 1 -5q2 -6 2 -14q0 -22 -3 -22h-50v-28h86q3 0 3 -19v-3q0 -20 -3 -20h-124q-3 0 -3 23q-2 14 -2.5 29t-0.5 34v11q0 21 0.5 42t5.5 42h124zM2259 828l16.5 -36
l19.5 -44q8 -21 14.5 -45l13.5 -49l3 -9h-42l-4 8t-3.5 9.5l-3.5 13.5h-33h-28l-5 -13.5t-4 -9.5t-2 -8h-42q8 38 18.5 70t23.5 61l11.5 28t10.5 24h36zM2226 718h30l-14 41q-1 -4 -4 -10l-5 -13zM2375 826h11q21 0 40 -0.5t38 -5.5v-39q0 -5 -58 -5v-131h-3h-44v131
q-29 0 -42.5 1.5t-15.5 3.5v39q0 6 74 6zM38 499v-70h75v70h3h39q1 -5 2 -13q2 -14 3 -40v-36q0 -23 -1.5 -46t-3.5 -46h-39h-3v70h-75v-70h-38q-3 0 -3 23l-4 29t-2 34v11q0 21 2 42l4 42h3h38zM246 499h11q19 0 37.5 -0.5t37.5 -2.5v-42q0 -5 -58 -5v-131h-44v131h-3
q-55 0 -55 5v39q0 6 74 6zM415 499h12q19 0 37 -0.5t37 -2.5v-42q0 -5 -58 -5v-131h-44h-3v131q-53 0 -58 5v39q0 6 77 6zM518 499h61q39 0 61 -17q6 -5 8.5 -10t2.5 -9v-9q0 -41 -47 -58q-19 -8 -36 -8q-2 -21 -3 -38t-3 -32h-44h-3v181h3zM565 468l3 -47q33 4 33 28v2
q0 7 -4.5 11t-17.5 6h-14zM665 457h19v-11v-11h-19q-3 0 -3 3v13q0 6 3 6zM665 377h19v-12v-11h-19q-3 0 -3 6v11q0 6 3 6zM848 487q-13 -31 -27 -59t-31 -57l-34 -52.5l-36 -52.5l-5 2l-8 6l-6 3l27 57.5t31 55.5q15 27 33 54.5l37 54.5l5 -3l8 -6zM998 487
q-13 -31 -27 -59l-29 -57l-34 -52.5t-38 -52.5l-5 2l-9 6l-5 3h2l26 57.5t30 55.5l33.5 54.5t35.5 54.5l6 -3l11 -6zM1139 499q0 -1 1 -4q2 -6 2 -13v-6q0 -8 -2 -14q-1 -3 -1 -5h-86v-31h64v-19v-22h-64v-67h-39q-2 0 -2.5 6t-2.5 17q0 14 -1.5 29t-1.5 34v11q0 21 2 42
l4 42h2h125zM1225 501l16.5 -36l19.5 -44q8 -21 14.5 -45l13.5 -49l2 -9h-41l-4 8t-3.5 9.5l-3.5 13.5h-33h-28l-5 -13.5t-4 -9.5t-2 -8h-42q8 38 18.5 70t23.5 61q6 17 11.5 29l10.5 23h36zM1192 390h30l-14 42q-1 -5 -4 -11l-5 -12.5t-7 -18.5zM1380 499h9q12 0 19.5 -0.5
t7.5 -2.5v-42l-3 -3h-24q-42 0 -53 -27v-14v-3q0 -26 28 -39q6 -2 11.5 -2.5t10.5 -0.5h27l3 -2v-42q0 -3 -22 -3h-14q-41 0 -69 28q-11 13 -16.5 27.5t-5.5 33.5v6q0 55 44 74q13 7 24 9.5t23 2.5zM1502 499h11q19 0 38.5 -0.5t36.5 -2.5v-42q0 -5 -58 -5v-131h-44v131
q-59 0 -59 5v39q0 6 75 6zM1677 499h3q29 0 49.5 -11t33.5 -37q8 -18 8 -44q0 -62 -55 -83l-16.5 -4t-14.5 -2h-8q-36 0 -67 31q-8 12 -13.5 26.5t-5.5 31.5v6q0 65 66 86h20zM1638 410v-3q0 -31 28 -39q4 -2 8 -2.5t8 -0.5q32 0 39 28q2 5 2.5 8.5t0.5 8.5q0 33 -31 41h-13
q-15 0 -24 -6t-15 -19q0 -4 -1.5 -8t-1.5 -8zM1782 499h61q29 0 46 -8t23 -20q1 -2 2 -2.5t1 -2.5v-3v-9q0 -17 -8 -30.5t-25 -21.5l14 -15.5t8 -12.5q6 -7 11 -21t11 -35h-50q-4 0 -8 28q-16 36 -36 36q-2 -16 -2.5 -27.5t-1.5 -19.5q-1 -10 -1 -17h-45h-3v181h3zM1829 468
q2 -13 2.5 -24.5t0.5 -22.5q17 2 26.5 8.5t9.5 19.5v2q0 17 -39 17zM1987 499q1 -5 2 -13q1 -7 1.5 -16.5t2.5 -23.5v-39q0 -21 -2 -43.5l-4 -45.5h-44q-1 1 -2 5t-1 18q-2 12 -2.5 28t-0.5 33v13q0 21 2 42l4 42h44zM2087 499h6q29 0 48 -11t32 -37q5 -8 6.5 -19.5
t1.5 -24.5q0 -63 -52 -83l-16.5 -4t-17.5 -2h-5q-40 0 -69 31q-17 23 -17 58v6q0 65 66 86h17zM2051 410v-3q0 -30 25 -39q6 -2 9 -2.5t8 -0.5q29 0 41 28v17q0 34 -27 41h-14q-32 0 -39 -25q-2 -4 -2.5 -8t-0.5 -8zM2190 338h19v-11v-11h-19q-1 0 -2 1t-1 4v11q0 3 1 4z
M2226 499h44v-111q0 -7 8 -17q5 -5 10.5 -5.5t12.5 -0.5h5q21 0 25 14q3 3 3 9v111h44h3v-117q0 -35 -33 -53q-15 -11 -42 -11h-8q-56 0 -72 45q0 6 -1.5 10.5t-1.5 8.5v117h3zM2464 499h6q17 0 33 -0.5t33 -5.5v-39v-3q-19 5 -31.5 7t-23.5 2h-3q-19 0 -19 -9t36 -33
q44 -32 44 -58v-3q0 -27 -44 -36q-8 -2 -13 -2.5t-10 -0.5h-11q-14 0 -30 0.5t-33 2.5v3v41l29 -3.5t20 -1.5h6q22 0 22 11q0 9 -41 33q-39 27 -39 53v3q0 30 50 39h19z" />
    <glyph glyph-name="hyphen" horiz-adv-x="1196" 
 />
    <glyph glyph-name="zero" unicode="0" horiz-adv-x="2599" 
d="M61 1153h14q18 0 36.5 -0.5t37.5 -5.5v-39q0 -5 -58 -5v-130h-44h-3v130q-27 0 -41.5 1.5t-16.5 3.5v39q0 6 75 6zM205 1153h3v-70h74v70h39q6 0 6 -53l3 -36q0 -23 -2 -45.5l-4 -45.5h-42v69h-74v-69h-3h-39v6q0 3 -1 7t-2 9q0 14 -1.5 29t-1.5 32v14q0 20 2 41l4 42h39
zM476 1153q3 0 3 -17v-5q0 -8 -0.5 -14t-2.5 -6h-85v-28h49v-5q0 -7 3 -14q0 -8 -2 -16q-1 -4 -1 -6h-49v-28h85q3 0 3 -19v-3q0 -19 -3 -19h-124q-3 0 -3 22q-2 14 -2.5 29t-0.5 32v14q0 20 0.5 41t5.5 42h124zM729 1147q27 -7 27 -33t-36 -58q-18 -19 -44 -36h80v-47h-152
v47q17 11 32.5 22.5t28.5 24.5q13 11 21 18.5l12 11.5q5 8 1 12.5t-12 4.5q-25 0 -33 -17q-6 -4 -6 -14h-47q0 9 3.5 18.5t7.5 18.5q21 33 70 33q14 0 26.5 -0.5t20.5 -5.5zM768 992h16q2 0 2.5 -3.5t0.5 -7.5q0 -11 -3 -11h-16q-3 0 -3 5v11q0 6 3 6zM831 1144q15 12 42 12
q25 0 44 -12q36 -23 36 -80q0 -60 -36 -80q-11 -7 -20.5 -9t-20.5 -2q-13 0 -25 2t-20 9q-38 21 -38 80q0 56 38 80zM853 1020l10 -4t13 -2q4 0 9.5 2t9.5 4q19 11 19 44q0 30 -19 42q-4 4 -10 4.5t-12 0.5t-10.5 -0.5t-9.5 -4.5q-19 -13 -19 -42q0 -32 19 -44zM1120 1156
q1 0 36 -100l2 -14l16.5 49.5l12.5 35.5l10 29h45q0 -13 -28 -103q-11 -23 -19.5 -43t-19.5 -35q-3 -2 -14 -2h-5q-17 0 -17 2q-13 26 -25 56.5t-25 68.5q-2 13 -5.5 26t-8.5 30h45zM1383 1153q3 0 3 -17v-5q0 -8 -0.5 -14t-2.5 -6h-83v-28h47q3 0 3 -19q0 -22 -3 -22h-47
v-28h83q3 0 3 -19v-3q0 -19 -3 -19h-125q-1 2 -2 6t-1 16q-2 14 -2 29v32v14q0 20 1.5 41t3.5 42h125zM1400 1153h61q29 0 46.5 -7.5t25.5 -20.5v-8v-9q0 -34 -34 -55q17 -13 25 -25q5 -6 9 -20.5t11 -34.5h-50q-1 2 -2 6q-1 3 -2.5 8t-3.5 13q-17 36 -36 36l-3 -47t-3 -16
h-44v180zM1447 1122q2 -12 2.5 -24t0.5 -23q36 4 36 28q0 19 -39 19zM1619 1153h8q17 0 33 -2l33 -4v-39l-2 -2q-35 8 -56 8h-3q-19 0 -19 -11q0 -4 39 -31q21 -17 32.5 -31t11.5 -27v-3q0 -27 -47 -36q-6 -2 -12 -2h-10h-8h-33.5t-30.5 2l-3 3v42h3q14 -2 26.5 -4t20.5 -2
h6q24 0 24 11q0 7 -44 34q-39 25 -39 52v3q0 14 12.5 23t37.5 16h20zM1757 1153q2 0 6 -53v-39q0 -20 -0.5 -42.5t-5.5 -45.5h-41q-2 0 -2.5 4.5t-0.5 17.5q-2 12 -4 28t-2 33v14q0 20 2 41l4 42h44zM1860 1153h3q29 0 49.5 -11t33.5 -36q4 -8 4.5 -20t0.5 -25
q0 -63 -52 -83q-18 -5 -31 -5h-8q-40 0 -67 30q-8 13 -13.5 27t-5.5 31v6q0 66 66 83q7 2 11 2.5t9 0.5zM1821 1064v-3q0 -31 28 -39q4 -2 8 -2h8q32 0 39 27q3 3 3 17q0 17 -8 25.5t-23 13.5q-2 2 -5.5 2.5t-7.5 0.5q-15 0 -24 -6.5t-15 -18.5q-2 -5 -2.5 -8.5t-0.5 -8.5z
M2009 1156q0 -5 81 -95l14 -16v108v3h39q5 0 5 -50q2 -7 2.5 -15t0.5 -19v-19q0 -19 -2 -39.5l-4 -40.5h-41l-95 110v-108l-2 -2h-39q-1 2 -2 6t-1 16q-2 14 -2.5 29.5t-0.5 34.5v11q0 20 2 41l4 42v3h41zM2334 1153q4 0 8 -53v-39q0 -20 -1.5 -42.5t-3.5 -45.5h-45
q-1 2 -2 5t-1 17q-2 12 -2 28v33v14q0 20 0.5 41t4.5 42h42zM2423 1153h8q17 0 33 -2l33 -4v-39l-2 -2q-37 8 -56 8h-3q-19 0 -19 -11q0 -2 9.5 -10t26.5 -21q47 -33 47 -58v-3q0 -27 -47 -36q-6 -2 -12 -2h-10h-11h-31t-30 2l-3 3v42h3q14 -2 26.5 -4t20.5 -2h5q25 0 25 11
q0 7 -44 34q-39 25 -39 52v3q0 14 12.5 23t37.5 16h20zM-3 828h53q71 0 97 -55l3.5 -19.5t1.5 -16.5q0 -61 -61 -83q-24 -9 -58 -9h-36h-3v181zM38 792q0 -17 1.5 -30.5t1.5 -24.5q0 -13 -1.5 -25.5t-1.5 -29.5h6q28 0 50 22q11 11 11 33q0 38 -36 50q-13 5 -31 5zM241 826
h3q29 0 49.5 -11t33.5 -36q4 -9 4.5 -20.5t0.5 -24.5q0 -63 -52 -83l-16.5 -4t-14.5 -2h-8q-19 0 -36.5 8.5t-30.5 22.5q-11 13 -15 27t-4 31v6q0 65 66 86h20zM202 737v-3q0 -31 28 -39q4 -2 8 -2h6q34 0 41 27q0 2 1.5 7t1.5 10q0 17 -8 26t-23 16h-13q-15 0 -24 -6.5
t-15 -18.5q-2 -5 -2.5 -9t-0.5 -8zM379 826q2 0 7 -13.5l13 -36.5l25 -70l36 95q3 -3 36 -95q1 5 4 13q2 7 6 16.5t9 23.5q6 17 11 29.5l8 20.5q4 10 6 17h50q0 -7 -8 -30l-22 -65q-8 -25 -18 -46t-18 -40h-56q-1 2 -2 5q-1 2 -2.5 6l-3.5 9l-2 -6q-1 -3 -2.5 -6t-3.5 -8
h-53q-2 2 -8 13t-14 32q-11 21 -19.5 49l-19.5 62l-6 25h47zM646 828q0 -2 20 -26t60 -68l14 -16v108v2h41q0 -5 1 -12q1 -6 1.5 -15.5t0.5 -21.5q0 -7 1.5 -15t1.5 -19v-19q0 -19 -2 -39.5l-4 -41.5h-41l-94 111v-108l-3 -3h-39q-1 2 -2 6t-1 17q-2 14 -2.5 29t-0.5 34v11
q0 21 2 42l4 42v2h42zM809 828h44q3 -2 3 -63v-17q0 -13 -0.5 -27t-2.5 -28h73v-3v-45h-117h-3v181zM1017 826h3q57 0 80 -47q9 -18 9 -45q0 -62 -53 -83l-16 -4t-15 -2h-8q-21 0 -38 8.5t-31 22.5q-17 26 -17 58v6q0 65 67 86h19zM978 737v-3q0 -30 25 -39q7 -2 11 -2h6
q17 0 26 6.5t15 20.5q0 2 1.5 7t1.5 10q0 17 -8 26t-22 16h-14q-15 0 -24 -6.5t-15 -18.5q-2 -5 -2.5 -9t-0.5 -8zM1208 828q7 -17 16.5 -36t17.5 -44q8 -21 16 -45t14 -49l3 -9h-42q-2 0 -4.5 8.5t-9.5 22.5h-30h-31q-8 -31 -11 -31h-38h-3l20.5 70t20.5 61q8 14 14.5 28
t10.5 24h36zM1175 718h31l-14 41q-5 0 -17 -41zM1286 828h55q74 0 95 -55l3.5 -19.5t1.5 -16.5q0 -62 -58 -83q-26 -9 -61 -9h-36h-3v181zM1328 792q2 -17 2 -30.5v-24.5v-25.5t-2 -29.5h5q31 0 53 22q11 11 11 33q0 38 -39 50q-13 5 -30 5zM1538 828q8 -17 18 -36t18 -44
q8 -21 16 -45t15 -49v-9h-42q-1 4 -3 8t-3.5 9.5t-4.5 13.5h-30h-31l-3.5 -13.5t-3.5 -9.5l-4 -8h-42q9 38 19 70t23 61l12.5 28t12.5 24h33zM1508 718h30l-16 41q-2 -4 -4 -10q-2 -5 -4.5 -13zM1671 826q83 0 83 -42v-5q0 -29 -36 -42h-2q10 0 19.5 -4.5t16.5 -14.5
q8 -10 8 -28q0 -45 -80 -45h-56q-3 0 -3 23q-2 14 -3.5 29t-1.5 34v11q0 21 1.5 42t3.5 42h50zM1663 803v-47h25q11 0 15.5 3t6.5 11v6v5q0 22 -44 22h-3zM1663 720v-50h8q19 0 28 2.5t14 9.5q0 2 1.5 5.5t1.5 7.5q0 25 -39 25h-14zM1774 828h44q6 -4 6 -63v-17
q0 -13 -0.5 -27t-2.5 -28h69l3 -3v-45h-3h-116v181v2zM2034 826q3 0 3 -17v-6q0 -19 -3 -19h-86v-28h50q0 -2 1 -5q2 -6 2 -14q0 -22 -3 -22h-50v-28h86q3 0 3 -19v-3q0 -20 -3 -20h-124q-3 0 -3 23q-2 14 -2.5 29t-0.5 34v11q0 21 0.5 42t5.5 42h124zM2259 828l16.5 -36
l19.5 -44q8 -21 14.5 -45l13.5 -49l3 -9h-42l-4 8t-3.5 9.5l-3.5 13.5h-33h-28l-5 -13.5t-4 -9.5t-2 -8h-42q8 38 18.5 70t23.5 61l11.5 28t10.5 24h36zM2226 718h30l-14 41q-1 -4 -4 -10l-5 -13zM2375 826h11q21 0 40 -0.5t38 -5.5v-39q0 -5 -58 -5v-131h-3h-44v131
q-29 0 -42.5 1.5t-15.5 3.5v39q0 6 74 6zM38 499v-70h75v70h3h39q1 -5 2 -13q2 -14 3 -40v-36q0 -23 -1.5 -46t-3.5 -46h-39h-3v70h-75v-70h-38q-3 0 -3 23l-4 29t-2 34v11q0 21 2 42l4 42h3h38zM246 499h11q19 0 37.5 -0.5t37.5 -2.5v-42q0 -5 -58 -5v-131h-44v131h-3
q-55 0 -55 5v39q0 6 74 6zM415 499h12q19 0 37 -0.5t37 -2.5v-42q0 -5 -58 -5v-131h-44h-3v131q-53 0 -58 5v39q0 6 77 6zM518 499h61q39 0 61 -17q6 -5 8.5 -10t2.5 -9v-9q0 -41 -47 -58q-19 -8 -36 -8q-2 -21 -3 -38t-3 -32h-44h-3v181h3zM565 468l3 -47q33 4 33 28v2
q0 7 -4.5 11t-17.5 6h-14zM665 457h19v-11v-11h-19q-3 0 -3 3v13q0 6 3 6zM665 377h19v-12v-11h-19q-3 0 -3 6v11q0 6 3 6zM848 487q-13 -31 -27 -59t-31 -57l-34 -52.5l-36 -52.5l-5 2l-8 6l-6 3l27 57.5t31 55.5q15 27 33 54.5l37 54.5l5 -3l8 -6zM998 487
q-13 -31 -27 -59l-29 -57l-34 -52.5t-38 -52.5l-5 2l-9 6l-5 3h2l26 57.5t30 55.5l33.5 54.5t35.5 54.5l6 -3l11 -6zM1139 499q0 -1 1 -4q2 -6 2 -13v-6q0 -8 -2 -14q-1 -3 -1 -5h-86v-31h64v-19v-22h-64v-67h-39q-2 0 -2.5 6t-2.5 17q0 14 -1.5 29t-1.5 34v11q0 21 2 42
l4 42h2h125zM1225 501l16.5 -36l19.5 -44q8 -21 14.5 -45l13.5 -49l2 -9h-41l-4 8t-3.5 9.5l-3.5 13.5h-33h-28l-5 -13.5t-4 -9.5t-2 -8h-42q8 38 18.5 70t23.5 61q6 17 11.5 29l10.5 23h36zM1192 390h30l-14 42q-1 -5 -4 -11l-5 -12.5t-7 -18.5zM1380 499h9q12 0 19.5 -0.5
t7.5 -2.5v-42l-3 -3h-24q-42 0 -53 -27v-14v-3q0 -26 28 -39q6 -2 11.5 -2.5t10.5 -0.5h27l3 -2v-42q0 -3 -22 -3h-14q-41 0 -69 28q-11 13 -16.5 27.5t-5.5 33.5v6q0 55 44 74q13 7 24 9.5t23 2.5zM1502 499h11q19 0 38.5 -0.5t36.5 -2.5v-42q0 -5 -58 -5v-131h-44v131
q-59 0 -59 5v39q0 6 75 6zM1677 499h3q29 0 49.5 -11t33.5 -37q8 -18 8 -44q0 -62 -55 -83l-16.5 -4t-14.5 -2h-8q-36 0 -67 31q-8 12 -13.5 26.5t-5.5 31.5v6q0 65 66 86h20zM1638 410v-3q0 -31 28 -39q4 -2 8 -2.5t8 -0.5q32 0 39 28q2 5 2.5 8.5t0.5 8.5q0 33 -31 41h-13
q-15 0 -24 -6t-15 -19q0 -4 -1.5 -8t-1.5 -8zM1782 499h61q29 0 46 -8t23 -20q1 -2 2 -2.5t1 -2.5v-3v-9q0 -17 -8 -30.5t-25 -21.5l14 -15.5t8 -12.5q6 -7 11 -21t11 -35h-50q-4 0 -8 28q-16 36 -36 36q-2 -16 -2.5 -27.5t-1.5 -19.5q-1 -10 -1 -17h-45h-3v181h3zM1829 468
q2 -13 2.5 -24.5t0.5 -22.5q17 2 26.5 8.5t9.5 19.5v2q0 17 -39 17zM1987 499q1 -5 2 -13q1 -7 1.5 -16.5t2.5 -23.5v-39q0 -21 -2 -43.5l-4 -45.5h-44q-1 1 -2 5t-1 18q-2 12 -2.5 28t-0.5 33v13q0 21 2 42l4 42h44zM2087 499h6q29 0 48 -11t32 -37q5 -8 6.5 -19.5
t1.5 -24.5q0 -63 -52 -83l-16.5 -4t-17.5 -2h-5q-40 0 -69 31q-17 23 -17 58v6q0 65 66 86h17zM2051 410v-3q0 -30 25 -39q6 -2 9 -2.5t8 -0.5q29 0 41 28v17q0 34 -27 41h-14q-32 0 -39 -25q-2 -4 -2.5 -8t-0.5 -8zM2190 338h19v-11v-11h-19q-1 0 -2 1t-1 4v11q0 3 1 4z
M2226 499h44v-111q0 -7 8 -17q5 -5 10.5 -5.5t12.5 -0.5h5q21 0 25 14q3 3 3 9v111h44h3v-117q0 -35 -33 -53q-15 -11 -42 -11h-8q-56 0 -72 45q0 6 -1.5 10.5t-1.5 8.5v117h3zM2464 499h6q17 0 33 -0.5t33 -5.5v-39v-3q-19 5 -31.5 7t-23.5 2h-3q-19 0 -19 -9t36 -33
q44 -32 44 -58v-3q0 -27 -44 -36q-8 -2 -13 -2.5t-10 -0.5h-11q-14 0 -30 0.5t-33 2.5v3v41l29 -3.5t20 -1.5h6q22 0 22 11q0 9 -41 33q-39 27 -39 53v3q0 30 50 39h19z" />
    <glyph glyph-name="one" unicode="1" horiz-adv-x="2599" 
d="M61 1153h14q18 0 36.5 -0.5t37.5 -5.5v-39q0 -5 -58 -5v-130h-44h-3v130q-27 0 -41.5 1.5t-16.5 3.5v39q0 6 75 6zM205 1153h3v-70h74v70h39q6 0 6 -53l3 -36q0 -23 -2 -45.5l-4 -45.5h-42v69h-74v-69h-3h-39v6q0 3 -1 7t-2 9q0 14 -1.5 29t-1.5 32v14q0 20 2 41l4 42h39
zM476 1153q3 0 3 -17v-5q0 -8 -0.5 -14t-2.5 -6h-85v-28h49v-5q0 -7 3 -14q0 -8 -2 -16q-1 -4 -1 -6h-49v-28h85q3 0 3 -19v-3q0 -19 -3 -19h-124q-3 0 -3 22q-2 14 -2.5 29t-0.5 32v14q0 20 0.5 41t5.5 42h124zM729 1147q27 -7 27 -33t-36 -58q-18 -19 -44 -36h80v-47h-152
v47q17 11 32.5 22.5t28.5 24.5q13 11 21 18.5l12 11.5q5 8 1 12.5t-12 4.5q-25 0 -33 -17q-6 -4 -6 -14h-47q0 9 3.5 18.5t7.5 18.5q21 33 70 33q14 0 26.5 -0.5t20.5 -5.5zM768 992h16q2 0 2.5 -3.5t0.5 -7.5q0 -11 -3 -11h-16q-3 0 -3 5v11q0 6 3 6zM831 1144q15 12 42 12
q25 0 44 -12q36 -23 36 -80q0 -60 -36 -80q-11 -7 -20.5 -9t-20.5 -2q-13 0 -25 2t-20 9q-38 21 -38 80q0 56 38 80zM853 1020l10 -4t13 -2q4 0 9.5 2t9.5 4q19 11 19 44q0 30 -19 42q-4 4 -10 4.5t-12 0.5t-10.5 -0.5t-9.5 -4.5q-19 -13 -19 -42q0 -32 19 -44zM1120 1156
q1 0 36 -100l2 -14l16.5 49.5l12.5 35.5l10 29h45q0 -13 -28 -103q-11 -23 -19.5 -43t-19.5 -35q-3 -2 -14 -2h-5q-17 0 -17 2q-13 26 -25 56.5t-25 68.5q-2 13 -5.5 26t-8.5 30h45zM1383 1153q3 0 3 -17v-5q0 -8 -0.5 -14t-2.5 -6h-83v-28h47q3 0 3 -19q0 -22 -3 -22h-47
v-28h83q3 0 3 -19v-3q0 -19 -3 -19h-125q-1 2 -2 6t-1 16q-2 14 -2 29v32v14q0 20 1.5 41t3.5 42h125zM1400 1153h61q29 0 46.5 -7.5t25.5 -20.5v-8v-9q0 -34 -34 -55q17 -13 25 -25q5 -6 9 -20.5t11 -34.5h-50q-1 2 -2 6q-1 3 -2.5 8t-3.5 13q-17 36 -36 36l-3 -47t-3 -16
h-44v180zM1447 1122q2 -12 2.5 -24t0.5 -23q36 4 36 28q0 19 -39 19zM1619 1153h8q17 0 33 -2l33 -4v-39l-2 -2q-35 8 -56 8h-3q-19 0 -19 -11q0 -4 39 -31q21 -17 32.5 -31t11.5 -27v-3q0 -27 -47 -36q-6 -2 -12 -2h-10h-8h-33.5t-30.5 2l-3 3v42h3q14 -2 26.5 -4t20.5 -2
h6q24 0 24 11q0 7 -44 34q-39 25 -39 52v3q0 14 12.5 23t37.5 16h20zM1757 1153q2 0 6 -53v-39q0 -20 -0.5 -42.5t-5.5 -45.5h-41q-2 0 -2.5 4.5t-0.5 17.5q-2 12 -4 28t-2 33v14q0 20 2 41l4 42h44zM1860 1153h3q29 0 49.5 -11t33.5 -36q4 -8 4.5 -20t0.5 -25
q0 -63 -52 -83q-18 -5 -31 -5h-8q-40 0 -67 30q-8 13 -13.5 27t-5.5 31v6q0 66 66 83q7 2 11 2.5t9 0.5zM1821 1064v-3q0 -31 28 -39q4 -2 8 -2h8q32 0 39 27q3 3 3 17q0 17 -8 25.5t-23 13.5q-2 2 -5.5 2.5t-7.5 0.5q-15 0 -24 -6.5t-15 -18.5q-2 -5 -2.5 -8.5t-0.5 -8.5z
M2009 1156q0 -5 81 -95l14 -16v108v3h39q5 0 5 -50q2 -7 2.5 -15t0.5 -19v-19q0 -19 -2 -39.5l-4 -40.5h-41l-95 110v-108l-2 -2h-39q-1 2 -2 6t-1 16q-2 14 -2.5 29.5t-0.5 34.5v11q0 20 2 41l4 42v3h41zM2334 1153q4 0 8 -53v-39q0 -20 -1.5 -42.5t-3.5 -45.5h-45
q-1 2 -2 5t-1 17q-2 12 -2 28v33v14q0 20 0.5 41t4.5 42h42zM2423 1153h8q17 0 33 -2l33 -4v-39l-2 -2q-37 8 -56 8h-3q-19 0 -19 -11q0 -2 9.5 -10t26.5 -21q47 -33 47 -58v-3q0 -27 -47 -36q-6 -2 -12 -2h-10h-11h-31t-30 2l-3 3v42h3q14 -2 26.5 -4t20.5 -2h5q25 0 25 11
q0 7 -44 34q-39 25 -39 52v3q0 14 12.5 23t37.5 16h20zM-3 828h53q71 0 97 -55l3.5 -19.5t1.5 -16.5q0 -61 -61 -83q-24 -9 -58 -9h-36h-3v181zM38 792q0 -17 1.5 -30.5t1.5 -24.5q0 -13 -1.5 -25.5t-1.5 -29.5h6q28 0 50 22q11 11 11 33q0 38 -36 50q-13 5 -31 5zM241 826
h3q29 0 49.5 -11t33.5 -36q4 -9 4.5 -20.5t0.5 -24.5q0 -63 -52 -83l-16.5 -4t-14.5 -2h-8q-19 0 -36.5 8.5t-30.5 22.5q-11 13 -15 27t-4 31v6q0 65 66 86h20zM202 737v-3q0 -31 28 -39q4 -2 8 -2h6q34 0 41 27q0 2 1.5 7t1.5 10q0 17 -8 26t-23 16h-13q-15 0 -24 -6.5
t-15 -18.5q-2 -5 -2.5 -9t-0.5 -8zM379 826q2 0 7 -13.5l13 -36.5l25 -70l36 95q3 -3 36 -95q1 5 4 13q2 7 6 16.5t9 23.5q6 17 11 29.5l8 20.5q4 10 6 17h50q0 -7 -8 -30l-22 -65q-8 -25 -18 -46t-18 -40h-56q-1 2 -2 5q-1 2 -2.5 6l-3.5 9l-2 -6q-1 -3 -2.5 -6t-3.5 -8
h-53q-2 2 -8 13t-14 32q-11 21 -19.5 49l-19.5 62l-6 25h47zM646 828q0 -2 20 -26t60 -68l14 -16v108v2h41q0 -5 1 -12q1 -6 1.5 -15.5t0.5 -21.5q0 -7 1.5 -15t1.5 -19v-19q0 -19 -2 -39.5l-4 -41.5h-41l-94 111v-108l-3 -3h-39q-1 2 -2 6t-1 17q-2 14 -2.5 29t-0.5 34v11
q0 21 2 42l4 42v2h42zM809 828h44q3 -2 3 -63v-17q0 -13 -0.5 -27t-2.5 -28h73v-3v-45h-117h-3v181zM1017 826h3q57 0 80 -47q9 -18 9 -45q0 -62 -53 -83l-16 -4t-15 -2h-8q-21 0 -38 8.5t-31 22.5q-17 26 -17 58v6q0 65 67 86h19zM978 737v-3q0 -30 25 -39q7 -2 11 -2h6
q17 0 26 6.5t15 20.5q0 2 1.5 7t1.5 10q0 17 -8 26t-22 16h-14q-15 0 -24 -6.5t-15 -18.5q-2 -5 -2.5 -9t-0.5 -8zM1208 828q7 -17 16.5 -36t17.5 -44q8 -21 16 -45t14 -49l3 -9h-42q-2 0 -4.5 8.5t-9.5 22.5h-30h-31q-8 -31 -11 -31h-38h-3l20.5 70t20.5 61q8 14 14.5 28
t10.5 24h36zM1175 718h31l-14 41q-5 0 -17 -41zM1286 828h55q74 0 95 -55l3.5 -19.5t1.5 -16.5q0 -62 -58 -83q-26 -9 -61 -9h-36h-3v181zM1328 792q2 -17 2 -30.5v-24.5v-25.5t-2 -29.5h5q31 0 53 22q11 11 11 33q0 38 -39 50q-13 5 -30 5zM1538 828q8 -17 18 -36t18 -44
q8 -21 16 -45t15 -49v-9h-42q-1 4 -3 8t-3.5 9.5t-4.5 13.5h-30h-31l-3.5 -13.5t-3.5 -9.5l-4 -8h-42q9 38 19 70t23 61l12.5 28t12.5 24h33zM1508 718h30l-16 41q-2 -4 -4 -10q-2 -5 -4.5 -13zM1671 826q83 0 83 -42v-5q0 -29 -36 -42h-2q10 0 19.5 -4.5t16.5 -14.5
q8 -10 8 -28q0 -45 -80 -45h-56q-3 0 -3 23q-2 14 -3.5 29t-1.5 34v11q0 21 1.5 42t3.5 42h50zM1663 803v-47h25q11 0 15.5 3t6.5 11v6v5q0 22 -44 22h-3zM1663 720v-50h8q19 0 28 2.5t14 9.5q0 2 1.5 5.5t1.5 7.5q0 25 -39 25h-14zM1774 828h44q6 -4 6 -63v-17
q0 -13 -0.5 -27t-2.5 -28h69l3 -3v-45h-3h-116v181v2zM2034 826q3 0 3 -17v-6q0 -19 -3 -19h-86v-28h50q0 -2 1 -5q2 -6 2 -14q0 -22 -3 -22h-50v-28h86q3 0 3 -19v-3q0 -20 -3 -20h-124q-3 0 -3 23q-2 14 -2.5 29t-0.5 34v11q0 21 0.5 42t5.5 42h124zM2259 828l16.5 -36
l19.5 -44q8 -21 14.5 -45l13.5 -49l3 -9h-42l-4 8t-3.5 9.5l-3.5 13.5h-33h-28l-5 -13.5t-4 -9.5t-2 -8h-42q8 38 18.5 70t23.5 61l11.5 28t10.5 24h36zM2226 718h30l-14 41q-1 -4 -4 -10l-5 -13zM2375 826h11q21 0 40 -0.5t38 -5.5v-39q0 -5 -58 -5v-131h-3h-44v131
q-29 0 -42.5 1.5t-15.5 3.5v39q0 6 74 6zM38 499v-70h75v70h3h39q1 -5 2 -13q2 -14 3 -40v-36q0 -23 -1.5 -46t-3.5 -46h-39h-3v70h-75v-70h-38q-3 0 -3 23l-4 29t-2 34v11q0 21 2 42l4 42h3h38zM246 499h11q19 0 37.5 -0.5t37.5 -2.5v-42q0 -5 -58 -5v-131h-44v131h-3
q-55 0 -55 5v39q0 6 74 6zM415 499h12q19 0 37 -0.5t37 -2.5v-42q0 -5 -58 -5v-131h-44h-3v131q-53 0 -58 5v39q0 6 77 6zM518 499h61q39 0 61 -17q6 -5 8.5 -10t2.5 -9v-9q0 -41 -47 -58q-19 -8 -36 -8q-2 -21 -3 -38t-3 -32h-44h-3v181h3zM565 468l3 -47q33 4 33 28v2
q0 7 -4.5 11t-17.5 6h-14zM665 457h19v-11v-11h-19q-3 0 -3 3v13q0 6 3 6zM665 377h19v-12v-11h-19q-3 0 -3 6v11q0 6 3 6zM848 487q-13 -31 -27 -59t-31 -57l-34 -52.5l-36 -52.5l-5 2l-8 6l-6 3l27 57.5t31 55.5q15 27 33 54.5l37 54.5l5 -3l8 -6zM998 487
q-13 -31 -27 -59l-29 -57l-34 -52.5t-38 -52.5l-5 2l-9 6l-5 3h2l26 57.5t30 55.5l33.5 54.5t35.5 54.5l6 -3l11 -6zM1139 499q0 -1 1 -4q2 -6 2 -13v-6q0 -8 -2 -14q-1 -3 -1 -5h-86v-31h64v-19v-22h-64v-67h-39q-2 0 -2.5 6t-2.5 17q0 14 -1.5 29t-1.5 34v11q0 21 2 42
l4 42h2h125zM1225 501l16.5 -36l19.5 -44q8 -21 14.5 -45l13.5 -49l2 -9h-41l-4 8t-3.5 9.5l-3.5 13.5h-33h-28l-5 -13.5t-4 -9.5t-2 -8h-42q8 38 18.5 70t23.5 61q6 17 11.5 29l10.5 23h36zM1192 390h30l-14 42q-1 -5 -4 -11l-5 -12.5t-7 -18.5zM1380 499h9q12 0 19.5 -0.5
t7.5 -2.5v-42l-3 -3h-24q-42 0 -53 -27v-14v-3q0 -26 28 -39q6 -2 11.5 -2.5t10.5 -0.5h27l3 -2v-42q0 -3 -22 -3h-14q-41 0 -69 28q-11 13 -16.5 27.5t-5.5 33.5v6q0 55 44 74q13 7 24 9.5t23 2.5zM1502 499h11q19 0 38.5 -0.5t36.5 -2.5v-42q0 -5 -58 -5v-131h-44v131
q-59 0 -59 5v39q0 6 75 6zM1677 499h3q29 0 49.5 -11t33.5 -37q8 -18 8 -44q0 -62 -55 -83l-16.5 -4t-14.5 -2h-8q-36 0 -67 31q-8 12 -13.5 26.5t-5.5 31.5v6q0 65 66 86h20zM1638 410v-3q0 -31 28 -39q4 -2 8 -2.5t8 -0.5q32 0 39 28q2 5 2.5 8.5t0.5 8.5q0 33 -31 41h-13
q-15 0 -24 -6t-15 -19q0 -4 -1.5 -8t-1.5 -8zM1782 499h61q29 0 46 -8t23 -20q1 -2 2 -2.5t1 -2.5v-3v-9q0 -17 -8 -30.5t-25 -21.5l14 -15.5t8 -12.5q6 -7 11 -21t11 -35h-50q-4 0 -8 28q-16 36 -36 36q-2 -16 -2.5 -27.5t-1.5 -19.5q-1 -10 -1 -17h-45h-3v181h3zM1829 468
q2 -13 2.5 -24.5t0.5 -22.5q17 2 26.5 8.5t9.5 19.5v2q0 17 -39 17zM1987 499q1 -5 2 -13q1 -7 1.5 -16.5t2.5 -23.5v-39q0 -21 -2 -43.5l-4 -45.5h-44q-1 1 -2 5t-1 18q-2 12 -2.5 28t-0.5 33v13q0 21 2 42l4 42h44zM2087 499h6q29 0 48 -11t32 -37q5 -8 6.5 -19.5
t1.5 -24.5q0 -63 -52 -83l-16.5 -4t-17.5 -2h-5q-40 0 -69 31q-17 23 -17 58v6q0 65 66 86h17zM2051 410v-3q0 -30 25 -39q6 -2 9 -2.5t8 -0.5q29 0 41 28v17q0 34 -27 41h-14q-32 0 -39 -25q-2 -4 -2.5 -8t-0.5 -8zM2190 338h19v-11v-11h-19q-1 0 -2 1t-1 4v11q0 3 1 4z
M2226 499h44v-111q0 -7 8 -17q5 -5 10.5 -5.5t12.5 -0.5h5q21 0 25 14q3 3 3 9v111h44h3v-117q0 -35 -33 -53q-15 -11 -42 -11h-8q-56 0 -72 45q0 6 -1.5 10.5t-1.5 8.5v117h3zM2464 499h6q17 0 33 -0.5t33 -5.5v-39v-3q-19 5 -31.5 7t-23.5 2h-3q-19 0 -19 -9t36 -33
q44 -32 44 -58v-3q0 -27 -44 -36q-8 -2 -13 -2.5t-10 -0.5h-11q-14 0 -30 0.5t-33 2.5v3v41l29 -3.5t20 -1.5h6q22 0 22 11q0 9 -41 33q-39 27 -39 53v3q0 30 50 39h19z" />
    <glyph glyph-name="two" unicode="2" horiz-adv-x="2599" 
d="M61 1153h14q18 0 36.5 -0.5t37.5 -5.5v-39q0 -5 -58 -5v-130h-44h-3v130q-27 0 -41.5 1.5t-16.5 3.5v39q0 6 75 6zM205 1153h3v-70h74v70h39q6 0 6 -53l3 -36q0 -23 -2 -45.5l-4 -45.5h-42v69h-74v-69h-3h-39v6q0 3 -1 7t-2 9q0 14 -1.5 29t-1.5 32v14q0 20 2 41l4 42h39
zM476 1153q3 0 3 -17v-5q0 -8 -0.5 -14t-2.5 -6h-85v-28h49v-5q0 -7 3 -14q0 -8 -2 -16q-1 -4 -1 -6h-49v-28h85q3 0 3 -19v-3q0 -19 -3 -19h-124q-3 0 -3 22q-2 14 -2.5 29t-0.5 32v14q0 20 0.5 41t5.5 42h124zM729 1147q27 -7 27 -33t-36 -58q-18 -19 -44 -36h80v-47h-152
v47q17 11 32.5 22.5t28.5 24.5q13 11 21 18.5l12 11.5q5 8 1 12.5t-12 4.5q-25 0 -33 -17q-6 -4 -6 -14h-47q0 9 3.5 18.5t7.5 18.5q21 33 70 33q14 0 26.5 -0.5t20.5 -5.5zM768 992h16q2 0 2.5 -3.5t0.5 -7.5q0 -11 -3 -11h-16q-3 0 -3 5v11q0 6 3 6zM831 1144q15 12 42 12
q25 0 44 -12q36 -23 36 -80q0 -60 -36 -80q-11 -7 -20.5 -9t-20.5 -2q-13 0 -25 2t-20 9q-38 21 -38 80q0 56 38 80zM853 1020l10 -4t13 -2q4 0 9.5 2t9.5 4q19 11 19 44q0 30 -19 42q-4 4 -10 4.5t-12 0.5t-10.5 -0.5t-9.5 -4.5q-19 -13 -19 -42q0 -32 19 -44zM1120 1156
q1 0 36 -100l2 -14l16.5 49.5l12.5 35.5l10 29h45q0 -13 -28 -103q-11 -23 -19.5 -43t-19.5 -35q-3 -2 -14 -2h-5q-17 0 -17 2q-13 26 -25 56.5t-25 68.5q-2 13 -5.5 26t-8.5 30h45zM1383 1153q3 0 3 -17v-5q0 -8 -0.5 -14t-2.5 -6h-83v-28h47q3 0 3 -19q0 -22 -3 -22h-47
v-28h83q3 0 3 -19v-3q0 -19 -3 -19h-125q-1 2 -2 6t-1 16q-2 14 -2 29v32v14q0 20 1.5 41t3.5 42h125zM1400 1153h61q29 0 46.5 -7.5t25.5 -20.5v-8v-9q0 -34 -34 -55q17 -13 25 -25q5 -6 9 -20.5t11 -34.5h-50q-1 2 -2 6q-1 3 -2.5 8t-3.5 13q-17 36 -36 36l-3 -47t-3 -16
h-44v180zM1447 1122q2 -12 2.5 -24t0.5 -23q36 4 36 28q0 19 -39 19zM1619 1153h8q17 0 33 -2l33 -4v-39l-2 -2q-35 8 -56 8h-3q-19 0 -19 -11q0 -4 39 -31q21 -17 32.5 -31t11.5 -27v-3q0 -27 -47 -36q-6 -2 -12 -2h-10h-8h-33.5t-30.5 2l-3 3v42h3q14 -2 26.5 -4t20.5 -2
h6q24 0 24 11q0 7 -44 34q-39 25 -39 52v3q0 14 12.5 23t37.5 16h20zM1757 1153q2 0 6 -53v-39q0 -20 -0.5 -42.5t-5.5 -45.5h-41q-2 0 -2.5 4.5t-0.5 17.5q-2 12 -4 28t-2 33v14q0 20 2 41l4 42h44zM1860 1153h3q29 0 49.5 -11t33.5 -36q4 -8 4.5 -20t0.5 -25
q0 -63 -52 -83q-18 -5 -31 -5h-8q-40 0 -67 30q-8 13 -13.5 27t-5.5 31v6q0 66 66 83q7 2 11 2.5t9 0.5zM1821 1064v-3q0 -31 28 -39q4 -2 8 -2h8q32 0 39 27q3 3 3 17q0 17 -8 25.5t-23 13.5q-2 2 -5.5 2.5t-7.5 0.5q-15 0 -24 -6.5t-15 -18.5q-2 -5 -2.5 -8.5t-0.5 -8.5z
M2009 1156q0 -5 81 -95l14 -16v108v3h39q5 0 5 -50q2 -7 2.5 -15t0.5 -19v-19q0 -19 -2 -39.5l-4 -40.5h-41l-95 110v-108l-2 -2h-39q-1 2 -2 6t-1 16q-2 14 -2.5 29.5t-0.5 34.5v11q0 20 2 41l4 42v3h41zM2334 1153q4 0 8 -53v-39q0 -20 -1.5 -42.5t-3.5 -45.5h-45
q-1 2 -2 5t-1 17q-2 12 -2 28v33v14q0 20 0.5 41t4.5 42h42zM2423 1153h8q17 0 33 -2l33 -4v-39l-2 -2q-37 8 -56 8h-3q-19 0 -19 -11q0 -2 9.5 -10t26.5 -21q47 -33 47 -58v-3q0 -27 -47 -36q-6 -2 -12 -2h-10h-11h-31t-30 2l-3 3v42h3q14 -2 26.5 -4t20.5 -2h5q25 0 25 11
q0 7 -44 34q-39 25 -39 52v3q0 14 12.5 23t37.5 16h20zM-3 828h53q71 0 97 -55l3.5 -19.5t1.5 -16.5q0 -61 -61 -83q-24 -9 -58 -9h-36h-3v181zM38 792q0 -17 1.5 -30.5t1.5 -24.5q0 -13 -1.5 -25.5t-1.5 -29.5h6q28 0 50 22q11 11 11 33q0 38 -36 50q-13 5 -31 5zM241 826
h3q29 0 49.5 -11t33.5 -36q4 -9 4.5 -20.5t0.5 -24.5q0 -63 -52 -83l-16.5 -4t-14.5 -2h-8q-19 0 -36.5 8.5t-30.5 22.5q-11 13 -15 27t-4 31v6q0 65 66 86h20zM202 737v-3q0 -31 28 -39q4 -2 8 -2h6q34 0 41 27q0 2 1.5 7t1.5 10q0 17 -8 26t-23 16h-13q-15 0 -24 -6.5
t-15 -18.5q-2 -5 -2.5 -9t-0.5 -8zM379 826q2 0 7 -13.5l13 -36.5l25 -70l36 95q3 -3 36 -95q1 5 4 13q2 7 6 16.5t9 23.5q6 17 11 29.5l8 20.5q4 10 6 17h50q0 -7 -8 -30l-22 -65q-8 -25 -18 -46t-18 -40h-56q-1 2 -2 5q-1 2 -2.5 6l-3.5 9l-2 -6q-1 -3 -2.5 -6t-3.5 -8
h-53q-2 2 -8 13t-14 32q-11 21 -19.5 49l-19.5 62l-6 25h47zM646 828q0 -2 20 -26t60 -68l14 -16v108v2h41q0 -5 1 -12q1 -6 1.5 -15.5t0.5 -21.5q0 -7 1.5 -15t1.5 -19v-19q0 -19 -2 -39.5l-4 -41.5h-41l-94 111v-108l-3 -3h-39q-1 2 -2 6t-1 17q-2 14 -2.5 29t-0.5 34v11
q0 21 2 42l4 42v2h42zM809 828h44q3 -2 3 -63v-17q0 -13 -0.5 -27t-2.5 -28h73v-3v-45h-117h-3v181zM1017 826h3q57 0 80 -47q9 -18 9 -45q0 -62 -53 -83l-16 -4t-15 -2h-8q-21 0 -38 8.5t-31 22.5q-17 26 -17 58v6q0 65 67 86h19zM978 737v-3q0 -30 25 -39q7 -2 11 -2h6
q17 0 26 6.5t15 20.5q0 2 1.5 7t1.5 10q0 17 -8 26t-22 16h-14q-15 0 -24 -6.5t-15 -18.5q-2 -5 -2.5 -9t-0.5 -8zM1208 828q7 -17 16.5 -36t17.5 -44q8 -21 16 -45t14 -49l3 -9h-42q-2 0 -4.5 8.5t-9.5 22.5h-30h-31q-8 -31 -11 -31h-38h-3l20.5 70t20.5 61q8 14 14.5 28
t10.5 24h36zM1175 718h31l-14 41q-5 0 -17 -41zM1286 828h55q74 0 95 -55l3.5 -19.5t1.5 -16.5q0 -62 -58 -83q-26 -9 -61 -9h-36h-3v181zM1328 792q2 -17 2 -30.5v-24.5v-25.5t-2 -29.5h5q31 0 53 22q11 11 11 33q0 38 -39 50q-13 5 -30 5zM1538 828q8 -17 18 -36t18 -44
q8 -21 16 -45t15 -49v-9h-42q-1 4 -3 8t-3.5 9.5t-4.5 13.5h-30h-31l-3.5 -13.5t-3.5 -9.5l-4 -8h-42q9 38 19 70t23 61l12.5 28t12.5 24h33zM1508 718h30l-16 41q-2 -4 -4 -10q-2 -5 -4.5 -13zM1671 826q83 0 83 -42v-5q0 -29 -36 -42h-2q10 0 19.5 -4.5t16.5 -14.5
q8 -10 8 -28q0 -45 -80 -45h-56q-3 0 -3 23q-2 14 -3.5 29t-1.5 34v11q0 21 1.5 42t3.5 42h50zM1663 803v-47h25q11 0 15.5 3t6.5 11v6v5q0 22 -44 22h-3zM1663 720v-50h8q19 0 28 2.5t14 9.5q0 2 1.5 5.5t1.5 7.5q0 25 -39 25h-14zM1774 828h44q6 -4 6 -63v-17
q0 -13 -0.5 -27t-2.5 -28h69l3 -3v-45h-3h-116v181v2zM2034 826q3 0 3 -17v-6q0 -19 -3 -19h-86v-28h50q0 -2 1 -5q2 -6 2 -14q0 -22 -3 -22h-50v-28h86q3 0 3 -19v-3q0 -20 -3 -20h-124q-3 0 -3 23q-2 14 -2.5 29t-0.5 34v11q0 21 0.5 42t5.5 42h124zM2259 828l16.5 -36
l19.5 -44q8 -21 14.5 -45l13.5 -49l3 -9h-42l-4 8t-3.5 9.5l-3.5 13.5h-33h-28l-5 -13.5t-4 -9.5t-2 -8h-42q8 38 18.5 70t23.5 61l11.5 28t10.5 24h36zM2226 718h30l-14 41q-1 -4 -4 -10l-5 -13zM2375 826h11q21 0 40 -0.5t38 -5.5v-39q0 -5 -58 -5v-131h-3h-44v131
q-29 0 -42.5 1.5t-15.5 3.5v39q0 6 74 6zM38 499v-70h75v70h3h39q1 -5 2 -13q2 -14 3 -40v-36q0 -23 -1.5 -46t-3.5 -46h-39h-3v70h-75v-70h-38q-3 0 -3 23l-4 29t-2 34v11q0 21 2 42l4 42h3h38zM246 499h11q19 0 37.5 -0.5t37.5 -2.5v-42q0 -5 -58 -5v-131h-44v131h-3
q-55 0 -55 5v39q0 6 74 6zM415 499h12q19 0 37 -0.5t37 -2.5v-42q0 -5 -58 -5v-131h-44h-3v131q-53 0 -58 5v39q0 6 77 6zM518 499h61q39 0 61 -17q6 -5 8.5 -10t2.5 -9v-9q0 -41 -47 -58q-19 -8 -36 -8q-2 -21 -3 -38t-3 -32h-44h-3v181h3zM565 468l3 -47q33 4 33 28v2
q0 7 -4.5 11t-17.5 6h-14zM665 457h19v-11v-11h-19q-3 0 -3 3v13q0 6 3 6zM665 377h19v-12v-11h-19q-3 0 -3 6v11q0 6 3 6zM848 487q-13 -31 -27 -59t-31 -57l-34 -52.5l-36 -52.5l-5 2l-8 6l-6 3l27 57.5t31 55.5q15 27 33 54.5l37 54.5l5 -3l8 -6zM998 487
q-13 -31 -27 -59l-29 -57l-34 -52.5t-38 -52.5l-5 2l-9 6l-5 3h2l26 57.5t30 55.5l33.5 54.5t35.5 54.5l6 -3l11 -6zM1139 499q0 -1 1 -4q2 -6 2 -13v-6q0 -8 -2 -14q-1 -3 -1 -5h-86v-31h64v-19v-22h-64v-67h-39q-2 0 -2.5 6t-2.5 17q0 14 -1.5 29t-1.5 34v11q0 21 2 42
l4 42h2h125zM1225 501l16.5 -36l19.5 -44q8 -21 14.5 -45l13.5 -49l2 -9h-41l-4 8t-3.5 9.5l-3.5 13.5h-33h-28l-5 -13.5t-4 -9.5t-2 -8h-42q8 38 18.5 70t23.5 61q6 17 11.5 29l10.5 23h36zM1192 390h30l-14 42q-1 -5 -4 -11l-5 -12.5t-7 -18.5zM1380 499h9q12 0 19.5 -0.5
t7.5 -2.5v-42l-3 -3h-24q-42 0 -53 -27v-14v-3q0 -26 28 -39q6 -2 11.5 -2.5t10.5 -0.5h27l3 -2v-42q0 -3 -22 -3h-14q-41 0 -69 28q-11 13 -16.5 27.5t-5.5 33.5v6q0 55 44 74q13 7 24 9.5t23 2.5zM1502 499h11q19 0 38.5 -0.5t36.5 -2.5v-42q0 -5 -58 -5v-131h-44v131
q-59 0 -59 5v39q0 6 75 6zM1677 499h3q29 0 49.5 -11t33.5 -37q8 -18 8 -44q0 -62 -55 -83l-16.5 -4t-14.5 -2h-8q-36 0 -67 31q-8 12 -13.5 26.5t-5.5 31.5v6q0 65 66 86h20zM1638 410v-3q0 -31 28 -39q4 -2 8 -2.5t8 -0.5q32 0 39 28q2 5 2.5 8.5t0.5 8.5q0 33 -31 41h-13
q-15 0 -24 -6t-15 -19q0 -4 -1.5 -8t-1.5 -8zM1782 499h61q29 0 46 -8t23 -20q1 -2 2 -2.5t1 -2.5v-3v-9q0 -17 -8 -30.5t-25 -21.5l14 -15.5t8 -12.5q6 -7 11 -21t11 -35h-50q-4 0 -8 28q-16 36 -36 36q-2 -16 -2.5 -27.5t-1.5 -19.5q-1 -10 -1 -17h-45h-3v181h3zM1829 468
q2 -13 2.5 -24.5t0.5 -22.5q17 2 26.5 8.5t9.5 19.5v2q0 17 -39 17zM1987 499q1 -5 2 -13q1 -7 1.5 -16.5t2.5 -23.5v-39q0 -21 -2 -43.5l-4 -45.5h-44q-1 1 -2 5t-1 18q-2 12 -2.5 28t-0.5 33v13q0 21 2 42l4 42h44zM2087 499h6q29 0 48 -11t32 -37q5 -8 6.5 -19.5
t1.5 -24.5q0 -63 -52 -83l-16.5 -4t-17.5 -2h-5q-40 0 -69 31q-17 23 -17 58v6q0 65 66 86h17zM2051 410v-3q0 -30 25 -39q6 -2 9 -2.5t8 -0.5q29 0 41 28v17q0 34 -27 41h-14q-32 0 -39 -25q-2 -4 -2.5 -8t-0.5 -8zM2190 338h19v-11v-11h-19q-1 0 -2 1t-1 4v11q0 3 1 4z
M2226 499h44v-111q0 -7 8 -17q5 -5 10.5 -5.5t12.5 -0.5h5q21 0 25 14q3 3 3 9v111h44h3v-117q0 -35 -33 -53q-15 -11 -42 -11h-8q-56 0 -72 45q0 6 -1.5 10.5t-1.5 8.5v117h3zM2464 499h6q17 0 33 -0.5t33 -5.5v-39v-3q-19 5 -31.5 7t-23.5 2h-3q-19 0 -19 -9t36 -33
q44 -32 44 -58v-3q0 -27 -44 -36q-8 -2 -13 -2.5t-10 -0.5h-11q-14 0 -30 0.5t-33 2.5v3v41l29 -3.5t20 -1.5h6q22 0 22 11q0 9 -41 33q-39 27 -39 53v3q0 30 50 39h19z" />
    <glyph glyph-name="three" unicode="3" horiz-adv-x="2599" 
d="M61 1153h14q18 0 36.5 -0.5t37.5 -5.5v-39q0 -5 -58 -5v-130h-44h-3v130q-27 0 -41.5 1.5t-16.5 3.5v39q0 6 75 6zM205 1153h3v-70h74v70h39q6 0 6 -53l3 -36q0 -23 -2 -45.5l-4 -45.5h-42v69h-74v-69h-3h-39v6q0 3 -1 7t-2 9q0 14 -1.5 29t-1.5 32v14q0 20 2 41l4 42h39
zM476 1153q3 0 3 -17v-5q0 -8 -0.5 -14t-2.5 -6h-85v-28h49v-5q0 -7 3 -14q0 -8 -2 -16q-1 -4 -1 -6h-49v-28h85q3 0 3 -19v-3q0 -19 -3 -19h-124q-3 0 -3 22q-2 14 -2.5 29t-0.5 32v14q0 20 0.5 41t5.5 42h124zM729 1147q27 -7 27 -33t-36 -58q-18 -19 -44 -36h80v-47h-152
v47q17 11 32.5 22.5t28.5 24.5q13 11 21 18.5l12 11.5q5 8 1 12.5t-12 4.5q-25 0 -33 -17q-6 -4 -6 -14h-47q0 9 3.5 18.5t7.5 18.5q21 33 70 33q14 0 26.5 -0.5t20.5 -5.5zM768 992h16q2 0 2.5 -3.5t0.5 -7.5q0 -11 -3 -11h-16q-3 0 -3 5v11q0 6 3 6zM831 1144q15 12 42 12
q25 0 44 -12q36 -23 36 -80q0 -60 -36 -80q-11 -7 -20.5 -9t-20.5 -2q-13 0 -25 2t-20 9q-38 21 -38 80q0 56 38 80zM853 1020l10 -4t13 -2q4 0 9.5 2t9.5 4q19 11 19 44q0 30 -19 42q-4 4 -10 4.5t-12 0.5t-10.5 -0.5t-9.5 -4.5q-19 -13 -19 -42q0 -32 19 -44zM1120 1156
q1 0 36 -100l2 -14l16.5 49.5l12.5 35.5l10 29h45q0 -13 -28 -103q-11 -23 -19.5 -43t-19.5 -35q-3 -2 -14 -2h-5q-17 0 -17 2q-13 26 -25 56.5t-25 68.5q-2 13 -5.5 26t-8.5 30h45zM1383 1153q3 0 3 -17v-5q0 -8 -0.5 -14t-2.5 -6h-83v-28h47q3 0 3 -19q0 -22 -3 -22h-47
v-28h83q3 0 3 -19v-3q0 -19 -3 -19h-125q-1 2 -2 6t-1 16q-2 14 -2 29v32v14q0 20 1.5 41t3.5 42h125zM1400 1153h61q29 0 46.5 -7.5t25.5 -20.5v-8v-9q0 -34 -34 -55q17 -13 25 -25q5 -6 9 -20.5t11 -34.5h-50q-1 2 -2 6q-1 3 -2.5 8t-3.5 13q-17 36 -36 36l-3 -47t-3 -16
h-44v180zM1447 1122q2 -12 2.5 -24t0.5 -23q36 4 36 28q0 19 -39 19zM1619 1153h8q17 0 33 -2l33 -4v-39l-2 -2q-35 8 -56 8h-3q-19 0 -19 -11q0 -4 39 -31q21 -17 32.5 -31t11.5 -27v-3q0 -27 -47 -36q-6 -2 -12 -2h-10h-8h-33.5t-30.5 2l-3 3v42h3q14 -2 26.5 -4t20.5 -2
h6q24 0 24 11q0 7 -44 34q-39 25 -39 52v3q0 14 12.5 23t37.5 16h20zM1757 1153q2 0 6 -53v-39q0 -20 -0.5 -42.5t-5.5 -45.5h-41q-2 0 -2.5 4.5t-0.5 17.5q-2 12 -4 28t-2 33v14q0 20 2 41l4 42h44zM1860 1153h3q29 0 49.5 -11t33.5 -36q4 -8 4.5 -20t0.5 -25
q0 -63 -52 -83q-18 -5 -31 -5h-8q-40 0 -67 30q-8 13 -13.5 27t-5.5 31v6q0 66 66 83q7 2 11 2.5t9 0.5zM1821 1064v-3q0 -31 28 -39q4 -2 8 -2h8q32 0 39 27q3 3 3 17q0 17 -8 25.5t-23 13.5q-2 2 -5.5 2.5t-7.5 0.5q-15 0 -24 -6.5t-15 -18.5q-2 -5 -2.5 -8.5t-0.5 -8.5z
M2009 1156q0 -5 81 -95l14 -16v108v3h39q5 0 5 -50q2 -7 2.5 -15t0.5 -19v-19q0 -19 -2 -39.5l-4 -40.5h-41l-95 110v-108l-2 -2h-39q-1 2 -2 6t-1 16q-2 14 -2.5 29.5t-0.5 34.5v11q0 20 2 41l4 42v3h41zM2334 1153q4 0 8 -53v-39q0 -20 -1.5 -42.5t-3.5 -45.5h-45
q-1 2 -2 5t-1 17q-2 12 -2 28v33v14q0 20 0.5 41t4.5 42h42zM2423 1153h8q17 0 33 -2l33 -4v-39l-2 -2q-37 8 -56 8h-3q-19 0 -19 -11q0 -2 9.5 -10t26.5 -21q47 -33 47 -58v-3q0 -27 -47 -36q-6 -2 -12 -2h-10h-11h-31t-30 2l-3 3v42h3q14 -2 26.5 -4t20.5 -2h5q25 0 25 11
q0 7 -44 34q-39 25 -39 52v3q0 14 12.5 23t37.5 16h20zM-3 828h53q71 0 97 -55l3.5 -19.5t1.5 -16.5q0 -61 -61 -83q-24 -9 -58 -9h-36h-3v181zM38 792q0 -17 1.5 -30.5t1.5 -24.5q0 -13 -1.5 -25.5t-1.5 -29.5h6q28 0 50 22q11 11 11 33q0 38 -36 50q-13 5 -31 5zM241 826
h3q29 0 49.5 -11t33.5 -36q4 -9 4.5 -20.5t0.5 -24.5q0 -63 -52 -83l-16.5 -4t-14.5 -2h-8q-19 0 -36.5 8.5t-30.5 22.5q-11 13 -15 27t-4 31v6q0 65 66 86h20zM202 737v-3q0 -31 28 -39q4 -2 8 -2h6q34 0 41 27q0 2 1.5 7t1.5 10q0 17 -8 26t-23 16h-13q-15 0 -24 -6.5
t-15 -18.5q-2 -5 -2.5 -9t-0.5 -8zM379 826q2 0 7 -13.5l13 -36.5l25 -70l36 95q3 -3 36 -95q1 5 4 13q2 7 6 16.5t9 23.5q6 17 11 29.5l8 20.5q4 10 6 17h50q0 -7 -8 -30l-22 -65q-8 -25 -18 -46t-18 -40h-56q-1 2 -2 5q-1 2 -2.5 6l-3.5 9l-2 -6q-1 -3 -2.5 -6t-3.5 -8
h-53q-2 2 -8 13t-14 32q-11 21 -19.5 49l-19.5 62l-6 25h47zM646 828q0 -2 20 -26t60 -68l14 -16v108v2h41q0 -5 1 -12q1 -6 1.5 -15.5t0.5 -21.5q0 -7 1.5 -15t1.5 -19v-19q0 -19 -2 -39.5l-4 -41.5h-41l-94 111v-108l-3 -3h-39q-1 2 -2 6t-1 17q-2 14 -2.5 29t-0.5 34v11
q0 21 2 42l4 42v2h42zM809 828h44q3 -2 3 -63v-17q0 -13 -0.5 -27t-2.5 -28h73v-3v-45h-117h-3v181zM1017 826h3q57 0 80 -47q9 -18 9 -45q0 -62 -53 -83l-16 -4t-15 -2h-8q-21 0 -38 8.5t-31 22.5q-17 26 -17 58v6q0 65 67 86h19zM978 737v-3q0 -30 25 -39q7 -2 11 -2h6
q17 0 26 6.5t15 20.5q0 2 1.5 7t1.5 10q0 17 -8 26t-22 16h-14q-15 0 -24 -6.5t-15 -18.5q-2 -5 -2.5 -9t-0.5 -8zM1208 828q7 -17 16.5 -36t17.5 -44q8 -21 16 -45t14 -49l3 -9h-42q-2 0 -4.5 8.5t-9.5 22.5h-30h-31q-8 -31 -11 -31h-38h-3l20.5 70t20.5 61q8 14 14.5 28
t10.5 24h36zM1175 718h31l-14 41q-5 0 -17 -41zM1286 828h55q74 0 95 -55l3.5 -19.5t1.5 -16.5q0 -62 -58 -83q-26 -9 -61 -9h-36h-3v181zM1328 792q2 -17 2 -30.5v-24.5v-25.5t-2 -29.5h5q31 0 53 22q11 11 11 33q0 38 -39 50q-13 5 -30 5zM1538 828q8 -17 18 -36t18 -44
q8 -21 16 -45t15 -49v-9h-42q-1 4 -3 8t-3.5 9.5t-4.5 13.5h-30h-31l-3.5 -13.5t-3.5 -9.5l-4 -8h-42q9 38 19 70t23 61l12.5 28t12.5 24h33zM1508 718h30l-16 41q-2 -4 -4 -10q-2 -5 -4.5 -13zM1671 826q83 0 83 -42v-5q0 -29 -36 -42h-2q10 0 19.5 -4.5t16.5 -14.5
q8 -10 8 -28q0 -45 -80 -45h-56q-3 0 -3 23q-2 14 -3.5 29t-1.5 34v11q0 21 1.5 42t3.5 42h50zM1663 803v-47h25q11 0 15.5 3t6.5 11v6v5q0 22 -44 22h-3zM1663 720v-50h8q19 0 28 2.5t14 9.5q0 2 1.5 5.5t1.5 7.5q0 25 -39 25h-14zM1774 828h44q6 -4 6 -63v-17
q0 -13 -0.5 -27t-2.5 -28h69l3 -3v-45h-3h-116v181v2zM2034 826q3 0 3 -17v-6q0 -19 -3 -19h-86v-28h50q0 -2 1 -5q2 -6 2 -14q0 -22 -3 -22h-50v-28h86q3 0 3 -19v-3q0 -20 -3 -20h-124q-3 0 -3 23q-2 14 -2.5 29t-0.5 34v11q0 21 0.5 42t5.5 42h124zM2259 828l16.5 -36
l19.5 -44q8 -21 14.5 -45l13.5 -49l3 -9h-42l-4 8t-3.5 9.5l-3.5 13.5h-33h-28l-5 -13.5t-4 -9.5t-2 -8h-42q8 38 18.5 70t23.5 61l11.5 28t10.5 24h36zM2226 718h30l-14 41q-1 -4 -4 -10l-5 -13zM2375 826h11q21 0 40 -0.5t38 -5.5v-39q0 -5 -58 -5v-131h-3h-44v131
q-29 0 -42.5 1.5t-15.5 3.5v39q0 6 74 6zM38 499v-70h75v70h3h39q1 -5 2 -13q2 -14 3 -40v-36q0 -23 -1.5 -46t-3.5 -46h-39h-3v70h-75v-70h-38q-3 0 -3 23l-4 29t-2 34v11q0 21 2 42l4 42h3h38zM246 499h11q19 0 37.5 -0.5t37.5 -2.5v-42q0 -5 -58 -5v-131h-44v131h-3
q-55 0 -55 5v39q0 6 74 6zM415 499h12q19 0 37 -0.5t37 -2.5v-42q0 -5 -58 -5v-131h-44h-3v131q-53 0 -58 5v39q0 6 77 6zM518 499h61q39 0 61 -17q6 -5 8.5 -10t2.5 -9v-9q0 -41 -47 -58q-19 -8 -36 -8q-2 -21 -3 -38t-3 -32h-44h-3v181h3zM565 468l3 -47q33 4 33 28v2
q0 7 -4.5 11t-17.5 6h-14zM665 457h19v-11v-11h-19q-3 0 -3 3v13q0 6 3 6zM665 377h19v-12v-11h-19q-3 0 -3 6v11q0 6 3 6zM848 487q-13 -31 -27 -59t-31 -57l-34 -52.5l-36 -52.5l-5 2l-8 6l-6 3l27 57.5t31 55.5q15 27 33 54.5l37 54.5l5 -3l8 -6zM998 487
q-13 -31 -27 -59l-29 -57l-34 -52.5t-38 -52.5l-5 2l-9 6l-5 3h2l26 57.5t30 55.5l33.5 54.5t35.5 54.5l6 -3l11 -6zM1139 499q0 -1 1 -4q2 -6 2 -13v-6q0 -8 -2 -14q-1 -3 -1 -5h-86v-31h64v-19v-22h-64v-67h-39q-2 0 -2.5 6t-2.5 17q0 14 -1.5 29t-1.5 34v11q0 21 2 42
l4 42h2h125zM1225 501l16.5 -36l19.5 -44q8 -21 14.5 -45l13.5 -49l2 -9h-41l-4 8t-3.5 9.5l-3.5 13.5h-33h-28l-5 -13.5t-4 -9.5t-2 -8h-42q8 38 18.5 70t23.5 61q6 17 11.5 29l10.5 23h36zM1192 390h30l-14 42q-1 -5 -4 -11l-5 -12.5t-7 -18.5zM1380 499h9q12 0 19.5 -0.5
t7.5 -2.5v-42l-3 -3h-24q-42 0 -53 -27v-14v-3q0 -26 28 -39q6 -2 11.5 -2.5t10.5 -0.5h27l3 -2v-42q0 -3 -22 -3h-14q-41 0 -69 28q-11 13 -16.5 27.5t-5.5 33.5v6q0 55 44 74q13 7 24 9.5t23 2.5zM1502 499h11q19 0 38.5 -0.5t36.5 -2.5v-42q0 -5 -58 -5v-131h-44v131
q-59 0 -59 5v39q0 6 75 6zM1677 499h3q29 0 49.5 -11t33.5 -37q8 -18 8 -44q0 -62 -55 -83l-16.5 -4t-14.5 -2h-8q-36 0 -67 31q-8 12 -13.5 26.5t-5.5 31.5v6q0 65 66 86h20zM1638 410v-3q0 -31 28 -39q4 -2 8 -2.5t8 -0.5q32 0 39 28q2 5 2.5 8.5t0.5 8.5q0 33 -31 41h-13
q-15 0 -24 -6t-15 -19q0 -4 -1.5 -8t-1.5 -8zM1782 499h61q29 0 46 -8t23 -20q1 -2 2 -2.5t1 -2.5v-3v-9q0 -17 -8 -30.5t-25 -21.5l14 -15.5t8 -12.5q6 -7 11 -21t11 -35h-50q-4 0 -8 28q-16 36 -36 36q-2 -16 -2.5 -27.5t-1.5 -19.5q-1 -10 -1 -17h-45h-3v181h3zM1829 468
q2 -13 2.5 -24.5t0.5 -22.5q17 2 26.5 8.5t9.5 19.5v2q0 17 -39 17zM1987 499q1 -5 2 -13q1 -7 1.5 -16.5t2.5 -23.5v-39q0 -21 -2 -43.5l-4 -45.5h-44q-1 1 -2 5t-1 18q-2 12 -2.5 28t-0.5 33v13q0 21 2 42l4 42h44zM2087 499h6q29 0 48 -11t32 -37q5 -8 6.5 -19.5
t1.5 -24.5q0 -63 -52 -83l-16.5 -4t-17.5 -2h-5q-40 0 -69 31q-17 23 -17 58v6q0 65 66 86h17zM2051 410v-3q0 -30 25 -39q6 -2 9 -2.5t8 -0.5q29 0 41 28v17q0 34 -27 41h-14q-32 0 -39 -25q-2 -4 -2.5 -8t-0.5 -8zM2190 338h19v-11v-11h-19q-1 0 -2 1t-1 4v11q0 3 1 4z
M2226 499h44v-111q0 -7 8 -17q5 -5 10.5 -5.5t12.5 -0.5h5q21 0 25 14q3 3 3 9v111h44h3v-117q0 -35 -33 -53q-15 -11 -42 -11h-8q-56 0 -72 45q0 6 -1.5 10.5t-1.5 8.5v117h3zM2464 499h6q17 0 33 -0.5t33 -5.5v-39v-3q-19 5 -31.5 7t-23.5 2h-3q-19 0 -19 -9t36 -33
q44 -32 44 -58v-3q0 -27 -44 -36q-8 -2 -13 -2.5t-10 -0.5h-11q-14 0 -30 0.5t-33 2.5v3v41l29 -3.5t20 -1.5h6q22 0 22 11q0 9 -41 33q-39 27 -39 53v3q0 30 50 39h19z" />
    <glyph glyph-name="four" unicode="4" horiz-adv-x="2599" 
d="M61 1153h14q18 0 36.5 -0.5t37.5 -5.5v-39q0 -5 -58 -5v-130h-44h-3v130q-27 0 -41.5 1.5t-16.5 3.5v39q0 6 75 6zM205 1153h3v-70h74v70h39q6 0 6 -53l3 -36q0 -23 -2 -45.5l-4 -45.5h-42v69h-74v-69h-3h-39v6q0 3 -1 7t-2 9q0 14 -1.5 29t-1.5 32v14q0 20 2 41l4 42h39
zM476 1153q3 0 3 -17v-5q0 -8 -0.5 -14t-2.5 -6h-85v-28h49v-5q0 -7 3 -14q0 -8 -2 -16q-1 -4 -1 -6h-49v-28h85q3 0 3 -19v-3q0 -19 -3 -19h-124q-3 0 -3 22q-2 14 -2.5 29t-0.5 32v14q0 20 0.5 41t5.5 42h124zM729 1147q27 -7 27 -33t-36 -58q-18 -19 -44 -36h80v-47h-152
v47q17 11 32.5 22.5t28.5 24.5q13 11 21 18.5l12 11.5q5 8 1 12.5t-12 4.5q-25 0 -33 -17q-6 -4 -6 -14h-47q0 9 3.5 18.5t7.5 18.5q21 33 70 33q14 0 26.5 -0.5t20.5 -5.5zM768 992h16q2 0 2.5 -3.5t0.5 -7.5q0 -11 -3 -11h-16q-3 0 -3 5v11q0 6 3 6zM831 1144q15 12 42 12
q25 0 44 -12q36 -23 36 -80q0 -60 -36 -80q-11 -7 -20.5 -9t-20.5 -2q-13 0 -25 2t-20 9q-38 21 -38 80q0 56 38 80zM853 1020l10 -4t13 -2q4 0 9.5 2t9.5 4q19 11 19 44q0 30 -19 42q-4 4 -10 4.5t-12 0.5t-10.5 -0.5t-9.5 -4.5q-19 -13 -19 -42q0 -32 19 -44zM1120 1156
q1 0 36 -100l2 -14l16.5 49.5l12.5 35.5l10 29h45q0 -13 -28 -103q-11 -23 -19.5 -43t-19.5 -35q-3 -2 -14 -2h-5q-17 0 -17 2q-13 26 -25 56.5t-25 68.5q-2 13 -5.5 26t-8.5 30h45zM1383 1153q3 0 3 -17v-5q0 -8 -0.5 -14t-2.5 -6h-83v-28h47q3 0 3 -19q0 -22 -3 -22h-47
v-28h83q3 0 3 -19v-3q0 -19 -3 -19h-125q-1 2 -2 6t-1 16q-2 14 -2 29v32v14q0 20 1.5 41t3.5 42h125zM1400 1153h61q29 0 46.5 -7.5t25.5 -20.5v-8v-9q0 -34 -34 -55q17 -13 25 -25q5 -6 9 -20.5t11 -34.5h-50q-1 2 -2 6q-1 3 -2.5 8t-3.5 13q-17 36 -36 36l-3 -47t-3 -16
h-44v180zM1447 1122q2 -12 2.5 -24t0.5 -23q36 4 36 28q0 19 -39 19zM1619 1153h8q17 0 33 -2l33 -4v-39l-2 -2q-35 8 -56 8h-3q-19 0 -19 -11q0 -4 39 -31q21 -17 32.5 -31t11.5 -27v-3q0 -27 -47 -36q-6 -2 -12 -2h-10h-8h-33.5t-30.5 2l-3 3v42h3q14 -2 26.5 -4t20.5 -2
h6q24 0 24 11q0 7 -44 34q-39 25 -39 52v3q0 14 12.5 23t37.5 16h20zM1757 1153q2 0 6 -53v-39q0 -20 -0.5 -42.5t-5.5 -45.5h-41q-2 0 -2.5 4.5t-0.5 17.5q-2 12 -4 28t-2 33v14q0 20 2 41l4 42h44zM1860 1153h3q29 0 49.5 -11t33.5 -36q4 -8 4.5 -20t0.5 -25
q0 -63 -52 -83q-18 -5 -31 -5h-8q-40 0 -67 30q-8 13 -13.5 27t-5.5 31v6q0 66 66 83q7 2 11 2.5t9 0.5zM1821 1064v-3q0 -31 28 -39q4 -2 8 -2h8q32 0 39 27q3 3 3 17q0 17 -8 25.5t-23 13.5q-2 2 -5.5 2.5t-7.5 0.5q-15 0 -24 -6.5t-15 -18.5q-2 -5 -2.5 -8.5t-0.5 -8.5z
M2009 1156q0 -5 81 -95l14 -16v108v3h39q5 0 5 -50q2 -7 2.5 -15t0.5 -19v-19q0 -19 -2 -39.5l-4 -40.5h-41l-95 110v-108l-2 -2h-39q-1 2 -2 6t-1 16q-2 14 -2.5 29.5t-0.5 34.5v11q0 20 2 41l4 42v3h41zM2334 1153q4 0 8 -53v-39q0 -20 -1.5 -42.5t-3.5 -45.5h-45
q-1 2 -2 5t-1 17q-2 12 -2 28v33v14q0 20 0.5 41t4.5 42h42zM2423 1153h8q17 0 33 -2l33 -4v-39l-2 -2q-37 8 -56 8h-3q-19 0 -19 -11q0 -2 9.5 -10t26.5 -21q47 -33 47 -58v-3q0 -27 -47 -36q-6 -2 -12 -2h-10h-11h-31t-30 2l-3 3v42h3q14 -2 26.5 -4t20.5 -2h5q25 0 25 11
q0 7 -44 34q-39 25 -39 52v3q0 14 12.5 23t37.5 16h20zM-3 828h53q71 0 97 -55l3.5 -19.5t1.5 -16.5q0 -61 -61 -83q-24 -9 -58 -9h-36h-3v181zM38 792q0 -17 1.5 -30.5t1.5 -24.5q0 -13 -1.5 -25.5t-1.5 -29.5h6q28 0 50 22q11 11 11 33q0 38 -36 50q-13 5 -31 5zM241 826
h3q29 0 49.5 -11t33.5 -36q4 -9 4.5 -20.5t0.5 -24.5q0 -63 -52 -83l-16.5 -4t-14.5 -2h-8q-19 0 -36.5 8.5t-30.5 22.5q-11 13 -15 27t-4 31v6q0 65 66 86h20zM202 737v-3q0 -31 28 -39q4 -2 8 -2h6q34 0 41 27q0 2 1.5 7t1.5 10q0 17 -8 26t-23 16h-13q-15 0 -24 -6.5
t-15 -18.5q-2 -5 -2.5 -9t-0.5 -8zM379 826q2 0 7 -13.5l13 -36.5l25 -70l36 95q3 -3 36 -95q1 5 4 13q2 7 6 16.5t9 23.5q6 17 11 29.5l8 20.5q4 10 6 17h50q0 -7 -8 -30l-22 -65q-8 -25 -18 -46t-18 -40h-56q-1 2 -2 5q-1 2 -2.5 6l-3.5 9l-2 -6q-1 -3 -2.5 -6t-3.5 -8
h-53q-2 2 -8 13t-14 32q-11 21 -19.5 49l-19.5 62l-6 25h47zM646 828q0 -2 20 -26t60 -68l14 -16v108v2h41q0 -5 1 -12q1 -6 1.5 -15.5t0.5 -21.5q0 -7 1.5 -15t1.5 -19v-19q0 -19 -2 -39.5l-4 -41.5h-41l-94 111v-108l-3 -3h-39q-1 2 -2 6t-1 17q-2 14 -2.5 29t-0.5 34v11
q0 21 2 42l4 42v2h42zM809 828h44q3 -2 3 -63v-17q0 -13 -0.5 -27t-2.5 -28h73v-3v-45h-117h-3v181zM1017 826h3q57 0 80 -47q9 -18 9 -45q0 -62 -53 -83l-16 -4t-15 -2h-8q-21 0 -38 8.5t-31 22.5q-17 26 -17 58v6q0 65 67 86h19zM978 737v-3q0 -30 25 -39q7 -2 11 -2h6
q17 0 26 6.5t15 20.5q0 2 1.5 7t1.5 10q0 17 -8 26t-22 16h-14q-15 0 -24 -6.5t-15 -18.5q-2 -5 -2.5 -9t-0.5 -8zM1208 828q7 -17 16.5 -36t17.5 -44q8 -21 16 -45t14 -49l3 -9h-42q-2 0 -4.5 8.5t-9.5 22.5h-30h-31q-8 -31 -11 -31h-38h-3l20.5 70t20.5 61q8 14 14.5 28
t10.5 24h36zM1175 718h31l-14 41q-5 0 -17 -41zM1286 828h55q74 0 95 -55l3.5 -19.5t1.5 -16.5q0 -62 -58 -83q-26 -9 -61 -9h-36h-3v181zM1328 792q2 -17 2 -30.5v-24.5v-25.5t-2 -29.5h5q31 0 53 22q11 11 11 33q0 38 -39 50q-13 5 -30 5zM1538 828q8 -17 18 -36t18 -44
q8 -21 16 -45t15 -49v-9h-42q-1 4 -3 8t-3.5 9.5t-4.5 13.5h-30h-31l-3.5 -13.5t-3.5 -9.5l-4 -8h-42q9 38 19 70t23 61l12.5 28t12.5 24h33zM1508 718h30l-16 41q-2 -4 -4 -10q-2 -5 -4.5 -13zM1671 826q83 0 83 -42v-5q0 -29 -36 -42h-2q10 0 19.5 -4.5t16.5 -14.5
q8 -10 8 -28q0 -45 -80 -45h-56q-3 0 -3 23q-2 14 -3.5 29t-1.5 34v11q0 21 1.5 42t3.5 42h50zM1663 803v-47h25q11 0 15.5 3t6.5 11v6v5q0 22 -44 22h-3zM1663 720v-50h8q19 0 28 2.5t14 9.5q0 2 1.5 5.5t1.5 7.5q0 25 -39 25h-14zM1774 828h44q6 -4 6 -63v-17
q0 -13 -0.5 -27t-2.5 -28h69l3 -3v-45h-3h-116v181v2zM2034 826q3 0 3 -17v-6q0 -19 -3 -19h-86v-28h50q0 -2 1 -5q2 -6 2 -14q0 -22 -3 -22h-50v-28h86q3 0 3 -19v-3q0 -20 -3 -20h-124q-3 0 -3 23q-2 14 -2.5 29t-0.5 34v11q0 21 0.5 42t5.5 42h124zM2259 828l16.5 -36
l19.5 -44q8 -21 14.5 -45l13.5 -49l3 -9h-42l-4 8t-3.5 9.5l-3.5 13.5h-33h-28l-5 -13.5t-4 -9.5t-2 -8h-42q8 38 18.5 70t23.5 61l11.5 28t10.5 24h36zM2226 718h30l-14 41q-1 -4 -4 -10l-5 -13zM2375 826h11q21 0 40 -0.5t38 -5.5v-39q0 -5 -58 -5v-131h-3h-44v131
q-29 0 -42.5 1.5t-15.5 3.5v39q0 6 74 6zM38 499v-70h75v70h3h39q1 -5 2 -13q2 -14 3 -40v-36q0 -23 -1.5 -46t-3.5 -46h-39h-3v70h-75v-70h-38q-3 0 -3 23l-4 29t-2 34v11q0 21 2 42l4 42h3h38zM246 499h11q19 0 37.5 -0.5t37.5 -2.5v-42q0 -5 -58 -5v-131h-44v131h-3
q-55 0 -55 5v39q0 6 74 6zM415 499h12q19 0 37 -0.5t37 -2.5v-42q0 -5 -58 -5v-131h-44h-3v131q-53 0 -58 5v39q0 6 77 6zM518 499h61q39 0 61 -17q6 -5 8.5 -10t2.5 -9v-9q0 -41 -47 -58q-19 -8 -36 -8q-2 -21 -3 -38t-3 -32h-44h-3v181h3zM565 468l3 -47q33 4 33 28v2
q0 7 -4.5 11t-17.5 6h-14zM665 457h19v-11v-11h-19q-3 0 -3 3v13q0 6 3 6zM665 377h19v-12v-11h-19q-3 0 -3 6v11q0 6 3 6zM848 487q-13 -31 -27 -59t-31 -57l-34 -52.5l-36 -52.5l-5 2l-8 6l-6 3l27 57.5t31 55.5q15 27 33 54.5l37 54.5l5 -3l8 -6zM998 487
q-13 -31 -27 -59l-29 -57l-34 -52.5t-38 -52.5l-5 2l-9 6l-5 3h2l26 57.5t30 55.5l33.5 54.5t35.5 54.5l6 -3l11 -6zM1139 499q0 -1 1 -4q2 -6 2 -13v-6q0 -8 -2 -14q-1 -3 -1 -5h-86v-31h64v-19v-22h-64v-67h-39q-2 0 -2.5 6t-2.5 17q0 14 -1.5 29t-1.5 34v11q0 21 2 42
l4 42h2h125zM1225 501l16.5 -36l19.5 -44q8 -21 14.5 -45l13.5 -49l2 -9h-41l-4 8t-3.5 9.5l-3.5 13.5h-33h-28l-5 -13.5t-4 -9.5t-2 -8h-42q8 38 18.5 70t23.5 61q6 17 11.5 29l10.5 23h36zM1192 390h30l-14 42q-1 -5 -4 -11l-5 -12.5t-7 -18.5zM1380 499h9q12 0 19.5 -0.5
t7.5 -2.5v-42l-3 -3h-24q-42 0 -53 -27v-14v-3q0 -26 28 -39q6 -2 11.5 -2.5t10.5 -0.5h27l3 -2v-42q0 -3 -22 -3h-14q-41 0 -69 28q-11 13 -16.5 27.5t-5.5 33.5v6q0 55 44 74q13 7 24 9.5t23 2.5zM1502 499h11q19 0 38.5 -0.5t36.5 -2.5v-42q0 -5 -58 -5v-131h-44v131
q-59 0 -59 5v39q0 6 75 6zM1677 499h3q29 0 49.5 -11t33.5 -37q8 -18 8 -44q0 -62 -55 -83l-16.5 -4t-14.5 -2h-8q-36 0 -67 31q-8 12 -13.5 26.5t-5.5 31.5v6q0 65 66 86h20zM1638 410v-3q0 -31 28 -39q4 -2 8 -2.5t8 -0.5q32 0 39 28q2 5 2.5 8.5t0.5 8.5q0 33 -31 41h-13
q-15 0 -24 -6t-15 -19q0 -4 -1.5 -8t-1.5 -8zM1782 499h61q29 0 46 -8t23 -20q1 -2 2 -2.5t1 -2.5v-3v-9q0 -17 -8 -30.5t-25 -21.5l14 -15.5t8 -12.5q6 -7 11 -21t11 -35h-50q-4 0 -8 28q-16 36 -36 36q-2 -16 -2.5 -27.5t-1.5 -19.5q-1 -10 -1 -17h-45h-3v181h3zM1829 468
q2 -13 2.5 -24.5t0.5 -22.5q17 2 26.5 8.5t9.5 19.5v2q0 17 -39 17zM1987 499q1 -5 2 -13q1 -7 1.5 -16.5t2.5 -23.5v-39q0 -21 -2 -43.5l-4 -45.5h-44q-1 1 -2 5t-1 18q-2 12 -2.5 28t-0.5 33v13q0 21 2 42l4 42h44zM2087 499h6q29 0 48 -11t32 -37q5 -8 6.5 -19.5
t1.5 -24.5q0 -63 -52 -83l-16.5 -4t-17.5 -2h-5q-40 0 -69 31q-17 23 -17 58v6q0 65 66 86h17zM2051 410v-3q0 -30 25 -39q6 -2 9 -2.5t8 -0.5q29 0 41 28v17q0 34 -27 41h-14q-32 0 -39 -25q-2 -4 -2.5 -8t-0.5 -8zM2190 338h19v-11v-11h-19q-1 0 -2 1t-1 4v11q0 3 1 4z
M2226 499h44v-111q0 -7 8 -17q5 -5 10.5 -5.5t12.5 -0.5h5q21 0 25 14q3 3 3 9v111h44h3v-117q0 -35 -33 -53q-15 -11 -42 -11h-8q-56 0 -72 45q0 6 -1.5 10.5t-1.5 8.5v117h3zM2464 499h6q17 0 33 -0.5t33 -5.5v-39v-3q-19 5 -31.5 7t-23.5 2h-3q-19 0 -19 -9t36 -33
q44 -32 44 -58v-3q0 -27 -44 -36q-8 -2 -13 -2.5t-10 -0.5h-11q-14 0 -30 0.5t-33 2.5v3v41l29 -3.5t20 -1.5h6q22 0 22 11q0 9 -41 33q-39 27 -39 53v3q0 30 50 39h19z" />
    <glyph glyph-name="five" unicode="5" horiz-adv-x="2599" 
d="M61 1153h14q18 0 36.5 -0.5t37.5 -5.5v-39q0 -5 -58 -5v-130h-44h-3v130q-27 0 -41.5 1.5t-16.5 3.5v39q0 6 75 6zM205 1153h3v-70h74v70h39q6 0 6 -53l3 -36q0 -23 -2 -45.5l-4 -45.5h-42v69h-74v-69h-3h-39v6q0 3 -1 7t-2 9q0 14 -1.5 29t-1.5 32v14q0 20 2 41l4 42h39
zM476 1153q3 0 3 -17v-5q0 -8 -0.5 -14t-2.5 -6h-85v-28h49v-5q0 -7 3 -14q0 -8 -2 -16q-1 -4 -1 -6h-49v-28h85q3 0 3 -19v-3q0 -19 -3 -19h-124q-3 0 -3 22q-2 14 -2.5 29t-0.5 32v14q0 20 0.5 41t5.5 42h124zM729 1147q27 -7 27 -33t-36 -58q-18 -19 -44 -36h80v-47h-152
v47q17 11 32.5 22.5t28.5 24.5q13 11 21 18.5l12 11.5q5 8 1 12.5t-12 4.5q-25 0 -33 -17q-6 -4 -6 -14h-47q0 9 3.5 18.5t7.5 18.5q21 33 70 33q14 0 26.5 -0.5t20.5 -5.5zM768 992h16q2 0 2.5 -3.5t0.5 -7.5q0 -11 -3 -11h-16q-3 0 -3 5v11q0 6 3 6zM831 1144q15 12 42 12
q25 0 44 -12q36 -23 36 -80q0 -60 -36 -80q-11 -7 -20.5 -9t-20.5 -2q-13 0 -25 2t-20 9q-38 21 -38 80q0 56 38 80zM853 1020l10 -4t13 -2q4 0 9.5 2t9.5 4q19 11 19 44q0 30 -19 42q-4 4 -10 4.5t-12 0.5t-10.5 -0.5t-9.5 -4.5q-19 -13 -19 -42q0 -32 19 -44zM1120 1156
q1 0 36 -100l2 -14l16.5 49.5l12.5 35.5l10 29h45q0 -13 -28 -103q-11 -23 -19.5 -43t-19.5 -35q-3 -2 -14 -2h-5q-17 0 -17 2q-13 26 -25 56.5t-25 68.5q-2 13 -5.5 26t-8.5 30h45zM1383 1153q3 0 3 -17v-5q0 -8 -0.5 -14t-2.5 -6h-83v-28h47q3 0 3 -19q0 -22 -3 -22h-47
v-28h83q3 0 3 -19v-3q0 -19 -3 -19h-125q-1 2 -2 6t-1 16q-2 14 -2 29v32v14q0 20 1.5 41t3.5 42h125zM1400 1153h61q29 0 46.5 -7.5t25.5 -20.5v-8v-9q0 -34 -34 -55q17 -13 25 -25q5 -6 9 -20.5t11 -34.5h-50q-1 2 -2 6q-1 3 -2.5 8t-3.5 13q-17 36 -36 36l-3 -47t-3 -16
h-44v180zM1447 1122q2 -12 2.5 -24t0.5 -23q36 4 36 28q0 19 -39 19zM1619 1153h8q17 0 33 -2l33 -4v-39l-2 -2q-35 8 -56 8h-3q-19 0 -19 -11q0 -4 39 -31q21 -17 32.5 -31t11.5 -27v-3q0 -27 -47 -36q-6 -2 -12 -2h-10h-8h-33.5t-30.5 2l-3 3v42h3q14 -2 26.5 -4t20.5 -2
h6q24 0 24 11q0 7 -44 34q-39 25 -39 52v3q0 14 12.5 23t37.5 16h20zM1757 1153q2 0 6 -53v-39q0 -20 -0.5 -42.5t-5.5 -45.5h-41q-2 0 -2.5 4.5t-0.5 17.5q-2 12 -4 28t-2 33v14q0 20 2 41l4 42h44zM1860 1153h3q29 0 49.5 -11t33.5 -36q4 -8 4.5 -20t0.5 -25
q0 -63 -52 -83q-18 -5 -31 -5h-8q-40 0 -67 30q-8 13 -13.5 27t-5.5 31v6q0 66 66 83q7 2 11 2.5t9 0.5zM1821 1064v-3q0 -31 28 -39q4 -2 8 -2h8q32 0 39 27q3 3 3 17q0 17 -8 25.5t-23 13.5q-2 2 -5.5 2.5t-7.5 0.5q-15 0 -24 -6.5t-15 -18.5q-2 -5 -2.5 -8.5t-0.5 -8.5z
M2009 1156q0 -5 81 -95l14 -16v108v3h39q5 0 5 -50q2 -7 2.5 -15t0.5 -19v-19q0 -19 -2 -39.5l-4 -40.5h-41l-95 110v-108l-2 -2h-39q-1 2 -2 6t-1 16q-2 14 -2.5 29.5t-0.5 34.5v11q0 20 2 41l4 42v3h41zM2334 1153q4 0 8 -53v-39q0 -20 -1.5 -42.5t-3.5 -45.5h-45
q-1 2 -2 5t-1 17q-2 12 -2 28v33v14q0 20 0.5 41t4.5 42h42zM2423 1153h8q17 0 33 -2l33 -4v-39l-2 -2q-37 8 -56 8h-3q-19 0 -19 -11q0 -2 9.5 -10t26.5 -21q47 -33 47 -58v-3q0 -27 -47 -36q-6 -2 -12 -2h-10h-11h-31t-30 2l-3 3v42h3q14 -2 26.5 -4t20.5 -2h5q25 0 25 11
q0 7 -44 34q-39 25 -39 52v3q0 14 12.5 23t37.5 16h20zM-3 828h53q71 0 97 -55l3.5 -19.5t1.5 -16.5q0 -61 -61 -83q-24 -9 -58 -9h-36h-3v181zM38 792q0 -17 1.5 -30.5t1.5 -24.5q0 -13 -1.5 -25.5t-1.5 -29.5h6q28 0 50 22q11 11 11 33q0 38 -36 50q-13 5 -31 5zM241 826
h3q29 0 49.5 -11t33.5 -36q4 -9 4.5 -20.5t0.5 -24.5q0 -63 -52 -83l-16.5 -4t-14.5 -2h-8q-19 0 -36.5 8.5t-30.5 22.5q-11 13 -15 27t-4 31v6q0 65 66 86h20zM202 737v-3q0 -31 28 -39q4 -2 8 -2h6q34 0 41 27q0 2 1.5 7t1.5 10q0 17 -8 26t-23 16h-13q-15 0 -24 -6.5
t-15 -18.5q-2 -5 -2.5 -9t-0.5 -8zM379 826q2 0 7 -13.5l13 -36.5l25 -70l36 95q3 -3 36 -95q1 5 4 13q2 7 6 16.5t9 23.5q6 17 11 29.5l8 20.5q4 10 6 17h50q0 -7 -8 -30l-22 -65q-8 -25 -18 -46t-18 -40h-56q-1 2 -2 5q-1 2 -2.5 6l-3.5 9l-2 -6q-1 -3 -2.5 -6t-3.5 -8
h-53q-2 2 -8 13t-14 32q-11 21 -19.5 49l-19.5 62l-6 25h47zM646 828q0 -2 20 -26t60 -68l14 -16v108v2h41q0 -5 1 -12q1 -6 1.5 -15.5t0.5 -21.5q0 -7 1.5 -15t1.5 -19v-19q0 -19 -2 -39.5l-4 -41.5h-41l-94 111v-108l-3 -3h-39q-1 2 -2 6t-1 17q-2 14 -2.5 29t-0.5 34v11
q0 21 2 42l4 42v2h42zM809 828h44q3 -2 3 -63v-17q0 -13 -0.5 -27t-2.5 -28h73v-3v-45h-117h-3v181zM1017 826h3q57 0 80 -47q9 -18 9 -45q0 -62 -53 -83l-16 -4t-15 -2h-8q-21 0 -38 8.5t-31 22.5q-17 26 -17 58v6q0 65 67 86h19zM978 737v-3q0 -30 25 -39q7 -2 11 -2h6
q17 0 26 6.5t15 20.5q0 2 1.5 7t1.5 10q0 17 -8 26t-22 16h-14q-15 0 -24 -6.5t-15 -18.5q-2 -5 -2.5 -9t-0.5 -8zM1208 828q7 -17 16.5 -36t17.5 -44q8 -21 16 -45t14 -49l3 -9h-42q-2 0 -4.5 8.5t-9.5 22.5h-30h-31q-8 -31 -11 -31h-38h-3l20.5 70t20.5 61q8 14 14.5 28
t10.5 24h36zM1175 718h31l-14 41q-5 0 -17 -41zM1286 828h55q74 0 95 -55l3.5 -19.5t1.5 -16.5q0 -62 -58 -83q-26 -9 -61 -9h-36h-3v181zM1328 792q2 -17 2 -30.5v-24.5v-25.5t-2 -29.5h5q31 0 53 22q11 11 11 33q0 38 -39 50q-13 5 -30 5zM1538 828q8 -17 18 -36t18 -44
q8 -21 16 -45t15 -49v-9h-42q-1 4 -3 8t-3.5 9.5t-4.5 13.5h-30h-31l-3.5 -13.5t-3.5 -9.5l-4 -8h-42q9 38 19 70t23 61l12.5 28t12.5 24h33zM1508 718h30l-16 41q-2 -4 -4 -10q-2 -5 -4.5 -13zM1671 826q83 0 83 -42v-5q0 -29 -36 -42h-2q10 0 19.5 -4.5t16.5 -14.5
q8 -10 8 -28q0 -45 -80 -45h-56q-3 0 -3 23q-2 14 -3.5 29t-1.5 34v11q0 21 1.5 42t3.5 42h50zM1663 803v-47h25q11 0 15.5 3t6.5 11v6v5q0 22 -44 22h-3zM1663 720v-50h8q19 0 28 2.5t14 9.5q0 2 1.5 5.5t1.5 7.5q0 25 -39 25h-14zM1774 828h44q6 -4 6 -63v-17
q0 -13 -0.5 -27t-2.5 -28h69l3 -3v-45h-3h-116v181v2zM2034 826q3 0 3 -17v-6q0 -19 -3 -19h-86v-28h50q0 -2 1 -5q2 -6 2 -14q0 -22 -3 -22h-50v-28h86q3 0 3 -19v-3q0 -20 -3 -20h-124q-3 0 -3 23q-2 14 -2.5 29t-0.5 34v11q0 21 0.5 42t5.5 42h124zM2259 828l16.5 -36
l19.5 -44q8 -21 14.5 -45l13.5 -49l3 -9h-42l-4 8t-3.5 9.5l-3.5 13.5h-33h-28l-5 -13.5t-4 -9.5t-2 -8h-42q8 38 18.5 70t23.5 61l11.5 28t10.5 24h36zM2226 718h30l-14 41q-1 -4 -4 -10l-5 -13zM2375 826h11q21 0 40 -0.5t38 -5.5v-39q0 -5 -58 -5v-131h-3h-44v131
q-29 0 -42.5 1.5t-15.5 3.5v39q0 6 74 6zM38 499v-70h75v70h3h39q1 -5 2 -13q2 -14 3 -40v-36q0 -23 -1.5 -46t-3.5 -46h-39h-3v70h-75v-70h-38q-3 0 -3 23l-4 29t-2 34v11q0 21 2 42l4 42h3h38zM246 499h11q19 0 37.5 -0.5t37.5 -2.5v-42q0 -5 -58 -5v-131h-44v131h-3
q-55 0 -55 5v39q0 6 74 6zM415 499h12q19 0 37 -0.5t37 -2.5v-42q0 -5 -58 -5v-131h-44h-3v131q-53 0 -58 5v39q0 6 77 6zM518 499h61q39 0 61 -17q6 -5 8.5 -10t2.5 -9v-9q0 -41 -47 -58q-19 -8 -36 -8q-2 -21 -3 -38t-3 -32h-44h-3v181h3zM565 468l3 -47q33 4 33 28v2
q0 7 -4.5 11t-17.5 6h-14zM665 457h19v-11v-11h-19q-3 0 -3 3v13q0 6 3 6zM665 377h19v-12v-11h-19q-3 0 -3 6v11q0 6 3 6zM848 487q-13 -31 -27 -59t-31 -57l-34 -52.5l-36 -52.5l-5 2l-8 6l-6 3l27 57.5t31 55.5q15 27 33 54.5l37 54.5l5 -3l8 -6zM998 487
q-13 -31 -27 -59l-29 -57l-34 -52.5t-38 -52.5l-5 2l-9 6l-5 3h2l26 57.5t30 55.5l33.5 54.5t35.5 54.5l6 -3l11 -6zM1139 499q0 -1 1 -4q2 -6 2 -13v-6q0 -8 -2 -14q-1 -3 -1 -5h-86v-31h64v-19v-22h-64v-67h-39q-2 0 -2.5 6t-2.5 17q0 14 -1.5 29t-1.5 34v11q0 21 2 42
l4 42h2h125zM1225 501l16.5 -36l19.5 -44q8 -21 14.5 -45l13.5 -49l2 -9h-41l-4 8t-3.5 9.5l-3.5 13.5h-33h-28l-5 -13.5t-4 -9.5t-2 -8h-42q8 38 18.5 70t23.5 61q6 17 11.5 29l10.5 23h36zM1192 390h30l-14 42q-1 -5 -4 -11l-5 -12.5t-7 -18.5zM1380 499h9q12 0 19.5 -0.5
t7.5 -2.5v-42l-3 -3h-24q-42 0 -53 -27v-14v-3q0 -26 28 -39q6 -2 11.5 -2.5t10.5 -0.5h27l3 -2v-42q0 -3 -22 -3h-14q-41 0 -69 28q-11 13 -16.5 27.5t-5.5 33.5v6q0 55 44 74q13 7 24 9.5t23 2.5zM1502 499h11q19 0 38.5 -0.5t36.5 -2.5v-42q0 -5 -58 -5v-131h-44v131
q-59 0 -59 5v39q0 6 75 6zM1677 499h3q29 0 49.5 -11t33.5 -37q8 -18 8 -44q0 -62 -55 -83l-16.5 -4t-14.5 -2h-8q-36 0 -67 31q-8 12 -13.5 26.5t-5.5 31.5v6q0 65 66 86h20zM1638 410v-3q0 -31 28 -39q4 -2 8 -2.5t8 -0.5q32 0 39 28q2 5 2.5 8.5t0.5 8.5q0 33 -31 41h-13
q-15 0 -24 -6t-15 -19q0 -4 -1.5 -8t-1.5 -8zM1782 499h61q29 0 46 -8t23 -20q1 -2 2 -2.5t1 -2.5v-3v-9q0 -17 -8 -30.5t-25 -21.5l14 -15.5t8 -12.5q6 -7 11 -21t11 -35h-50q-4 0 -8 28q-16 36 -36 36q-2 -16 -2.5 -27.5t-1.5 -19.5q-1 -10 -1 -17h-45h-3v181h3zM1829 468
q2 -13 2.5 -24.5t0.5 -22.5q17 2 26.5 8.5t9.5 19.5v2q0 17 -39 17zM1987 499q1 -5 2 -13q1 -7 1.5 -16.5t2.5 -23.5v-39q0 -21 -2 -43.5l-4 -45.5h-44q-1 1 -2 5t-1 18q-2 12 -2.5 28t-0.5 33v13q0 21 2 42l4 42h44zM2087 499h6q29 0 48 -11t32 -37q5 -8 6.5 -19.5
t1.5 -24.5q0 -63 -52 -83l-16.5 -4t-17.5 -2h-5q-40 0 -69 31q-17 23 -17 58v6q0 65 66 86h17zM2051 410v-3q0 -30 25 -39q6 -2 9 -2.5t8 -0.5q29 0 41 28v17q0 34 -27 41h-14q-32 0 -39 -25q-2 -4 -2.5 -8t-0.5 -8zM2190 338h19v-11v-11h-19q-1 0 -2 1t-1 4v11q0 3 1 4z
M2226 499h44v-111q0 -7 8 -17q5 -5 10.5 -5.5t12.5 -0.5h5q21 0 25 14q3 3 3 9v111h44h3v-117q0 -35 -33 -53q-15 -11 -42 -11h-8q-56 0 -72 45q0 6 -1.5 10.5t-1.5 8.5v117h3zM2464 499h6q17 0 33 -0.5t33 -5.5v-39v-3q-19 5 -31.5 7t-23.5 2h-3q-19 0 -19 -9t36 -33
q44 -32 44 -58v-3q0 -27 -44 -36q-8 -2 -13 -2.5t-10 -0.5h-11q-14 0 -30 0.5t-33 2.5v3v41l29 -3.5t20 -1.5h6q22 0 22 11q0 9 -41 33q-39 27 -39 53v3q0 30 50 39h19z" />
    <glyph glyph-name="six" unicode="6" horiz-adv-x="2599" 
d="M61 1153h14q18 0 36.5 -0.5t37.5 -5.5v-39q0 -5 -58 -5v-130h-44h-3v130q-27 0 -41.5 1.5t-16.5 3.5v39q0 6 75 6zM205 1153h3v-70h74v70h39q6 0 6 -53l3 -36q0 -23 -2 -45.5l-4 -45.5h-42v69h-74v-69h-3h-39v6q0 3 -1 7t-2 9q0 14 -1.5 29t-1.5 32v14q0 20 2 41l4 42h39
zM476 1153q3 0 3 -17v-5q0 -8 -0.5 -14t-2.5 -6h-85v-28h49v-5q0 -7 3 -14q0 -8 -2 -16q-1 -4 -1 -6h-49v-28h85q3 0 3 -19v-3q0 -19 -3 -19h-124q-3 0 -3 22q-2 14 -2.5 29t-0.5 32v14q0 20 0.5 41t5.5 42h124zM729 1147q27 -7 27 -33t-36 -58q-18 -19 -44 -36h80v-47h-152
v47q17 11 32.5 22.5t28.5 24.5q13 11 21 18.5l12 11.5q5 8 1 12.5t-12 4.5q-25 0 -33 -17q-6 -4 -6 -14h-47q0 9 3.5 18.5t7.5 18.5q21 33 70 33q14 0 26.5 -0.5t20.5 -5.5zM768 992h16q2 0 2.5 -3.5t0.5 -7.5q0 -11 -3 -11h-16q-3 0 -3 5v11q0 6 3 6zM831 1144q15 12 42 12
q25 0 44 -12q36 -23 36 -80q0 -60 -36 -80q-11 -7 -20.5 -9t-20.5 -2q-13 0 -25 2t-20 9q-38 21 -38 80q0 56 38 80zM853 1020l10 -4t13 -2q4 0 9.5 2t9.5 4q19 11 19 44q0 30 -19 42q-4 4 -10 4.5t-12 0.5t-10.5 -0.5t-9.5 -4.5q-19 -13 -19 -42q0 -32 19 -44zM1120 1156
q1 0 36 -100l2 -14l16.5 49.5l12.5 35.5l10 29h45q0 -13 -28 -103q-11 -23 -19.5 -43t-19.5 -35q-3 -2 -14 -2h-5q-17 0 -17 2q-13 26 -25 56.5t-25 68.5q-2 13 -5.5 26t-8.5 30h45zM1383 1153q3 0 3 -17v-5q0 -8 -0.5 -14t-2.5 -6h-83v-28h47q3 0 3 -19q0 -22 -3 -22h-47
v-28h83q3 0 3 -19v-3q0 -19 -3 -19h-125q-1 2 -2 6t-1 16q-2 14 -2 29v32v14q0 20 1.5 41t3.5 42h125zM1400 1153h61q29 0 46.5 -7.5t25.5 -20.5v-8v-9q0 -34 -34 -55q17 -13 25 -25q5 -6 9 -20.5t11 -34.5h-50q-1 2 -2 6q-1 3 -2.5 8t-3.5 13q-17 36 -36 36l-3 -47t-3 -16
h-44v180zM1447 1122q2 -12 2.5 -24t0.5 -23q36 4 36 28q0 19 -39 19zM1619 1153h8q17 0 33 -2l33 -4v-39l-2 -2q-35 8 -56 8h-3q-19 0 -19 -11q0 -4 39 -31q21 -17 32.5 -31t11.5 -27v-3q0 -27 -47 -36q-6 -2 -12 -2h-10h-8h-33.5t-30.5 2l-3 3v42h3q14 -2 26.5 -4t20.5 -2
h6q24 0 24 11q0 7 -44 34q-39 25 -39 52v3q0 14 12.5 23t37.5 16h20zM1757 1153q2 0 6 -53v-39q0 -20 -0.5 -42.5t-5.5 -45.5h-41q-2 0 -2.5 4.5t-0.5 17.5q-2 12 -4 28t-2 33v14q0 20 2 41l4 42h44zM1860 1153h3q29 0 49.5 -11t33.5 -36q4 -8 4.5 -20t0.5 -25
q0 -63 -52 -83q-18 -5 -31 -5h-8q-40 0 -67 30q-8 13 -13.5 27t-5.5 31v6q0 66 66 83q7 2 11 2.5t9 0.5zM1821 1064v-3q0 -31 28 -39q4 -2 8 -2h8q32 0 39 27q3 3 3 17q0 17 -8 25.5t-23 13.5q-2 2 -5.5 2.5t-7.5 0.5q-15 0 -24 -6.5t-15 -18.5q-2 -5 -2.5 -8.5t-0.5 -8.5z
M2009 1156q0 -5 81 -95l14 -16v108v3h39q5 0 5 -50q2 -7 2.5 -15t0.5 -19v-19q0 -19 -2 -39.5l-4 -40.5h-41l-95 110v-108l-2 -2h-39q-1 2 -2 6t-1 16q-2 14 -2.5 29.5t-0.5 34.5v11q0 20 2 41l4 42v3h41zM2334 1153q4 0 8 -53v-39q0 -20 -1.5 -42.5t-3.5 -45.5h-45
q-1 2 -2 5t-1 17q-2 12 -2 28v33v14q0 20 0.5 41t4.5 42h42zM2423 1153h8q17 0 33 -2l33 -4v-39l-2 -2q-37 8 -56 8h-3q-19 0 -19 -11q0 -2 9.5 -10t26.5 -21q47 -33 47 -58v-3q0 -27 -47 -36q-6 -2 -12 -2h-10h-11h-31t-30 2l-3 3v42h3q14 -2 26.5 -4t20.5 -2h5q25 0 25 11
q0 7 -44 34q-39 25 -39 52v3q0 14 12.5 23t37.5 16h20zM-3 828h53q71 0 97 -55l3.5 -19.5t1.5 -16.5q0 -61 -61 -83q-24 -9 -58 -9h-36h-3v181zM38 792q0 -17 1.5 -30.5t1.5 -24.5q0 -13 -1.5 -25.5t-1.5 -29.5h6q28 0 50 22q11 11 11 33q0 38 -36 50q-13 5 -31 5zM241 826
h3q29 0 49.5 -11t33.5 -36q4 -9 4.5 -20.5t0.5 -24.5q0 -63 -52 -83l-16.5 -4t-14.5 -2h-8q-19 0 -36.5 8.5t-30.5 22.5q-11 13 -15 27t-4 31v6q0 65 66 86h20zM202 737v-3q0 -31 28 -39q4 -2 8 -2h6q34 0 41 27q0 2 1.5 7t1.5 10q0 17 -8 26t-23 16h-13q-15 0 -24 -6.5
t-15 -18.5q-2 -5 -2.5 -9t-0.5 -8zM379 826q2 0 7 -13.5l13 -36.5l25 -70l36 95q3 -3 36 -95q1 5 4 13q2 7 6 16.5t9 23.5q6 17 11 29.5l8 20.5q4 10 6 17h50q0 -7 -8 -30l-22 -65q-8 -25 -18 -46t-18 -40h-56q-1 2 -2 5q-1 2 -2.5 6l-3.5 9l-2 -6q-1 -3 -2.5 -6t-3.5 -8
h-53q-2 2 -8 13t-14 32q-11 21 -19.5 49l-19.5 62l-6 25h47zM646 828q0 -2 20 -26t60 -68l14 -16v108v2h41q0 -5 1 -12q1 -6 1.5 -15.5t0.5 -21.5q0 -7 1.5 -15t1.5 -19v-19q0 -19 -2 -39.5l-4 -41.5h-41l-94 111v-108l-3 -3h-39q-1 2 -2 6t-1 17q-2 14 -2.5 29t-0.5 34v11
q0 21 2 42l4 42v2h42zM809 828h44q3 -2 3 -63v-17q0 -13 -0.5 -27t-2.5 -28h73v-3v-45h-117h-3v181zM1017 826h3q57 0 80 -47q9 -18 9 -45q0 -62 -53 -83l-16 -4t-15 -2h-8q-21 0 -38 8.5t-31 22.5q-17 26 -17 58v6q0 65 67 86h19zM978 737v-3q0 -30 25 -39q7 -2 11 -2h6
q17 0 26 6.5t15 20.5q0 2 1.5 7t1.5 10q0 17 -8 26t-22 16h-14q-15 0 -24 -6.5t-15 -18.5q-2 -5 -2.5 -9t-0.5 -8zM1208 828q7 -17 16.5 -36t17.5 -44q8 -21 16 -45t14 -49l3 -9h-42q-2 0 -4.5 8.5t-9.5 22.5h-30h-31q-8 -31 -11 -31h-38h-3l20.5 70t20.5 61q8 14 14.5 28
t10.5 24h36zM1175 718h31l-14 41q-5 0 -17 -41zM1286 828h55q74 0 95 -55l3.5 -19.5t1.5 -16.5q0 -62 -58 -83q-26 -9 -61 -9h-36h-3v181zM1328 792q2 -17 2 -30.5v-24.5v-25.5t-2 -29.5h5q31 0 53 22q11 11 11 33q0 38 -39 50q-13 5 -30 5zM1538 828q8 -17 18 -36t18 -44
q8 -21 16 -45t15 -49v-9h-42q-1 4 -3 8t-3.5 9.5t-4.5 13.5h-30h-31l-3.5 -13.5t-3.5 -9.5l-4 -8h-42q9 38 19 70t23 61l12.5 28t12.5 24h33zM1508 718h30l-16 41q-2 -4 -4 -10q-2 -5 -4.5 -13zM1671 826q83 0 83 -42v-5q0 -29 -36 -42h-2q10 0 19.5 -4.5t16.5 -14.5
q8 -10 8 -28q0 -45 -80 -45h-56q-3 0 -3 23q-2 14 -3.5 29t-1.5 34v11q0 21 1.5 42t3.5 42h50zM1663 803v-47h25q11 0 15.5 3t6.5 11v6v5q0 22 -44 22h-3zM1663 720v-50h8q19 0 28 2.5t14 9.5q0 2 1.5 5.5t1.5 7.5q0 25 -39 25h-14zM1774 828h44q6 -4 6 -63v-17
q0 -13 -0.5 -27t-2.5 -28h69l3 -3v-45h-3h-116v181v2zM2034 826q3 0 3 -17v-6q0 -19 -3 -19h-86v-28h50q0 -2 1 -5q2 -6 2 -14q0 -22 -3 -22h-50v-28h86q3 0 3 -19v-3q0 -20 -3 -20h-124q-3 0 -3 23q-2 14 -2.5 29t-0.5 34v11q0 21 0.5 42t5.5 42h124zM2259 828l16.5 -36
l19.5 -44q8 -21 14.5 -45l13.5 -49l3 -9h-42l-4 8t-3.5 9.5l-3.5 13.5h-33h-28l-5 -13.5t-4 -9.5t-2 -8h-42q8 38 18.5 70t23.5 61l11.5 28t10.5 24h36zM2226 718h30l-14 41q-1 -4 -4 -10l-5 -13zM2375 826h11q21 0 40 -0.5t38 -5.5v-39q0 -5 -58 -5v-131h-3h-44v131
q-29 0 -42.5 1.5t-15.5 3.5v39q0 6 74 6zM38 499v-70h75v70h3h39q1 -5 2 -13q2 -14 3 -40v-36q0 -23 -1.5 -46t-3.5 -46h-39h-3v70h-75v-70h-38q-3 0 -3 23l-4 29t-2 34v11q0 21 2 42l4 42h3h38zM246 499h11q19 0 37.5 -0.5t37.5 -2.5v-42q0 -5 -58 -5v-131h-44v131h-3
q-55 0 -55 5v39q0 6 74 6zM415 499h12q19 0 37 -0.5t37 -2.5v-42q0 -5 -58 -5v-131h-44h-3v131q-53 0 -58 5v39q0 6 77 6zM518 499h61q39 0 61 -17q6 -5 8.5 -10t2.5 -9v-9q0 -41 -47 -58q-19 -8 -36 -8q-2 -21 -3 -38t-3 -32h-44h-3v181h3zM565 468l3 -47q33 4 33 28v2
q0 7 -4.5 11t-17.5 6h-14zM665 457h19v-11v-11h-19q-3 0 -3 3v13q0 6 3 6zM665 377h19v-12v-11h-19q-3 0 -3 6v11q0 6 3 6zM848 487q-13 -31 -27 -59t-31 -57l-34 -52.5l-36 -52.5l-5 2l-8 6l-6 3l27 57.5t31 55.5q15 27 33 54.5l37 54.5l5 -3l8 -6zM998 487
q-13 -31 -27 -59l-29 -57l-34 -52.5t-38 -52.5l-5 2l-9 6l-5 3h2l26 57.5t30 55.5l33.5 54.5t35.5 54.5l6 -3l11 -6zM1139 499q0 -1 1 -4q2 -6 2 -13v-6q0 -8 -2 -14q-1 -3 -1 -5h-86v-31h64v-19v-22h-64v-67h-39q-2 0 -2.5 6t-2.5 17q0 14 -1.5 29t-1.5 34v11q0 21 2 42
l4 42h2h125zM1225 501l16.5 -36l19.5 -44q8 -21 14.5 -45l13.5 -49l2 -9h-41l-4 8t-3.5 9.5l-3.5 13.5h-33h-28l-5 -13.5t-4 -9.5t-2 -8h-42q8 38 18.5 70t23.5 61q6 17 11.5 29l10.5 23h36zM1192 390h30l-14 42q-1 -5 -4 -11l-5 -12.5t-7 -18.5zM1380 499h9q12 0 19.5 -0.5
t7.5 -2.5v-42l-3 -3h-24q-42 0 -53 -27v-14v-3q0 -26 28 -39q6 -2 11.5 -2.5t10.5 -0.5h27l3 -2v-42q0 -3 -22 -3h-14q-41 0 -69 28q-11 13 -16.5 27.5t-5.5 33.5v6q0 55 44 74q13 7 24 9.5t23 2.5zM1502 499h11q19 0 38.5 -0.5t36.5 -2.5v-42q0 -5 -58 -5v-131h-44v131
q-59 0 -59 5v39q0 6 75 6zM1677 499h3q29 0 49.5 -11t33.5 -37q8 -18 8 -44q0 -62 -55 -83l-16.5 -4t-14.5 -2h-8q-36 0 -67 31q-8 12 -13.5 26.5t-5.5 31.5v6q0 65 66 86h20zM1638 410v-3q0 -31 28 -39q4 -2 8 -2.5t8 -0.5q32 0 39 28q2 5 2.5 8.5t0.5 8.5q0 33 -31 41h-13
q-15 0 -24 -6t-15 -19q0 -4 -1.5 -8t-1.5 -8zM1782 499h61q29 0 46 -8t23 -20q1 -2 2 -2.5t1 -2.5v-3v-9q0 -17 -8 -30.5t-25 -21.5l14 -15.5t8 -12.5q6 -7 11 -21t11 -35h-50q-4 0 -8 28q-16 36 -36 36q-2 -16 -2.5 -27.5t-1.5 -19.5q-1 -10 -1 -17h-45h-3v181h3zM1829 468
q2 -13 2.5 -24.5t0.5 -22.5q17 2 26.5 8.5t9.5 19.5v2q0 17 -39 17zM1987 499q1 -5 2 -13q1 -7 1.5 -16.5t2.5 -23.5v-39q0 -21 -2 -43.5l-4 -45.5h-44q-1 1 -2 5t-1 18q-2 12 -2.5 28t-0.5 33v13q0 21 2 42l4 42h44zM2087 499h6q29 0 48 -11t32 -37q5 -8 6.5 -19.5
t1.5 -24.5q0 -63 -52 -83l-16.5 -4t-17.5 -2h-5q-40 0 -69 31q-17 23 -17 58v6q0 65 66 86h17zM2051 410v-3q0 -30 25 -39q6 -2 9 -2.5t8 -0.5q29 0 41 28v17q0 34 -27 41h-14q-32 0 -39 -25q-2 -4 -2.5 -8t-0.5 -8zM2190 338h19v-11v-11h-19q-1 0 -2 1t-1 4v11q0 3 1 4z
M2226 499h44v-111q0 -7 8 -17q5 -5 10.5 -5.5t12.5 -0.5h5q21 0 25 14q3 3 3 9v111h44h3v-117q0 -35 -33 -53q-15 -11 -42 -11h-8q-56 0 -72 45q0 6 -1.5 10.5t-1.5 8.5v117h3zM2464 499h6q17 0 33 -0.5t33 -5.5v-39v-3q-19 5 -31.5 7t-23.5 2h-3q-19 0 -19 -9t36 -33
q44 -32 44 -58v-3q0 -27 -44 -36q-8 -2 -13 -2.5t-10 -0.5h-11q-14 0 -30 0.5t-33 2.5v3v41l29 -3.5t20 -1.5h6q22 0 22 11q0 9 -41 33q-39 27 -39 53v3q0 30 50 39h19z" />
    <glyph glyph-name="seven" unicode="7" horiz-adv-x="2599" 
d="M61 1153h14q18 0 36.5 -0.5t37.5 -5.5v-39q0 -5 -58 -5v-130h-44h-3v130q-27 0 -41.5 1.5t-16.5 3.5v39q0 6 75 6zM205 1153h3v-70h74v70h39q6 0 6 -53l3 -36q0 -23 -2 -45.5l-4 -45.5h-42v69h-74v-69h-3h-39v6q0 3 -1 7t-2 9q0 14 -1.5 29t-1.5 32v14q0 20 2 41l4 42h39
zM476 1153q3 0 3 -17v-5q0 -8 -0.5 -14t-2.5 -6h-85v-28h49v-5q0 -7 3 -14q0 -8 -2 -16q-1 -4 -1 -6h-49v-28h85q3 0 3 -19v-3q0 -19 -3 -19h-124q-3 0 -3 22q-2 14 -2.5 29t-0.5 32v14q0 20 0.5 41t5.5 42h124zM729 1147q27 -7 27 -33t-36 -58q-18 -19 -44 -36h80v-47h-152
v47q17 11 32.5 22.5t28.5 24.5q13 11 21 18.5l12 11.5q5 8 1 12.5t-12 4.5q-25 0 -33 -17q-6 -4 -6 -14h-47q0 9 3.5 18.5t7.5 18.5q21 33 70 33q14 0 26.5 -0.5t20.5 -5.5zM768 992h16q2 0 2.5 -3.5t0.5 -7.5q0 -11 -3 -11h-16q-3 0 -3 5v11q0 6 3 6zM831 1144q15 12 42 12
q25 0 44 -12q36 -23 36 -80q0 -60 -36 -80q-11 -7 -20.5 -9t-20.5 -2q-13 0 -25 2t-20 9q-38 21 -38 80q0 56 38 80zM853 1020l10 -4t13 -2q4 0 9.5 2t9.5 4q19 11 19 44q0 30 -19 42q-4 4 -10 4.5t-12 0.5t-10.5 -0.5t-9.5 -4.5q-19 -13 -19 -42q0 -32 19 -44zM1120 1156
q1 0 36 -100l2 -14l16.5 49.5l12.5 35.5l10 29h45q0 -13 -28 -103q-11 -23 -19.5 -43t-19.5 -35q-3 -2 -14 -2h-5q-17 0 -17 2q-13 26 -25 56.5t-25 68.5q-2 13 -5.5 26t-8.5 30h45zM1383 1153q3 0 3 -17v-5q0 -8 -0.5 -14t-2.5 -6h-83v-28h47q3 0 3 -19q0 -22 -3 -22h-47
v-28h83q3 0 3 -19v-3q0 -19 -3 -19h-125q-1 2 -2 6t-1 16q-2 14 -2 29v32v14q0 20 1.5 41t3.5 42h125zM1400 1153h61q29 0 46.5 -7.5t25.5 -20.5v-8v-9q0 -34 -34 -55q17 -13 25 -25q5 -6 9 -20.5t11 -34.5h-50q-1 2 -2 6q-1 3 -2.5 8t-3.5 13q-17 36 -36 36l-3 -47t-3 -16
h-44v180zM1447 1122q2 -12 2.5 -24t0.5 -23q36 4 36 28q0 19 -39 19zM1619 1153h8q17 0 33 -2l33 -4v-39l-2 -2q-35 8 -56 8h-3q-19 0 -19 -11q0 -4 39 -31q21 -17 32.5 -31t11.5 -27v-3q0 -27 -47 -36q-6 -2 -12 -2h-10h-8h-33.5t-30.5 2l-3 3v42h3q14 -2 26.5 -4t20.5 -2
h6q24 0 24 11q0 7 -44 34q-39 25 -39 52v3q0 14 12.5 23t37.5 16h20zM1757 1153q2 0 6 -53v-39q0 -20 -0.5 -42.5t-5.5 -45.5h-41q-2 0 -2.5 4.5t-0.5 17.5q-2 12 -4 28t-2 33v14q0 20 2 41l4 42h44zM1860 1153h3q29 0 49.5 -11t33.5 -36q4 -8 4.5 -20t0.5 -25
q0 -63 -52 -83q-18 -5 -31 -5h-8q-40 0 -67 30q-8 13 -13.5 27t-5.5 31v6q0 66 66 83q7 2 11 2.5t9 0.5zM1821 1064v-3q0 -31 28 -39q4 -2 8 -2h8q32 0 39 27q3 3 3 17q0 17 -8 25.5t-23 13.5q-2 2 -5.5 2.5t-7.5 0.5q-15 0 -24 -6.5t-15 -18.5q-2 -5 -2.5 -8.5t-0.5 -8.5z
M2009 1156q0 -5 81 -95l14 -16v108v3h39q5 0 5 -50q2 -7 2.5 -15t0.5 -19v-19q0 -19 -2 -39.5l-4 -40.5h-41l-95 110v-108l-2 -2h-39q-1 2 -2 6t-1 16q-2 14 -2.5 29.5t-0.5 34.5v11q0 20 2 41l4 42v3h41zM2334 1153q4 0 8 -53v-39q0 -20 -1.5 -42.5t-3.5 -45.5h-45
q-1 2 -2 5t-1 17q-2 12 -2 28v33v14q0 20 0.5 41t4.5 42h42zM2423 1153h8q17 0 33 -2l33 -4v-39l-2 -2q-37 8 -56 8h-3q-19 0 -19 -11q0 -2 9.5 -10t26.5 -21q47 -33 47 -58v-3q0 -27 -47 -36q-6 -2 -12 -2h-10h-11h-31t-30 2l-3 3v42h3q14 -2 26.5 -4t20.5 -2h5q25 0 25 11
q0 7 -44 34q-39 25 -39 52v3q0 14 12.5 23t37.5 16h20zM-3 828h53q71 0 97 -55l3.5 -19.5t1.5 -16.5q0 -61 -61 -83q-24 -9 -58 -9h-36h-3v181zM38 792q0 -17 1.5 -30.5t1.5 -24.5q0 -13 -1.5 -25.5t-1.5 -29.5h6q28 0 50 22q11 11 11 33q0 38 -36 50q-13 5 -31 5zM241 826
h3q29 0 49.5 -11t33.5 -36q4 -9 4.5 -20.5t0.5 -24.5q0 -63 -52 -83l-16.5 -4t-14.5 -2h-8q-19 0 -36.5 8.5t-30.5 22.5q-11 13 -15 27t-4 31v6q0 65 66 86h20zM202 737v-3q0 -31 28 -39q4 -2 8 -2h6q34 0 41 27q0 2 1.5 7t1.5 10q0 17 -8 26t-23 16h-13q-15 0 -24 -6.5
t-15 -18.5q-2 -5 -2.5 -9t-0.5 -8zM379 826q2 0 7 -13.5l13 -36.5l25 -70l36 95q3 -3 36 -95q1 5 4 13q2 7 6 16.5t9 23.5q6 17 11 29.5l8 20.5q4 10 6 17h50q0 -7 -8 -30l-22 -65q-8 -25 -18 -46t-18 -40h-56q-1 2 -2 5q-1 2 -2.5 6l-3.5 9l-2 -6q-1 -3 -2.5 -6t-3.5 -8
h-53q-2 2 -8 13t-14 32q-11 21 -19.5 49l-19.5 62l-6 25h47zM646 828q0 -2 20 -26t60 -68l14 -16v108v2h41q0 -5 1 -12q1 -6 1.5 -15.5t0.5 -21.5q0 -7 1.5 -15t1.5 -19v-19q0 -19 -2 -39.5l-4 -41.5h-41l-94 111v-108l-3 -3h-39q-1 2 -2 6t-1 17q-2 14 -2.5 29t-0.5 34v11
q0 21 2 42l4 42v2h42zM809 828h44q3 -2 3 -63v-17q0 -13 -0.5 -27t-2.5 -28h73v-3v-45h-117h-3v181zM1017 826h3q57 0 80 -47q9 -18 9 -45q0 -62 -53 -83l-16 -4t-15 -2h-8q-21 0 -38 8.5t-31 22.5q-17 26 -17 58v6q0 65 67 86h19zM978 737v-3q0 -30 25 -39q7 -2 11 -2h6
q17 0 26 6.5t15 20.5q0 2 1.5 7t1.5 10q0 17 -8 26t-22 16h-14q-15 0 -24 -6.5t-15 -18.5q-2 -5 -2.5 -9t-0.5 -8zM1208 828q7 -17 16.5 -36t17.5 -44q8 -21 16 -45t14 -49l3 -9h-42q-2 0 -4.5 8.5t-9.5 22.5h-30h-31q-8 -31 -11 -31h-38h-3l20.5 70t20.5 61q8 14 14.5 28
t10.5 24h36zM1175 718h31l-14 41q-5 0 -17 -41zM1286 828h55q74 0 95 -55l3.5 -19.5t1.5 -16.5q0 -62 -58 -83q-26 -9 -61 -9h-36h-3v181zM1328 792q2 -17 2 -30.5v-24.5v-25.5t-2 -29.5h5q31 0 53 22q11 11 11 33q0 38 -39 50q-13 5 -30 5zM1538 828q8 -17 18 -36t18 -44
q8 -21 16 -45t15 -49v-9h-42q-1 4 -3 8t-3.5 9.5t-4.5 13.5h-30h-31l-3.5 -13.5t-3.5 -9.5l-4 -8h-42q9 38 19 70t23 61l12.5 28t12.5 24h33zM1508 718h30l-16 41q-2 -4 -4 -10q-2 -5 -4.5 -13zM1671 826q83 0 83 -42v-5q0 -29 -36 -42h-2q10 0 19.5 -4.5t16.5 -14.5
q8 -10 8 -28q0 -45 -80 -45h-56q-3 0 -3 23q-2 14 -3.5 29t-1.5 34v11q0 21 1.5 42t3.5 42h50zM1663 803v-47h25q11 0 15.5 3t6.5 11v6v5q0 22 -44 22h-3zM1663 720v-50h8q19 0 28 2.5t14 9.5q0 2 1.5 5.5t1.5 7.5q0 25 -39 25h-14zM1774 828h44q6 -4 6 -63v-17
q0 -13 -0.5 -27t-2.5 -28h69l3 -3v-45h-3h-116v181v2zM2034 826q3 0 3 -17v-6q0 -19 -3 -19h-86v-28h50q0 -2 1 -5q2 -6 2 -14q0 -22 -3 -22h-50v-28h86q3 0 3 -19v-3q0 -20 -3 -20h-124q-3 0 -3 23q-2 14 -2.5 29t-0.5 34v11q0 21 0.5 42t5.5 42h124zM2259 828l16.5 -36
l19.5 -44q8 -21 14.5 -45l13.5 -49l3 -9h-42l-4 8t-3.5 9.5l-3.5 13.5h-33h-28l-5 -13.5t-4 -9.5t-2 -8h-42q8 38 18.5 70t23.5 61l11.5 28t10.5 24h36zM2226 718h30l-14 41q-1 -4 -4 -10l-5 -13zM2375 826h11q21 0 40 -0.5t38 -5.5v-39q0 -5 -58 -5v-131h-3h-44v131
q-29 0 -42.5 1.5t-15.5 3.5v39q0 6 74 6zM38 499v-70h75v70h3h39q1 -5 2 -13q2 -14 3 -40v-36q0 -23 -1.5 -46t-3.5 -46h-39h-3v70h-75v-70h-38q-3 0 -3 23l-4 29t-2 34v11q0 21 2 42l4 42h3h38zM246 499h11q19 0 37.5 -0.5t37.5 -2.5v-42q0 -5 -58 -5v-131h-44v131h-3
q-55 0 -55 5v39q0 6 74 6zM415 499h12q19 0 37 -0.5t37 -2.5v-42q0 -5 -58 -5v-131h-44h-3v131q-53 0 -58 5v39q0 6 77 6zM518 499h61q39 0 61 -17q6 -5 8.5 -10t2.5 -9v-9q0 -41 -47 -58q-19 -8 -36 -8q-2 -21 -3 -38t-3 -32h-44h-3v181h3zM565 468l3 -47q33 4 33 28v2
q0 7 -4.5 11t-17.5 6h-14zM665 457h19v-11v-11h-19q-3 0 -3 3v13q0 6 3 6zM665 377h19v-12v-11h-19q-3 0 -3 6v11q0 6 3 6zM848 487q-13 -31 -27 -59t-31 -57l-34 -52.5l-36 -52.5l-5 2l-8 6l-6 3l27 57.5t31 55.5q15 27 33 54.5l37 54.5l5 -3l8 -6zM998 487
q-13 -31 -27 -59l-29 -57l-34 -52.5t-38 -52.5l-5 2l-9 6l-5 3h2l26 57.5t30 55.5l33.5 54.5t35.5 54.5l6 -3l11 -6zM1139 499q0 -1 1 -4q2 -6 2 -13v-6q0 -8 -2 -14q-1 -3 -1 -5h-86v-31h64v-19v-22h-64v-67h-39q-2 0 -2.5 6t-2.5 17q0 14 -1.5 29t-1.5 34v11q0 21 2 42
l4 42h2h125zM1225 501l16.5 -36l19.5 -44q8 -21 14.5 -45l13.5 -49l2 -9h-41l-4 8t-3.5 9.5l-3.5 13.5h-33h-28l-5 -13.5t-4 -9.5t-2 -8h-42q8 38 18.5 70t23.5 61q6 17 11.5 29l10.5 23h36zM1192 390h30l-14 42q-1 -5 -4 -11l-5 -12.5t-7 -18.5zM1380 499h9q12 0 19.5 -0.5
t7.5 -2.5v-42l-3 -3h-24q-42 0 -53 -27v-14v-3q0 -26 28 -39q6 -2 11.5 -2.5t10.5 -0.5h27l3 -2v-42q0 -3 -22 -3h-14q-41 0 -69 28q-11 13 -16.5 27.5t-5.5 33.5v6q0 55 44 74q13 7 24 9.5t23 2.5zM1502 499h11q19 0 38.5 -0.5t36.5 -2.5v-42q0 -5 -58 -5v-131h-44v131
q-59 0 -59 5v39q0 6 75 6zM1677 499h3q29 0 49.5 -11t33.5 -37q8 -18 8 -44q0 -62 -55 -83l-16.5 -4t-14.5 -2h-8q-36 0 -67 31q-8 12 -13.5 26.5t-5.5 31.5v6q0 65 66 86h20zM1638 410v-3q0 -31 28 -39q4 -2 8 -2.5t8 -0.5q32 0 39 28q2 5 2.5 8.5t0.5 8.5q0 33 -31 41h-13
q-15 0 -24 -6t-15 -19q0 -4 -1.5 -8t-1.5 -8zM1782 499h61q29 0 46 -8t23 -20q1 -2 2 -2.5t1 -2.5v-3v-9q0 -17 -8 -30.5t-25 -21.5l14 -15.5t8 -12.5q6 -7 11 -21t11 -35h-50q-4 0 -8 28q-16 36 -36 36q-2 -16 -2.5 -27.5t-1.5 -19.5q-1 -10 -1 -17h-45h-3v181h3zM1829 468
q2 -13 2.5 -24.5t0.5 -22.5q17 2 26.5 8.5t9.5 19.5v2q0 17 -39 17zM1987 499q1 -5 2 -13q1 -7 1.5 -16.5t2.5 -23.5v-39q0 -21 -2 -43.5l-4 -45.5h-44q-1 1 -2 5t-1 18q-2 12 -2.5 28t-0.5 33v13q0 21 2 42l4 42h44zM2087 499h6q29 0 48 -11t32 -37q5 -8 6.5 -19.5
t1.5 -24.5q0 -63 -52 -83l-16.5 -4t-17.5 -2h-5q-40 0 -69 31q-17 23 -17 58v6q0 65 66 86h17zM2051 410v-3q0 -30 25 -39q6 -2 9 -2.5t8 -0.5q29 0 41 28v17q0 34 -27 41h-14q-32 0 -39 -25q-2 -4 -2.5 -8t-0.5 -8zM2190 338h19v-11v-11h-19q-1 0 -2 1t-1 4v11q0 3 1 4z
M2226 499h44v-111q0 -7 8 -17q5 -5 10.5 -5.5t12.5 -0.5h5q21 0 25 14q3 3 3 9v111h44h3v-117q0 -35 -33 -53q-15 -11 -42 -11h-8q-56 0 -72 45q0 6 -1.5 10.5t-1.5 8.5v117h3zM2464 499h6q17 0 33 -0.5t33 -5.5v-39v-3q-19 5 -31.5 7t-23.5 2h-3q-19 0 -19 -9t36 -33
q44 -32 44 -58v-3q0 -27 -44 -36q-8 -2 -13 -2.5t-10 -0.5h-11q-14 0 -30 0.5t-33 2.5v3v41l29 -3.5t20 -1.5h6q22 0 22 11q0 9 -41 33q-39 27 -39 53v3q0 30 50 39h19z" />
    <glyph glyph-name="eight" unicode="8" horiz-adv-x="2599" 
d="M61 1153h14q18 0 36.5 -0.5t37.5 -5.5v-39q0 -5 -58 -5v-130h-44h-3v130q-27 0 -41.5 1.5t-16.5 3.5v39q0 6 75 6zM205 1153h3v-70h74v70h39q6 0 6 -53l3 -36q0 -23 -2 -45.5l-4 -45.5h-42v69h-74v-69h-3h-39v6q0 3 -1 7t-2 9q0 14 -1.5 29t-1.5 32v14q0 20 2 41l4 42h39
zM476 1153q3 0 3 -17v-5q0 -8 -0.5 -14t-2.5 -6h-85v-28h49v-5q0 -7 3 -14q0 -8 -2 -16q-1 -4 -1 -6h-49v-28h85q3 0 3 -19v-3q0 -19 -3 -19h-124q-3 0 -3 22q-2 14 -2.5 29t-0.5 32v14q0 20 0.5 41t5.5 42h124zM729 1147q27 -7 27 -33t-36 -58q-18 -19 -44 -36h80v-47h-152
v47q17 11 32.5 22.5t28.5 24.5q13 11 21 18.5l12 11.5q5 8 1 12.5t-12 4.5q-25 0 -33 -17q-6 -4 -6 -14h-47q0 9 3.5 18.5t7.5 18.5q21 33 70 33q14 0 26.5 -0.5t20.5 -5.5zM768 992h16q2 0 2.5 -3.5t0.5 -7.5q0 -11 -3 -11h-16q-3 0 -3 5v11q0 6 3 6zM831 1144q15 12 42 12
q25 0 44 -12q36 -23 36 -80q0 -60 -36 -80q-11 -7 -20.5 -9t-20.5 -2q-13 0 -25 2t-20 9q-38 21 -38 80q0 56 38 80zM853 1020l10 -4t13 -2q4 0 9.5 2t9.5 4q19 11 19 44q0 30 -19 42q-4 4 -10 4.5t-12 0.5t-10.5 -0.5t-9.5 -4.5q-19 -13 -19 -42q0 -32 19 -44zM1120 1156
q1 0 36 -100l2 -14l16.5 49.5l12.5 35.5l10 29h45q0 -13 -28 -103q-11 -23 -19.5 -43t-19.5 -35q-3 -2 -14 -2h-5q-17 0 -17 2q-13 26 -25 56.5t-25 68.5q-2 13 -5.5 26t-8.5 30h45zM1383 1153q3 0 3 -17v-5q0 -8 -0.5 -14t-2.5 -6h-83v-28h47q3 0 3 -19q0 -22 -3 -22h-47
v-28h83q3 0 3 -19v-3q0 -19 -3 -19h-125q-1 2 -2 6t-1 16q-2 14 -2 29v32v14q0 20 1.5 41t3.5 42h125zM1400 1153h61q29 0 46.5 -7.5t25.5 -20.5v-8v-9q0 -34 -34 -55q17 -13 25 -25q5 -6 9 -20.5t11 -34.5h-50q-1 2 -2 6q-1 3 -2.5 8t-3.5 13q-17 36 -36 36l-3 -47t-3 -16
h-44v180zM1447 1122q2 -12 2.5 -24t0.5 -23q36 4 36 28q0 19 -39 19zM1619 1153h8q17 0 33 -2l33 -4v-39l-2 -2q-35 8 -56 8h-3q-19 0 -19 -11q0 -4 39 -31q21 -17 32.5 -31t11.5 -27v-3q0 -27 -47 -36q-6 -2 -12 -2h-10h-8h-33.5t-30.5 2l-3 3v42h3q14 -2 26.5 -4t20.5 -2
h6q24 0 24 11q0 7 -44 34q-39 25 -39 52v3q0 14 12.5 23t37.5 16h20zM1757 1153q2 0 6 -53v-39q0 -20 -0.5 -42.5t-5.5 -45.5h-41q-2 0 -2.5 4.5t-0.5 17.5q-2 12 -4 28t-2 33v14q0 20 2 41l4 42h44zM1860 1153h3q29 0 49.5 -11t33.5 -36q4 -8 4.5 -20t0.5 -25
q0 -63 -52 -83q-18 -5 -31 -5h-8q-40 0 -67 30q-8 13 -13.5 27t-5.5 31v6q0 66 66 83q7 2 11 2.5t9 0.5zM1821 1064v-3q0 -31 28 -39q4 -2 8 -2h8q32 0 39 27q3 3 3 17q0 17 -8 25.5t-23 13.5q-2 2 -5.5 2.5t-7.5 0.5q-15 0 -24 -6.5t-15 -18.5q-2 -5 -2.5 -8.5t-0.5 -8.5z
M2009 1156q0 -5 81 -95l14 -16v108v3h39q5 0 5 -50q2 -7 2.5 -15t0.5 -19v-19q0 -19 -2 -39.5l-4 -40.5h-41l-95 110v-108l-2 -2h-39q-1 2 -2 6t-1 16q-2 14 -2.5 29.5t-0.5 34.5v11q0 20 2 41l4 42v3h41zM2334 1153q4 0 8 -53v-39q0 -20 -1.5 -42.5t-3.5 -45.5h-45
q-1 2 -2 5t-1 17q-2 12 -2 28v33v14q0 20 0.5 41t4.5 42h42zM2423 1153h8q17 0 33 -2l33 -4v-39l-2 -2q-37 8 -56 8h-3q-19 0 -19 -11q0 -2 9.5 -10t26.5 -21q47 -33 47 -58v-3q0 -27 -47 -36q-6 -2 -12 -2h-10h-11h-31t-30 2l-3 3v42h3q14 -2 26.5 -4t20.5 -2h5q25 0 25 11
q0 7 -44 34q-39 25 -39 52v3q0 14 12.5 23t37.5 16h20zM-3 828h53q71 0 97 -55l3.5 -19.5t1.5 -16.5q0 -61 -61 -83q-24 -9 -58 -9h-36h-3v181zM38 792q0 -17 1.5 -30.5t1.5 -24.5q0 -13 -1.5 -25.5t-1.5 -29.5h6q28 0 50 22q11 11 11 33q0 38 -36 50q-13 5 -31 5zM241 826
h3q29 0 49.5 -11t33.5 -36q4 -9 4.5 -20.5t0.5 -24.5q0 -63 -52 -83l-16.5 -4t-14.5 -2h-8q-19 0 -36.5 8.5t-30.5 22.5q-11 13 -15 27t-4 31v6q0 65 66 86h20zM202 737v-3q0 -31 28 -39q4 -2 8 -2h6q34 0 41 27q0 2 1.5 7t1.5 10q0 17 -8 26t-23 16h-13q-15 0 -24 -6.5
t-15 -18.5q-2 -5 -2.5 -9t-0.5 -8zM379 826q2 0 7 -13.5l13 -36.5l25 -70l36 95q3 -3 36 -95q1 5 4 13q2 7 6 16.5t9 23.5q6 17 11 29.5l8 20.5q4 10 6 17h50q0 -7 -8 -30l-22 -65q-8 -25 -18 -46t-18 -40h-56q-1 2 -2 5q-1 2 -2.5 6l-3.5 9l-2 -6q-1 -3 -2.5 -6t-3.5 -8
h-53q-2 2 -8 13t-14 32q-11 21 -19.5 49l-19.5 62l-6 25h47zM646 828q0 -2 20 -26t60 -68l14 -16v108v2h41q0 -5 1 -12q1 -6 1.5 -15.5t0.5 -21.5q0 -7 1.5 -15t1.5 -19v-19q0 -19 -2 -39.5l-4 -41.5h-41l-94 111v-108l-3 -3h-39q-1 2 -2 6t-1 17q-2 14 -2.5 29t-0.5 34v11
q0 21 2 42l4 42v2h42zM809 828h44q3 -2 3 -63v-17q0 -13 -0.5 -27t-2.5 -28h73v-3v-45h-117h-3v181zM1017 826h3q57 0 80 -47q9 -18 9 -45q0 -62 -53 -83l-16 -4t-15 -2h-8q-21 0 -38 8.5t-31 22.5q-17 26 -17 58v6q0 65 67 86h19zM978 737v-3q0 -30 25 -39q7 -2 11 -2h6
q17 0 26 6.5t15 20.5q0 2 1.5 7t1.5 10q0 17 -8 26t-22 16h-14q-15 0 -24 -6.5t-15 -18.5q-2 -5 -2.5 -9t-0.5 -8zM1208 828q7 -17 16.5 -36t17.5 -44q8 -21 16 -45t14 -49l3 -9h-42q-2 0 -4.5 8.5t-9.5 22.5h-30h-31q-8 -31 -11 -31h-38h-3l20.5 70t20.5 61q8 14 14.5 28
t10.5 24h36zM1175 718h31l-14 41q-5 0 -17 -41zM1286 828h55q74 0 95 -55l3.5 -19.5t1.5 -16.5q0 -62 -58 -83q-26 -9 -61 -9h-36h-3v181zM1328 792q2 -17 2 -30.5v-24.5v-25.5t-2 -29.5h5q31 0 53 22q11 11 11 33q0 38 -39 50q-13 5 -30 5zM1538 828q8 -17 18 -36t18 -44
q8 -21 16 -45t15 -49v-9h-42q-1 4 -3 8t-3.5 9.5t-4.5 13.5h-30h-31l-3.5 -13.5t-3.5 -9.5l-4 -8h-42q9 38 19 70t23 61l12.5 28t12.5 24h33zM1508 718h30l-16 41q-2 -4 -4 -10q-2 -5 -4.5 -13zM1671 826q83 0 83 -42v-5q0 -29 -36 -42h-2q10 0 19.5 -4.5t16.5 -14.5
q8 -10 8 -28q0 -45 -80 -45h-56q-3 0 -3 23q-2 14 -3.5 29t-1.5 34v11q0 21 1.5 42t3.5 42h50zM1663 803v-47h25q11 0 15.5 3t6.5 11v6v5q0 22 -44 22h-3zM1663 720v-50h8q19 0 28 2.5t14 9.5q0 2 1.5 5.5t1.5 7.5q0 25 -39 25h-14zM1774 828h44q6 -4 6 -63v-17
q0 -13 -0.5 -27t-2.5 -28h69l3 -3v-45h-3h-116v181v2zM2034 826q3 0 3 -17v-6q0 -19 -3 -19h-86v-28h50q0 -2 1 -5q2 -6 2 -14q0 -22 -3 -22h-50v-28h86q3 0 3 -19v-3q0 -20 -3 -20h-124q-3 0 -3 23q-2 14 -2.5 29t-0.5 34v11q0 21 0.5 42t5.5 42h124zM2259 828l16.5 -36
l19.5 -44q8 -21 14.5 -45l13.5 -49l3 -9h-42l-4 8t-3.5 9.5l-3.5 13.5h-33h-28l-5 -13.5t-4 -9.5t-2 -8h-42q8 38 18.5 70t23.5 61l11.5 28t10.5 24h36zM2226 718h30l-14 41q-1 -4 -4 -10l-5 -13zM2375 826h11q21 0 40 -0.5t38 -5.5v-39q0 -5 -58 -5v-131h-3h-44v131
q-29 0 -42.5 1.5t-15.5 3.5v39q0 6 74 6zM38 499v-70h75v70h3h39q1 -5 2 -13q2 -14 3 -40v-36q0 -23 -1.5 -46t-3.5 -46h-39h-3v70h-75v-70h-38q-3 0 -3 23l-4 29t-2 34v11q0 21 2 42l4 42h3h38zM246 499h11q19 0 37.5 -0.5t37.5 -2.5v-42q0 -5 -58 -5v-131h-44v131h-3
q-55 0 -55 5v39q0 6 74 6zM415 499h12q19 0 37 -0.5t37 -2.5v-42q0 -5 -58 -5v-131h-44h-3v131q-53 0 -58 5v39q0 6 77 6zM518 499h61q39 0 61 -17q6 -5 8.5 -10t2.5 -9v-9q0 -41 -47 -58q-19 -8 -36 -8q-2 -21 -3 -38t-3 -32h-44h-3v181h3zM565 468l3 -47q33 4 33 28v2
q0 7 -4.5 11t-17.5 6h-14zM665 457h19v-11v-11h-19q-3 0 -3 3v13q0 6 3 6zM665 377h19v-12v-11h-19q-3 0 -3 6v11q0 6 3 6zM848 487q-13 -31 -27 -59t-31 -57l-34 -52.5l-36 -52.5l-5 2l-8 6l-6 3l27 57.5t31 55.5q15 27 33 54.5l37 54.5l5 -3l8 -6zM998 487
q-13 -31 -27 -59l-29 -57l-34 -52.5t-38 -52.5l-5 2l-9 6l-5 3h2l26 57.5t30 55.5l33.5 54.5t35.5 54.5l6 -3l11 -6zM1139 499q0 -1 1 -4q2 -6 2 -13v-6q0 -8 -2 -14q-1 -3 -1 -5h-86v-31h64v-19v-22h-64v-67h-39q-2 0 -2.5 6t-2.5 17q0 14 -1.5 29t-1.5 34v11q0 21 2 42
l4 42h2h125zM1225 501l16.5 -36l19.5 -44q8 -21 14.5 -45l13.5 -49l2 -9h-41l-4 8t-3.5 9.5l-3.5 13.5h-33h-28l-5 -13.5t-4 -9.5t-2 -8h-42q8 38 18.5 70t23.5 61q6 17 11.5 29l10.5 23h36zM1192 390h30l-14 42q-1 -5 -4 -11l-5 -12.5t-7 -18.5zM1380 499h9q12 0 19.5 -0.5
t7.5 -2.5v-42l-3 -3h-24q-42 0 -53 -27v-14v-3q0 -26 28 -39q6 -2 11.5 -2.5t10.5 -0.5h27l3 -2v-42q0 -3 -22 -3h-14q-41 0 -69 28q-11 13 -16.5 27.5t-5.5 33.5v6q0 55 44 74q13 7 24 9.5t23 2.5zM1502 499h11q19 0 38.5 -0.5t36.5 -2.5v-42q0 -5 -58 -5v-131h-44v131
q-59 0 -59 5v39q0 6 75 6zM1677 499h3q29 0 49.5 -11t33.5 -37q8 -18 8 -44q0 -62 -55 -83l-16.5 -4t-14.5 -2h-8q-36 0 -67 31q-8 12 -13.5 26.5t-5.5 31.5v6q0 65 66 86h20zM1638 410v-3q0 -31 28 -39q4 -2 8 -2.5t8 -0.5q32 0 39 28q2 5 2.5 8.5t0.5 8.5q0 33 -31 41h-13
q-15 0 -24 -6t-15 -19q0 -4 -1.5 -8t-1.5 -8zM1782 499h61q29 0 46 -8t23 -20q1 -2 2 -2.5t1 -2.5v-3v-9q0 -17 -8 -30.5t-25 -21.5l14 -15.5t8 -12.5q6 -7 11 -21t11 -35h-50q-4 0 -8 28q-16 36 -36 36q-2 -16 -2.5 -27.5t-1.5 -19.5q-1 -10 -1 -17h-45h-3v181h3zM1829 468
q2 -13 2.5 -24.5t0.5 -22.5q17 2 26.5 8.5t9.5 19.5v2q0 17 -39 17zM1987 499q1 -5 2 -13q1 -7 1.5 -16.5t2.5 -23.5v-39q0 -21 -2 -43.5l-4 -45.5h-44q-1 1 -2 5t-1 18q-2 12 -2.5 28t-0.5 33v13q0 21 2 42l4 42h44zM2087 499h6q29 0 48 -11t32 -37q5 -8 6.5 -19.5
t1.5 -24.5q0 -63 -52 -83l-16.5 -4t-17.5 -2h-5q-40 0 -69 31q-17 23 -17 58v6q0 65 66 86h17zM2051 410v-3q0 -30 25 -39q6 -2 9 -2.5t8 -0.5q29 0 41 28v17q0 34 -27 41h-14q-32 0 -39 -25q-2 -4 -2.5 -8t-0.5 -8zM2190 338h19v-11v-11h-19q-1 0 -2 1t-1 4v11q0 3 1 4z
M2226 499h44v-111q0 -7 8 -17q5 -5 10.5 -5.5t12.5 -0.5h5q21 0 25 14q3 3 3 9v111h44h3v-117q0 -35 -33 -53q-15 -11 -42 -11h-8q-56 0 -72 45q0 6 -1.5 10.5t-1.5 8.5v117h3zM2464 499h6q17 0 33 -0.5t33 -5.5v-39v-3q-19 5 -31.5 7t-23.5 2h-3q-19 0 -19 -9t36 -33
q44 -32 44 -58v-3q0 -27 -44 -36q-8 -2 -13 -2.5t-10 -0.5h-11q-14 0 -30 0.5t-33 2.5v3v41l29 -3.5t20 -1.5h6q22 0 22 11q0 9 -41 33q-39 27 -39 53v3q0 30 50 39h19z" />
    <glyph glyph-name="nine" unicode="9" horiz-adv-x="2599" 
d="M61 1153h14q18 0 36.5 -0.5t37.5 -5.5v-39q0 -5 -58 -5v-130h-44h-3v130q-27 0 -41.5 1.5t-16.5 3.5v39q0 6 75 6zM205 1153h3v-70h74v70h39q6 0 6 -53l3 -36q0 -23 -2 -45.5l-4 -45.5h-42v69h-74v-69h-3h-39v6q0 3 -1 7t-2 9q0 14 -1.5 29t-1.5 32v14q0 20 2 41l4 42h39
zM476 1153q3 0 3 -17v-5q0 -8 -0.5 -14t-2.5 -6h-85v-28h49v-5q0 -7 3 -14q0 -8 -2 -16q-1 -4 -1 -6h-49v-28h85q3 0 3 -19v-3q0 -19 -3 -19h-124q-3 0 -3 22q-2 14 -2.5 29t-0.5 32v14q0 20 0.5 41t5.5 42h124zM729 1147q27 -7 27 -33t-36 -58q-18 -19 -44 -36h80v-47h-152
v47q17 11 32.5 22.5t28.5 24.5q13 11 21 18.5l12 11.5q5 8 1 12.5t-12 4.5q-25 0 -33 -17q-6 -4 -6 -14h-47q0 9 3.5 18.5t7.5 18.5q21 33 70 33q14 0 26.5 -0.5t20.5 -5.5zM768 992h16q2 0 2.5 -3.5t0.5 -7.5q0 -11 -3 -11h-16q-3 0 -3 5v11q0 6 3 6zM831 1144q15 12 42 12
q25 0 44 -12q36 -23 36 -80q0 -60 -36 -80q-11 -7 -20.5 -9t-20.5 -2q-13 0 -25 2t-20 9q-38 21 -38 80q0 56 38 80zM853 1020l10 -4t13 -2q4 0 9.5 2t9.5 4q19 11 19 44q0 30 -19 42q-4 4 -10 4.5t-12 0.5t-10.5 -0.5t-9.5 -4.5q-19 -13 -19 -42q0 -32 19 -44zM1120 1156
q1 0 36 -100l2 -14l16.5 49.5l12.5 35.5l10 29h45q0 -13 -28 -103q-11 -23 -19.5 -43t-19.5 -35q-3 -2 -14 -2h-5q-17 0 -17 2q-13 26 -25 56.5t-25 68.5q-2 13 -5.5 26t-8.5 30h45zM1383 1153q3 0 3 -17v-5q0 -8 -0.5 -14t-2.5 -6h-83v-28h47q3 0 3 -19q0 -22 -3 -22h-47
v-28h83q3 0 3 -19v-3q0 -19 -3 -19h-125q-1 2 -2 6t-1 16q-2 14 -2 29v32v14q0 20 1.5 41t3.5 42h125zM1400 1153h61q29 0 46.5 -7.5t25.5 -20.5v-8v-9q0 -34 -34 -55q17 -13 25 -25q5 -6 9 -20.5t11 -34.5h-50q-1 2 -2 6q-1 3 -2.5 8t-3.5 13q-17 36 -36 36l-3 -47t-3 -16
h-44v180zM1447 1122q2 -12 2.5 -24t0.5 -23q36 4 36 28q0 19 -39 19zM1619 1153h8q17 0 33 -2l33 -4v-39l-2 -2q-35 8 -56 8h-3q-19 0 -19 -11q0 -4 39 -31q21 -17 32.5 -31t11.5 -27v-3q0 -27 -47 -36q-6 -2 -12 -2h-10h-8h-33.5t-30.5 2l-3 3v42h3q14 -2 26.5 -4t20.5 -2
h6q24 0 24 11q0 7 -44 34q-39 25 -39 52v3q0 14 12.5 23t37.5 16h20zM1757 1153q2 0 6 -53v-39q0 -20 -0.5 -42.5t-5.5 -45.5h-41q-2 0 -2.5 4.5t-0.5 17.5q-2 12 -4 28t-2 33v14q0 20 2 41l4 42h44zM1860 1153h3q29 0 49.5 -11t33.5 -36q4 -8 4.5 -20t0.5 -25
q0 -63 -52 -83q-18 -5 -31 -5h-8q-40 0 -67 30q-8 13 -13.5 27t-5.5 31v6q0 66 66 83q7 2 11 2.5t9 0.5zM1821 1064v-3q0 -31 28 -39q4 -2 8 -2h8q32 0 39 27q3 3 3 17q0 17 -8 25.5t-23 13.5q-2 2 -5.5 2.5t-7.5 0.5q-15 0 -24 -6.5t-15 -18.5q-2 -5 -2.5 -8.5t-0.5 -8.5z
M2009 1156q0 -5 81 -95l14 -16v108v3h39q5 0 5 -50q2 -7 2.5 -15t0.5 -19v-19q0 -19 -2 -39.5l-4 -40.5h-41l-95 110v-108l-2 -2h-39q-1 2 -2 6t-1 16q-2 14 -2.5 29.5t-0.5 34.5v11q0 20 2 41l4 42v3h41zM2334 1153q4 0 8 -53v-39q0 -20 -1.5 -42.5t-3.5 -45.5h-45
q-1 2 -2 5t-1 17q-2 12 -2 28v33v14q0 20 0.5 41t4.5 42h42zM2423 1153h8q17 0 33 -2l33 -4v-39l-2 -2q-37 8 -56 8h-3q-19 0 -19 -11q0 -2 9.5 -10t26.5 -21q47 -33 47 -58v-3q0 -27 -47 -36q-6 -2 -12 -2h-10h-11h-31t-30 2l-3 3v42h3q14 -2 26.5 -4t20.5 -2h5q25 0 25 11
q0 7 -44 34q-39 25 -39 52v3q0 14 12.5 23t37.5 16h20zM-3 828h53q71 0 97 -55l3.5 -19.5t1.5 -16.5q0 -61 -61 -83q-24 -9 -58 -9h-36h-3v181zM38 792q0 -17 1.5 -30.5t1.5 -24.5q0 -13 -1.5 -25.5t-1.5 -29.5h6q28 0 50 22q11 11 11 33q0 38 -36 50q-13 5 -31 5zM241 826
h3q29 0 49.5 -11t33.5 -36q4 -9 4.5 -20.5t0.5 -24.5q0 -63 -52 -83l-16.5 -4t-14.5 -2h-8q-19 0 -36.5 8.5t-30.5 22.5q-11 13 -15 27t-4 31v6q0 65 66 86h20zM202 737v-3q0 -31 28 -39q4 -2 8 -2h6q34 0 41 27q0 2 1.5 7t1.5 10q0 17 -8 26t-23 16h-13q-15 0 -24 -6.5
t-15 -18.5q-2 -5 -2.5 -9t-0.5 -8zM379 826q2 0 7 -13.5l13 -36.5l25 -70l36 95q3 -3 36 -95q1 5 4 13q2 7 6 16.5t9 23.5q6 17 11 29.5l8 20.5q4 10 6 17h50q0 -7 -8 -30l-22 -65q-8 -25 -18 -46t-18 -40h-56q-1 2 -2 5q-1 2 -2.5 6l-3.5 9l-2 -6q-1 -3 -2.5 -6t-3.5 -8
h-53q-2 2 -8 13t-14 32q-11 21 -19.5 49l-19.5 62l-6 25h47zM646 828q0 -2 20 -26t60 -68l14 -16v108v2h41q0 -5 1 -12q1 -6 1.5 -15.5t0.5 -21.5q0 -7 1.5 -15t1.5 -19v-19q0 -19 -2 -39.5l-4 -41.5h-41l-94 111v-108l-3 -3h-39q-1 2 -2 6t-1 17q-2 14 -2.5 29t-0.5 34v11
q0 21 2 42l4 42v2h42zM809 828h44q3 -2 3 -63v-17q0 -13 -0.5 -27t-2.5 -28h73v-3v-45h-117h-3v181zM1017 826h3q57 0 80 -47q9 -18 9 -45q0 -62 -53 -83l-16 -4t-15 -2h-8q-21 0 -38 8.5t-31 22.5q-17 26 -17 58v6q0 65 67 86h19zM978 737v-3q0 -30 25 -39q7 -2 11 -2h6
q17 0 26 6.5t15 20.5q0 2 1.5 7t1.5 10q0 17 -8 26t-22 16h-14q-15 0 -24 -6.5t-15 -18.5q-2 -5 -2.5 -9t-0.5 -8zM1208 828q7 -17 16.5 -36t17.5 -44q8 -21 16 -45t14 -49l3 -9h-42q-2 0 -4.5 8.5t-9.5 22.5h-30h-31q-8 -31 -11 -31h-38h-3l20.5 70t20.5 61q8 14 14.5 28
t10.5 24h36zM1175 718h31l-14 41q-5 0 -17 -41zM1286 828h55q74 0 95 -55l3.5 -19.5t1.5 -16.5q0 -62 -58 -83q-26 -9 -61 -9h-36h-3v181zM1328 792q2 -17 2 -30.5v-24.5v-25.5t-2 -29.5h5q31 0 53 22q11 11 11 33q0 38 -39 50q-13 5 -30 5zM1538 828q8 -17 18 -36t18 -44
q8 -21 16 -45t15 -49v-9h-42q-1 4 -3 8t-3.5 9.5t-4.5 13.5h-30h-31l-3.5 -13.5t-3.5 -9.5l-4 -8h-42q9 38 19 70t23 61l12.5 28t12.5 24h33zM1508 718h30l-16 41q-2 -4 -4 -10q-2 -5 -4.5 -13zM1671 826q83 0 83 -42v-5q0 -29 -36 -42h-2q10 0 19.5 -4.5t16.5 -14.5
q8 -10 8 -28q0 -45 -80 -45h-56q-3 0 -3 23q-2 14 -3.5 29t-1.5 34v11q0 21 1.5 42t3.5 42h50zM1663 803v-47h25q11 0 15.5 3t6.5 11v6v5q0 22 -44 22h-3zM1663 720v-50h8q19 0 28 2.5t14 9.5q0 2 1.5 5.5t1.5 7.5q0 25 -39 25h-14zM1774 828h44q6 -4 6 -63v-17
q0 -13 -0.5 -27t-2.5 -28h69l3 -3v-45h-3h-116v181v2zM2034 826q3 0 3 -17v-6q0 -19 -3 -19h-86v-28h50q0 -2 1 -5q2 -6 2 -14q0 -22 -3 -22h-50v-28h86q3 0 3 -19v-3q0 -20 -3 -20h-124q-3 0 -3 23q-2 14 -2.5 29t-0.5 34v11q0 21 0.5 42t5.5 42h124zM2259 828l16.5 -36
l19.5 -44q8 -21 14.5 -45l13.5 -49l3 -9h-42l-4 8t-3.5 9.5l-3.5 13.5h-33h-28l-5 -13.5t-4 -9.5t-2 -8h-42q8 38 18.5 70t23.5 61l11.5 28t10.5 24h36zM2226 718h30l-14 41q-1 -4 -4 -10l-5 -13zM2375 826h11q21 0 40 -0.5t38 -5.5v-39q0 -5 -58 -5v-131h-3h-44v131
q-29 0 -42.5 1.5t-15.5 3.5v39q0 6 74 6zM38 499v-70h75v70h3h39q1 -5 2 -13q2 -14 3 -40v-36q0 -23 -1.5 -46t-3.5 -46h-39h-3v70h-75v-70h-38q-3 0 -3 23l-4 29t-2 34v11q0 21 2 42l4 42h3h38zM246 499h11q19 0 37.5 -0.5t37.5 -2.5v-42q0 -5 -58 -5v-131h-44v131h-3
q-55 0 -55 5v39q0 6 74 6zM415 499h12q19 0 37 -0.5t37 -2.5v-42q0 -5 -58 -5v-131h-44h-3v131q-53 0 -58 5v39q0 6 77 6zM518 499h61q39 0 61 -17q6 -5 8.5 -10t2.5 -9v-9q0 -41 -47 -58q-19 -8 -36 -8q-2 -21 -3 -38t-3 -32h-44h-3v181h3zM565 468l3 -47q33 4 33 28v2
q0 7 -4.5 11t-17.5 6h-14zM665 457h19v-11v-11h-19q-3 0 -3 3v13q0 6 3 6zM665 377h19v-12v-11h-19q-3 0 -3 6v11q0 6 3 6zM848 487q-13 -31 -27 -59t-31 -57l-34 -52.5l-36 -52.5l-5 2l-8 6l-6 3l27 57.5t31 55.5q15 27 33 54.5l37 54.5l5 -3l8 -6zM998 487
q-13 -31 -27 -59l-29 -57l-34 -52.5t-38 -52.5l-5 2l-9 6l-5 3h2l26 57.5t30 55.5l33.5 54.5t35.5 54.5l6 -3l11 -6zM1139 499q0 -1 1 -4q2 -6 2 -13v-6q0 -8 -2 -14q-1 -3 -1 -5h-86v-31h64v-19v-22h-64v-67h-39q-2 0 -2.5 6t-2.5 17q0 14 -1.5 29t-1.5 34v11q0 21 2 42
l4 42h2h125zM1225 501l16.5 -36l19.5 -44q8 -21 14.5 -45l13.5 -49l2 -9h-41l-4 8t-3.5 9.5l-3.5 13.5h-33h-28l-5 -13.5t-4 -9.5t-2 -8h-42q8 38 18.5 70t23.5 61q6 17 11.5 29l10.5 23h36zM1192 390h30l-14 42q-1 -5 -4 -11l-5 -12.5t-7 -18.5zM1380 499h9q12 0 19.5 -0.5
t7.5 -2.5v-42l-3 -3h-24q-42 0 -53 -27v-14v-3q0 -26 28 -39q6 -2 11.5 -2.5t10.5 -0.5h27l3 -2v-42q0 -3 -22 -3h-14q-41 0 -69 28q-11 13 -16.5 27.5t-5.5 33.5v6q0 55 44 74q13 7 24 9.5t23 2.5zM1502 499h11q19 0 38.5 -0.5t36.5 -2.5v-42q0 -5 -58 -5v-131h-44v131
q-59 0 -59 5v39q0 6 75 6zM1677 499h3q29 0 49.5 -11t33.5 -37q8 -18 8 -44q0 -62 -55 -83l-16.5 -4t-14.5 -2h-8q-36 0 -67 31q-8 12 -13.5 26.5t-5.5 31.5v6q0 65 66 86h20zM1638 410v-3q0 -31 28 -39q4 -2 8 -2.5t8 -0.5q32 0 39 28q2 5 2.5 8.5t0.5 8.5q0 33 -31 41h-13
q-15 0 -24 -6t-15 -19q0 -4 -1.5 -8t-1.5 -8zM1782 499h61q29 0 46 -8t23 -20q1 -2 2 -2.5t1 -2.5v-3v-9q0 -17 -8 -30.5t-25 -21.5l14 -15.5t8 -12.5q6 -7 11 -21t11 -35h-50q-4 0 -8 28q-16 36 -36 36q-2 -16 -2.5 -27.5t-1.5 -19.5q-1 -10 -1 -17h-45h-3v181h3zM1829 468
q2 -13 2.5 -24.5t0.5 -22.5q17 2 26.5 8.5t9.5 19.5v2q0 17 -39 17zM1987 499q1 -5 2 -13q1 -7 1.5 -16.5t2.5 -23.5v-39q0 -21 -2 -43.5l-4 -45.5h-44q-1 1 -2 5t-1 18q-2 12 -2.5 28t-0.5 33v13q0 21 2 42l4 42h44zM2087 499h6q29 0 48 -11t32 -37q5 -8 6.5 -19.5
t1.5 -24.5q0 -63 -52 -83l-16.5 -4t-17.5 -2h-5q-40 0 -69 31q-17 23 -17 58v6q0 65 66 86h17zM2051 410v-3q0 -30 25 -39q6 -2 9 -2.5t8 -0.5q29 0 41 28v17q0 34 -27 41h-14q-32 0 -39 -25q-2 -4 -2.5 -8t-0.5 -8zM2190 338h19v-11v-11h-19q-1 0 -2 1t-1 4v11q0 3 1 4z
M2226 499h44v-111q0 -7 8 -17q5 -5 10.5 -5.5t12.5 -0.5h5q21 0 25 14q3 3 3 9v111h44h3v-117q0 -35 -33 -53q-15 -11 -42 -11h-8q-56 0 -72 45q0 6 -1.5 10.5t-1.5 8.5v117h3zM2464 499h6q17 0 33 -0.5t33 -5.5v-39v-3q-19 5 -31.5 7t-23.5 2h-3q-19 0 -19 -9t36 -33
q44 -32 44 -58v-3q0 -27 -44 -36q-8 -2 -13 -2.5t-10 -0.5h-11q-14 0 -30 0.5t-33 2.5v3v41l29 -3.5t20 -1.5h6q22 0 22 11q0 9 -41 33q-39 27 -39 53v3q0 30 50 39h19z" />
  </font>
</defs>
</svg>
